<mxfile host="Electron" modified="2024-03-11T14:43:14.991Z" agent="Mozilla/5.0 (Windows NT 10.0; Win64; x64) AppleWebKit/537.36 (KHTML, like Gecko) draw.io/21.2.8 Chrome/112.0.5615.165 Electron/24.2.0 Safari/537.36" etag="Fj1M_X2LxQku7KoBcatf" version="21.2.8" type="device" pages="2">
  <diagram name="architecture_diagram" id="mENBeorMyukQEenWZRnX">
    <mxGraphModel dx="918" dy="638" grid="1" gridSize="10" guides="1" tooltips="1" connect="1" arrows="1" fold="1" page="1" pageScale="1" pageWidth="850" pageHeight="1100" math="0" shadow="0">
      <root>
        <mxCell id="0" />
        <mxCell id="1" parent="0" />
        <mxCell id="EnO2U9nMXVYCDqS1bMv6-60" value="External Database&#xa;(Epic System)" style="shape=image;verticalLabelPosition=bottom;labelBackgroundColor=default;verticalAlign=top;aspect=fixed;imageAspect=0;image=data:image/png,iVBORw0KGgoAAAANSUhEUgAAAKgAAACLCAYAAAD1c9IsAAAAAXNSR0IArs4c6QAAAARnQU1BAACxjwv8YQUAAAAJcEhZcwAAFiUAABYlAUlSJPAAADPWSURBVHhe7Z0JmGZFdffpZbp7ZpiefWd2mY1ZnURUVHCJoomGiCwad8K4RaPi5x7RkE+jENTEuGsEDCBqVFySqHHBQFgkEUREEMUFUYgiKCDLDPn/qqvqOffcepfp6e7pvPOe5zlP3VP33FpOnXvqVN2quge0CT07d+6ccswxx/RFul0Y7XNd6EL7cPLJJ/dGJesZiWkLeg4//PD+UTzXhS6MP6CYk8By8mIkpCxgf8QpBgcaYLqfnklp9ApTul2YhNBz3nnn9WFZIx0U0tJcC2nU3IieR9DjLWy7PAqSknA9OH/+/AMVzhceIjyir6/vKQpPFL5K+Jaenp5/UHim8FPCfxN+XXEXK7xceKXwO6KvFn4n0t8SXib6PxR+WXi+8FzRHxD+ra7/Uvhi4dOU1+MVPki4SjhDOCREsUM9oixSeYGa/AxPglq9Czy1nq0d+XU0mG67IiihFUKPhNRvBcV1fC5Bz44dO3IjAtx3PEnJ4YF3xrRp0xYPDAys0/UO4R8JXyOF+YRCFOsW4e2i71J4j/A+4W7h/R7FU6NLcZ42caS7SzR5/E74W+GvhT9WHAp9uvA5wkdMnz59k8KDhLOFU4WVet9///1eiRLdVH5GNgFKPIwBiI80YK87CoLQEIqvcEm4kSfEodSWFoRnbDrQLp3eBzzgAYMKVwj/QHiiGv4U4Ud1faHwx8I7RNcUUHFN6RK2ega6nXRd3H2ifyW8QtefFv6d8BXRum8VzkAGrt4lK9hMxgGgHU9NxoLJ4HaNC4S3FUXjeiRq5I1VkIWCJaDr0mUWCm8wGEkgDJ4IR8gR4SpI6dA90lX+ifA04ZeE16qR/0chljEoZBvKEehSnKfb4bF0CdtM916Ftwt5uS4RfU5vb++LdL1NOEtY652QsVO8mnUVVNqBMMo48aRnwM4DhFRSqljpAIVu6gC68Be/+MVYwSwo0oE30sG6Rku5RIhlwce7TOHPhXSdo1YQS5fioFs91w5PCdtMd5eucQuuEZ4vZX3dlClTsKy8pEGeVsaC4ssd4xLU2irSnamcEahsrrCg9lZjYaNFDYDVjMqZeILgjHL2yzdb2N/f/1Bdnyz8vhCfrtSQtThLt4OjSbcdnlJcicdjk2fwZc+VG3BU9LXxWYGazylI7ZCg6HM6ns4Hr5zQ1ioKgjIaQaW3OtGz1QBHq1E+qOtrhQw0io3WpCEz3YrHIXndJR662l8Jbxb+XPTPFN4oJIT+hRC34lbhHcJ7RLfl75bimtEF3C2eXyr8d+ErhOvigDLLGJm7dqj5nIbOPE55Ow+sIqZu3QvFCc76Q8wtPljCf6/CHwrxyUoN1FajmjgU53c0qvAHumZQwvTQ50R/RCEjaqz0SepGXyB8tq6PFz5Z+CS9LMwGHCl8rPBxov9QIXF/LDxG+AwhU1ZMK71W+Fal+36F5wlRIqajvie8Sde/EY76hXNx1Os20f+qkDIzjYYlRZYVyxllntoh0ZmHZ1y7dB5QSSHKZgdEucJGORMEnhg3V/gKCftqhXcLSw1SpCPSWPhsYVpHPLcp/J7wXOFrpHR/2tcXRvtMP9E1LmdKSiFTO8yRTluxYsXQxo0beUkoD43pLbudRqNeYF98Bj6sGP7hsHCOkDqRxxr5jgx0HiZ8kvDPVT7mXb8hZOrrTtFYYMqfrbCvJ3QpTiF1/oXwM/iosTwJUptYxaP8th1qfmnHAY1m/Juaz8m1U84klAH5mYcq/KiETUOVGqBCuzie+YnCbwo/IzxVynicwoOFqaG8dfCj2NLLU1NO6uBeulo9BY3q6RUkPYMiP0pl5oMB1vzrwutUJ1yHYGkTtiEL6O8qxPrz4vXS9Y+ifB0HFefbKQOQfBuvIP1DQ0OHSah8talYTbAg/BRH188o/oui36iQrnazcAFWsEGD5PJAO56i22F5uO94iul6HtKxbg/3G5QPnC5cLXy08IVC3AR6AXziin/rZWPi4MM9evmMGTPmNqsD94S2fMk96DiggrliDYSSIPg/NJy6o+2ivyKka6sJ3GJsIAYjFwjfzGS2RrFrdR2sJEKOAq+UwzYIYaQbNhqh54lpNuNpx6erpZt8dF2WeIibpXoeIet6kq4/JrxByACpKCOD8DCX+ufCMFNCujHtAL58qSxWfh0PXiiC0CUSyv9bJCF+RIjvVRGwo5laYmDB93Es5TIhPqMdtRa/Xfu8bYMApfL57o77MS5BrsMIWfFLA5C3S6eWbjvlMzwo2TzhZsmCjxP0HvQiwao2kB/3fip8hJA0rOL5vGouTydDqHShAQIduxMGEox4/6eBcJOAuX+erAgDCxZZ8GxKNwvX0UDNpfDPlMpHI9nujvvuuWLeMa8EjcpX4SmVz6YDHZ9LEMoXp5O2CP+/8ArJp+anOpl+dvr06QsUJminDh0L+U30QiDeCGG98MsSZLAACY1gsQ5Xqmt72dSpU/mClJ6rOfSk6RvS5R0a2zVATfFSuUfIioJUeIwCAz6vEk9N0dwzhJYGajyRzuVjdZYGlw/XJauvmLwvKSc086XPEvKsL19I15XPlqNzgEpLCUJX10K4Moh9zC8y4V0RZkQswtfE88S5c+diNQMYRQzpxvyC0KEBz0Po8i4pnu/ebKPlvFw6tXRL5Ys0GKCd8rVbBwWJBz/876WIfBLNcnQv+5kzZ86cXUo3yjCAybvjoNHWjeAbmjf2AEbZsowv1yUDHi9M8IdSzkf5uTwv3In0OT2PgDRsOt6ye6UP5fPpxrI0rYPiGlntBH2zZ89ervADwrA2wSG91Fc0oKTXyuWL02XNytc5YARbEmQWCvTixYun6foNQtZjlrqkz0SeBMV0CEfIAK18zqB4kSdBSNc0fnjGPVfksekU6p7ytuVpWQefrsA/Y3lCHOVCqSLf04R8qSrJ9BKFLDIBankLanl1GlAxW7laQ0JHIbC4gc+K9xYECfJpkE92gLdMJStTs17wtGhsq0QBTPkST0i3lQIrn5Y+Z6kO7ZTP8nDt0g3WNfIwymdZXnHQKbxU13zJsnVIkGRh69DRUGx8BUkIjOCDggorgozXfPp70UEHHYQiZ8GhBD5d02iVhlVYyTs2YuaJCpN40jPN0rE8AXzejcrXIK8KT4xLUORRAJbyAg+V/PgClWXqFPVS5px5JqYVoEkdOhdshQFoV+mpEt5fKczTI06YYf5OfurrFPIdOzSMa+hSukm4zfIOPNbilXjUcBWLx33bsIKa1Y50Tgd+zxPzKSlIgprPLqjxGFlgOfnqxMKXRi88iIKyBqGSd0wnQUjX1bOzwFU6NEgUbhJ478KFC/mcx+fJIFAE6YSZaCbnPyd8HCNQhVmYpmErCuIVzwm7qDC+fI6npsCFvG1eOR3H087LU0u3UT0ZaOqaQQ890U8lr0bTdQlZ4M1XuwTF8jl5dTZQ4SiEBKnxKz5oA+W0eIPi3qKQlUhMOCPImqJZ4ZYa1vOY8iWeVL7EE3xZz0PeLSxc8UWweQvaUZBaurzccVUU3+nZ6lJcXGPjIp18UMDnHeTl8u5siALIQjC+DUIIPqiE1qxL8oK+U8h6SjaWsVKHrg2oTZeQj2tYm3cAw1NREIWJpziNVVI8whFyJF3P45S+oVVUWOFRkHngj+sWThUyImcwVFm/4OSV4+J1UFDTDjlv5eW79VyfjoUohASpAVLFhyS43MU3wpKwhTQKq9zZtXlK38jCYb7NhwGVafwESYGz0Lnfonyp/LbRakpVUmDP49KxFjlByNtaZOg4QMStweo9X/Vm2/SPhMxzVrrzhCV5GRof9IGxnglqL3ehfB0PtUbjE52E9yZdNxok1egSigdlxU+9TvghDaqeGfcvMWk9UzgtbrbLCkJZXHl8+UoKXFsDKqw8I2ilnMV0+a4ey8gXs4VSokP00rFS/xQhL+EtqmdxOq4ZXcDL4iApl88rZ6F8HQ/FLrE0SCK0OIoGYHkZW46vF3LCx9ulsK8W8g36kcL1rI10+3ZC+Yz1ChbOWkWB5wkN6XmIa8CT84qND411XKmX6SFSRrZOM3/Jwo+zVAe6bxYqBytJvduRRRs8dPFpkEQZinVQmOvQ6RCEIExCCG9sFELRBwWjYFn40GzxQ412cSgrX6nY9MaytGtE/6dC9u2cIeRImj8VHiHkGBwWo8wWYHXTsTQDfGo12z+oj1XgQBsLCB/h1JgO3TMfG9i///tSRNYe/IXwHcJPqTysaeX4HNZ3spiDl6vmU7aiTRz1/bXoRn59ZaLeKifX+51yqtLNfLpWE/VYwGeI/oJC/M3scxmeTJfiPG3iUAJGviysYLcmfh1H4tCALJz+rJA9TP8oHjbucdIH6y//RjTIbMKbI32qEIVjbxHfwdmy8s8Kvyike2Yp3PeFLIqhHrx0be/8tHQJIw+KSflPVm/xGoWNFuCEiXp6gxbKmVyTjodKhV2laxP1DrFyfXPmzGHjGXuLmE5hqonFJRVl9Q1ZolvxlOJKPB5Hm26r59rgwSdlg9x/CdmNehCKJyvNmllW0ZeeuVQuxe9Z5RQk5UwQaMfT0WCVMylsbxwkVUbxTphnumcWCY8SotSsqsdHa9WIgW7FU4pr57lSOh5Hm24THvZsMdX2PllLDh1jD9aQkfEThVlBHTJIeqDCBI0sZ6I7HlKFwQC8mbzpuqxM1CvMGBuIIxC94HiOwdXBapzjxUP3y9cRuumWo9wSlp5plU47PKW4Eo/HwjP0FrgFzFJ8WvU+SVaQ7RvsAg0ulJvqYvTPyXk+HTBP1Dfp1vcby+l9TsC+oa0m6unigdpbDR1H4gxmONXucDUcgw82lNGQDBTYAYn7gL+ZR8OEzdDzlOix4CnEMaijvPiTKCQDu7AxUHi0kIHcvDg3mmVakPETlU7Fgpp8goKWlFNxfqK+4xU1KVYCr2gIujZRb4SJgtbeaiPcBH4aa4YszGFS2P+n638UMsjihDi27XJkDa4BE93F850sXcJ2ninxmDheFqw9c7f4kJxwcqXorwp5wd4qfKpwha+nk1+QjVcq+aBsKOR8gJx3uhaGxSI+XZSTcIQcSdfxdDwE4do5QuZBJbxmE/VnmAZIz7VsJOjIQxwLnpeqUdhcxnQSx9M8X/gG5fX3Cj8u5FQPpqA4nxP/LlndoqJZuoSRByUkjaSI6UAJFr0wM4ASvlTINNcTmAsdHBxco2uOVqRnqPnsvISt5mHji1rxQV2ZaxP1TeSX8+pooPKuwmEeMa6Wb7ZY5CyFWXA8E1czoWhMvB+lRl2pkLQDlPISQqd0kkVmvpIty0vUYIegILrmvCW60mfL+rLT9JVCysex4KcLUeh3C/F73y+awxTeI3yX8O2iTxPy5YczmVC+E5UOq9v5DIvPuDUqIfOiuDeULZWnUr4YF8DXCSUlDoQGiDM82QcFuQ1GOvugAp93SX4dD0lBUoWtQ99qoj75oOGtjrs6UQq6aQ7KSqe6hf3e8EQLkqA2DxvvU54AlMO5B71xUj5Nug9h6eNUF4MzlHqGmcyHns6MRDz7njrx7OCRRx45GBs7gGn8BKlrtcrAfctTXB8Q5RfA1CHBH0k2lUGSuc4T9eRt0ynIr/MhCiArpxDhJ5rGfKOE13SQRBqxYV8m9AfV8ux5Q0NDyV9LadcsqW9YQY1HCF3h8XXw6UDHdBL47thaxRRX67IFxXQUZh7ut6oD86CST7NB0gNdOsXyuXw6E2wDUGFX6WkSHD5ozYJGREFtA+C/WWEHFH1znHbJwuWZBo2feUajIAKbBtDyRYAu5e1k4dOp8RTkF/IiHCFH6D2dqC+Ur1aHjgaUwAuXa7pOXTZcLCLaT9QzyvU8hHxZepQQgJdnUl6pEcEA5G3TpXyRzuUzcbnRYvkrdfA8Pp1Igwk8T8vyERIX8w/gy5zoyBN8UKIL8goWVBignTp0OljBBYCOlin4oMJmE/UJRIZ/DlVG/EJGyxcJNwpr/poAYYMJit2mgkxT1siToJauadgEwadDUSINeB6UrJa35Sm8GAe4Sfhi+UY7Ud+qnvsDVIQtSJaAuOIgKQqS6zRICoLUaBvBsgAjbG8QMo3DGZicajyVhrUKAu0b1jU+IXTmEdjyATWLAh3jEoR0fd6RJ8WFOjgFLqaj0OdtnynyuHRbTdSHXZ0uHV++1GN0NCQBJ/ACD4MkYaNBEv85SoJEWISc6vZXwrN1zRQPk9LDvvELyhisVysF8RaE+66higpieUzeCUK6rdLxdeC+S6emsKTp05UPytpSTrPz8gTtRH2lDgpzOtBY5Uh2PphGy0KJPmgeJCFIJ8yv83cPhRXBKWA6h3imeqwCAzVhl/KONBigxBMbvp10fPkqPFHpffnAAD5dlBQ65h8gxemyIQ/X8TPoS4RMwXl5Qhcn6hXm8kXFzOXreDANkCAJpbJYpCBM1moyWc7XlfCMT0dp1yye4/FWMSlM5qF8MS6BV6piHWhIZ5FrPC7volX05eM++UW6Yfk8z44dO/jwwWCRRdm1tQdRxtkHFbRTvo6Hok8X47IPagUJGprTRd45MMCi9jCBntIpdsdOuEUeBbY8bVlFny50g+44p6s6Nu2ykUG0VjlvoaWBYvmi/AJAxw8JfF1jdX44ednK1NBJQYNsTPlq6QpsOToTbIMIfONzul2woMIsTI8SLFuN+SkC2yUWkEZMpyJchVm4CNoqZ+oSdVnhaScdBcQl8DyJzjwmr0repvGD+1Di0eWelC9sPOwf+fEEh7A1OjDM0mFXp8+bFyXGBTB5dzw0bPw2FotYmhE7+3bOETKNkk69C+l64TrLWWz8yFNRGoUVnvhc03QUZJ6Coo2qfF7JCXkm5pdgleTzNoX8Jpx9VzX5FfAyJuoV5vJ55Szk3fFQqzCCjt+uswUtCbegsCgzf3X7vJAujflPfNQk4FrjRzo3QElBIp0bHx7baILAQ+NF2qaToB2frpi35WmUd1xcs1T4GMmBH4SxTC/vj29TfmGaSRiAfMgvksD+p5wI1zYsAohCaLWivhZnaSHzoazx5J9CTxduiWew49sidPIkn3QNtGUVY1yCQHvljA2b0xXdapqopeUU2PKx7G6YFVB9fX2P0TW9zUWqMyP03OuAJVmV4hQmHzTk3aJ8HQ+tGj9/SRJ6QTakS3GifytkL/n7hPyz8ilxOoU/YoT8TN5eQXKDRKWzCuPrUKyTbdjURca0gJrPSeh4QjqxV+HHY4zGd6pOHHFDb8HEe7CUHguyaEaHXZ106z5vXz57v5MhVxIBOCFw9E1TH7SEpQYwcSg72z1YIMx/ONkJyuayE9QwbC5jPSmzAemf9k0bKdK2obiu8Lh0wjPxuQCk6xU4bldhWR5zwctlITkQDVmw1fpiIf+9Zwaj0oWbeua6N6MLeOnUqVN/z5aP8jjLWap3Z4Np/ARhol4CbTZRf7No1n5WujOPvlEczZQLLgQLSthYx95x/irCYmhWtbOPKa9qV7hByCLoJXwkGB4eZmNaWPvJGtA4nYMvCKZ1olg91oZyzT85WZDMhwSO3lnLqFkhi6xZDP38OHPBwmeUkQEO382Z862ct+TqUaMLcdSV/5Kms5vsvYC673d1JmVMyhkMiQLbVp0NVNgrZ3xjW03Uf0yW5Qm6/qSQEfzdBZ4KXcImz6AMzA6QLg2KEuPfsff+O0ImvP9FyLaQM0RzKAMHOLxdyAr7dwihUbYPCc8RzZLArwnZq85/Ntn4xpYPpsrSdpJKVy2efJ3oUpynTRx1uFU0lpefUvyZMOxJss/FZyoT9V45MST7S9ceoPA2IgxohNBwsUi8Dpvm+BOdFPUpumbLBRYw/JHO8PnnMt2Kpx0cTbrt8ni6FY9DFJ1/1TNHzC8S2XfFwQ21PUkmnaCg7bgzdsDXsdBCCMXjF40wg4LGZ/DZ6G4frC7y9eLBWrA7E+tRbNhSnKVLcSUej6NNt9Vz7fAIUUqsMd34h6WM7Mvip7P0Rsg5rKhX2GxXZzj6RteVdolyDpAGepHcLyB8N7dvZRsT9WcgSCeovrgggumkw4Wv1TMMhFi9w17y+0SHT326zujpUtxoeTy2ega6nXQVl1wQ3A92nF4lZIMeB/dy7PdwHGwlSK5TZUW9Q79YpNbLYV2dAnc8FEeJcTVTw4l60Wc5f6j0j/bUVfGXNXZSnq3n+MvFVUIO0GL6qTbIKuRVjPN0K57RoEkDhfydaE5NZhKeaTNOkj4tWkVG/QFKXbSRcasV9fn4RdLxMt7vlFOIIJMQ7Ke1og8KRsGmBcvFBnHKGnZsxm3JzCM+TPhUuQMc3sCghhEzJ45wvGHLQYqnx4KnFCeaunN4Ay4LHxxweRjkMDjkh1sL3Uki4eW2SlWQTVu7OttIp+Mh+TGNhNDOIKkmuOQfWeEanykJ157ZyfTP8v7+/gfJEmFdThRiuT+ovDhmkeNlviX8vpAFF3bKB3chhEJfvoyGJz3DzASj93C0Y0/PAd8VjUX8VyGLrd+pl+cVKg+DP34Eu5FprThRn+rRSn6A58EHZZDU0AcV2hX1AZBftJw5HSvfToYkyNJ0E8cv5nnQAp7hGgSBzVMDcBDC64Wc7LYCJXTpepfCNyzh4Lp162bI4vIdn3nLgwYGBpizZDKfLpAVQo9WHCuomCdFqVkIjEV+tZAzOAlfKUVjaucFwmcLn6LyPV4hFpxFGVuUxoZ4YAOn881GCTdu3AjywSAoAeVzZfYKY+uQoFZP7gvYZdDIBw27OhXmdEzeCcJ4QeF+oaCA9XWSMEdz/CKj1Q8Lw6nLQnzLS1CI2NhAzbpCu4YNDWIGbISJJ5fP8QC1dNwzIS9fT8dTK5+glneBx6dTqwP8kWcsjl+0eXc0FNcaxje21WKRyvGLslSsrseHtDwoN/9J5+tPsUtUkBvAuAKJp/hMLF/DRjPKUOGJ+QUo8US/OfNw3/KUutp20zU8NR8UjHSeqC+lE+mcV8dDCyE09EGjMIMPapQK/83zgCy/ewQ8rRrS5B0g0mACz5PozFNKlzib92gVzeXdDo+1nAHUo+RRfEIjq6CgjV5UWz5ByrNjITVSAu8ztVrNFBTUNBDnMHnlBH+rRmGxRalhEwS/ioaJNFDkIRwhi+5BatjM46xXMW/q3YqHvG354Gkhv2L5og/abKJ+B3npOkNMN/wORzhz69atK9euXXvYkiVLnr1mzZo3Cd+7atWqs1evXv1R+fzv0vVrFy1adPSmTZu2yJdfgj+v5205/s9AEmbJp2s1UR98UNOwKHP4zKkwIRPz7JVnailAodGCMvjGjzzNyueVyD8DpPLldBxPzTJBO57wjOXh2qfry+efEaSXp5UPWtnVSboo5ZYtWw4VvmDlypUfXbp06XeF4T/+jVDp7F6xYsXt4rt8/fr17z3kkEOOY+NYXFidyznpASHGNzQUGiFHQVKR7IM6xYPGB80NIIFsUhyH0bK9IS3yYJNY/iVibDDSTpDySukkOvPwTIzLjeaeqfGkOlgFKaXjfc428hpV3kam8BQn6rkWZh9U0CMFmyWlPHLbtm1vnzNnzrcXLFhw17Rp0yrt0A7q2d0a9N4qi3uB0jtFysqP1CpWerJCowYAsw9qBQlGmiVxoVFojDhS5xhsDqB9K9/kFfJzLrqXdho/8Cio8MSXp1S+ADzjXzDiYloBiLPptKvA7ZTP8dQGnU45AU63+4mVKdeRzhP16pY3S5neL4v3/QMPPLC2Umw0KCNy//Tp0+9U2lcp7TfQ/Ss+lWvSQc2nEyDIJNxWE/WcubSMRouND5DWlNiNYDUrCsF1hJLPWfPXrOIB3Pc8rvGDv+Z4bPmA8ExUtgBcR2ua0gmKZssHT6u82+CZoheXo4BYZ8rf9q6XPANG+tNSxodt3rx5p/zJH4u3ZhwSEj8wMLBLeE9/f/+dwt8SQsf44nOg/OD7h4aGfidLeonyOkZ+Kx9LJiVk4SJIJ9xWE/V8iTlVFWXhb27YmEZufJNu4gmNaBu/xINSNeBJULN4QksDnmcyQ9+GDRsOUbf+PvmZHABckjmKdY+U+GfCi7Zv3/5xdf9/p8HQG9SDvVzK9npo4kVfCh8KW0oHnDFjxv3K72ZZ0rfIT12suEkJNaXCEsTPes2OXwT5Mxt/cOO79JRSOgqIS+DzSnTmMVYoKx50jAu050kWOuYXoJDOpAYp1w5ZzfOlgHku2aJG5XfJl7xUg563SSGPZcAjfnYT5DpH6MV3VXq4CMctXLjwND13udqzoaLOmjXrd+J9r5J8gOhJJS/f+LY7bjVRn2gs6cXqjp6rkK49QCNFU1hS4Iqi6bKkwIGHZ1zXX0vXpJN5YjgpQV3sGlmwCwYHB2u9lRRr96pVq34k5XkZFjZOGbVbn166b54Tvl7pXC9lzOsWLM6ePfsOWd+zopJODjCNn8AqVauJehtHpVFURvHHDw4esCZa4KwgKJW1cIKab+gUr9St1xSPZyyPUeAE6ZnJCD3yAzdIOb8k/zEs7k6ITGX5bpG1fPfatWvXuzrtMUjxBsiL9NS13+x9VNpUSnqP7p8r48tn630OvuG8ZUJBm62oL9Eoatp/w9802Og2X13OkFVOrkuK1srndOVLL1hF6X260O7FmDQgpVkuq3amLGdlEx2+oSzdNVKUnWM9gGGdr5TwuVLW6zSir1lTvRT36IV5T7TUkwO8wqAoccFys12dNdohPs+3xcOGNXZnspd8KW+ywqx4pbydUtV8TkLiDE9R6SM9KZVzx44d0+T3vXru3Lnhn6YW16xZc62UiHNE7Yr8sYR+5X20lPAKDaRqSjpz5sw7pMAn6Dq30z4DFMJZptSw+JPBgrarnA14UHAGU6zn5PfX7xUifLYAJ6XKSqTypLgAKJ4tnymvfSaVuVIHq8CTDaSAD9Eg5wbb1WI5FfdDKehxfNYMjOMEssyDKsNRspZXaWCWy5Bw69atV8i1+H1d71OoKacaNfl0rSbqm8ZBN3iOT6dsLPup6K8qRGFZs3mU/LBD1WBsD2FtJl3b1GhxU/lqXX8jy2mVcwIUtYe53+3bty9Rg++Q9Tl+5cqVr1q2bNkpwtdpgHKCGpv5zYPoOmU1Z0hBvqCBZbZeyEbd642ybCfgEoVUxx/6Vdbj1NX/UNeVtpo6deo9KvcZKjenv+wbQBkV5IYV0tA0JtfBB5XgGvmg7Cni7CV+Cpvvg9ClOE/HOBqJPNifxAp3zrXn+/171IAsPGahMXt+HiUFfuiUkfWSbErDkV8R52GZw2Oj3nwJe4G6LRY5Y6HnsS1awuZQr6zkYwlM9UipHqbGfJOU9OLly5ffJuW8T2XPdVX8bsXdsWTJkivlc75D/H+5dOnSynTSvHnz7pTVOm2sfc5WgAHQi/PK4eHh2mESivupynqcrrNBmGioWB2F2dJgEaQwlYl6p2Sf6BtZPf9O4bXCsKjE8TRTzEqcp2McI1sWoHBcDt+v2XfP58CviebQBjatnSf8JyGHN7BgGp+XQxw+IPpDQlZdcZ5+ngIbC0Be6iK3bNu27a2LFi26SlaxtvmvhHp5ds2fPz/8aMLGS0kuY7Su6wkHrKQU9Suy4BV/VC//LvUAH9U9erR9BjXlpEukG+JSmAdJhAlFnxm7X/bDs02Bkzw4CocTOmqOd8JCOhW6FAfd4DkUGMVg1RSuCGUFGaCh2ImGh+0jYwbqyh+rrvhCWew7+HSoqL1CWU7WMIy3K9IQ8EeljOz3qpRLhurn6h3sj9gmFKzPGQDljHTDiXpQcXZFffj5rPxHltXRJWPRfiAejqvJ83uldDx6nhLdiqdB3JgoKP4hPqa6ds6mavgiShb3Ce9m8t129yWUW3ClLCg7XvcZ6IWbu2DBgjP0slXqhBzljnCE0MR38yiiG0DYAUdxoh6MjZ+2HYdRNiPpSBPy36RNCjn6mqNf/kvPMCjaY4VthT4N6FKcwr1W0DjyPZYvMnaAA6KEs2bNulsW9Xr5yl+Swn1Q/tvpcgHep279s/KFvyekd8nPgPKP72UgFQer+wxod/xNdfOMAyplZNqLz6e6nliwymksZ4K0WKSRb3WGmd5J6Xi6X42yWA32YF3jbLPTEl/xvxX6/UuV9D1diivxeDQ8eyvgXjXgoVKmi1kMLLqSjwZAv9Ag551S4CdIkQ9SHAoX/tqHjyeFfYwa+p3yV38qq5qfl9X6nu4hn30O6hk2SBG/JstfqZ/Kf7csLB9d9g0Y5cxWUI1RmagHnUKc6aaoANKwSp7SRWEJp6KwamDWjbIN5OVKk/3vbBe5RsghCcwKVI7H4drSKc7TLXj2SkHVDc+Wcn1AL1tt0cXChQtvUOMeHbtpKw8LPfLZ50iux0uBL5ay3iZL/G2lewLuUeTZp8DHGVn8d6mNKr2maAZx/M164qFgOdPcaPZBhaXGP8t066GLiM+BDJ4G4mSzV+BsbYXpbHemVpgK2iQFwCHnwAR2ib5H+XB4A2tPGcEzX3ej4jg2kc14fIW5XTRbnZlbxSozXcIRNYTQxONasPJn1CCFOlJlJa0sA/w1Ke13NYjgCHArw2bQy9SU8GCll0+YniygHuB5Gr2HH41Z1IvFuIK2nVAIymn9R5Qsdv3BBxU2Ws2UfFCe7YsjeibZnyY8ST7ZC6Vsh+kaSxx4GrwIWYG5H/NOcWGjmEKUmHnOdUrzIVKMx+n6WCHH0PyF8nqVQvzdU4RvVtn4icFbIs3XsNcJ92bym1NQ2D6dZcDIXYOHn6tbPzHWvSNAPcEjJePaxL0U9JL4+XvioIHCJAsXJuqFFR/UKCsKan3OdcJP6f4tQp7BqnHI7JPjl5GUbs2lSL5sVM4AnofQ7yGK92vp6DLx1NIdDagrXisrGf5zlJBRurrDf5ZvNmkX+o4G1Fbr9cLTW+W6gvKVr9G9CZ8PzY3vG5KuV4rWzAc9wygIwFef0q5OTjXmaJkA5GEtZ1KqmFYAz0Poy1fiKVlkBXulnICsxzM1Oq98aZGVuU3xzF3m/DoBUEK1GSdQ23ak7a9fuXIlRmjCITS+9Sdp/GjOKz6oU76zrFIJ/t3dT8g6UTbPASEvwhFyRIlsOuTt0rVuR4LR8IwWGDC+S1al0pNo0HDDOgEMnQRscd6+ffulvi1V/xsOPvjgtON0wqBmmaBjw1Ym6n2BRVcm6kX/W4GHkIFM+BLhLZwg5Z3TiXknuln5Ks9YHq49TwxHA33qyj+nBqpMvWgwcTkjexg6CeRTz5KlLCqo/PD8k7GJAO9zhoZVkBq2OFFvCh4GSUYZ2GYcJqIND1bnC4ODgw9wClNTPEFRORVmHugWPLV0jV86GuiTkdys3uQK32AaTHwj7hroKEBBVdfLdFmpr1yaX8jfZoosH9Q7EZAb0ihagpYT9UKrVIzgP6ln0tcSLM7VGu0+OR7y2lA5uXbWtdm238yjuJpFFuZ0Bf6ZtkEj8wPVje/U4OCbqlNtpY8U9IL9SUEVd9+8efOuk7tzsnoPfuMzcVBQzjBRr0JVtnyItoU+O06vZIXhX0VSSI524Q9sLxYu9HOhKKLNyyhngpo/ybXftx6Vs9kLVnIpWgLPSDFXr1mz5pNLlixhPtXWOaMU9DNxdqKjgHYXfl71rn0tQxaLFi26R1b0QvmjW8d7UXUAGtVZmdDQUfgcCBs+SfqGEv3NuDgkQKN0FGYFgY6K14inZl2hnXKGZyyPUc7Mg6JZC9wO8MIxD7hs2bKvq36VTWwJp02btnt4ePjna9euZR62E4GNfMfNnDnzpunTp9fqn1AyYoHLk8b1JY2NTMMmsD4d1udZaii2a+SCoahRWZnnPF24omTxnMIUu/USj8LMAx3jEnie2lEzpXRtvo2AOqjr+gO5IxdNmTKl4neD8sF287191apV56obfHp0WzoSUDrqGHsRdoDWrKl6yl2SwRVS5iePm1/qG991iT1qFL4E8UeOXLConAnZwcknML6th+dGq5yj8Tnjfat83Kula/NuBBLyRjXMN6WcNZ9b1mK3Guvraownxol58uh06FM3vlTdPQr4DY3saz2K9IMFzVfqxWYhSW6X8YCa3yfojX/l4JMh37Jr3XxE3i5Wu79I6PfD16wgecQXIUFRgX233sRKJ/ADLcDzFEEjdc7Q/A/Vr2IpZCV2y0r8TA3AQVt7cmBCJwGLXA6Uov61lPRmehLFZRkhM728V2zYsGEFzOMBoRG99YrKQBzH2nxVBdnlFdTRvxHNJjj8Vn77N2SUKitaVJhE15QT2vOUlNOlG3hsHUy6Oa4EcbR+6lJ33ibznhoQXKuGOQEeePdniEr6Ar2w3/dKKjnt1r1/iC/xmELNp4t0tjr4F2qsp+qS7RyhQF5RXRy+6TdEv1EWiD9qLBMGZfGK5/IuKqfj6ZESVqxiKV2jwAGaDJZ6cfQXL17MD2or9ZHC3iQ/7Dmd7GvuKaCkksnzZEl/5uW1YMGCm6Sk/DE6y31voa15xNhtYkHYyoHPWSkY6ONE84ahqKyK+YbwVPl2fIVI0xJFn9N10UWf0yqnIClwfsb7nCbdGuBjbdu27ZwDDzyw4ncuX758t7r1V+/YsWNSrNOcTICV1Ev9RilpRWZDQ0Msnvmk/HQM0tiAb0jf+E5hhmRJOduShQR560JBOUtxONispeTZdyudF8q6PlrXTO4vwG/duXOnnS8dlc8Jj31GkOpg4xKwxeH4efPmVU720Iu0S8I/fzy6q04BRvl6ub8sWVW6er3ov1y9evWzdG3baUzAd5M0dM2ni90df15jqy9bgSsFLGFBWVktz5cZVs9/S9efEP61rp8uRGm3Dg4Orop721GSqbgZThn9y9OOda2Auqs5SvdsDQQrdVBXxer4x+q6+FwXRkAyepz0gYXjlfadMWPGP+nFZ+3umEDN58QC2cZHSeExlqmXCXpZQZbXYREbLSap0KU4Q2NhcQk4ZZiDx1iixx73v1U+Jws5eYTjHY+W5X2cnHQWn+AyrFXXsiIezIBQ2NYxzJbp+Jc6kG3RfJqrWFEJeKu6cv7CnMvDJLyswwfWr1/PoQ9daAJ6uedr9H6WDIkfMP1AL/+D4BkLoNGadYleOa0CsxyP0frfSNFwmivzZCVlLMVZ2iCVZrKcr1gs12O/9i1CFg0zpYVvy2ERVysN5mn5WQP/82T36OUg1xH/W/QVCitd9rJly56nF61SZr39bHzj14oVZe5CEXCRnjFnzpzKXnpZ1Xvlo+7U9V73QMl6Jqh1mwLu01gpzvt9PXS/amjWRZ4kZDoqrajPhRadrxvFQZfimtHtoHmmsmlOPhSnklT4pKAXsFeI+11oDfLTN0tBL1QPl+UIqhc6V6HVrb2GoJx+VO0UuDYo4X7kIQ5FXqjC4kuy0gnrxeEGlb3gKIJXtBLdiqcUV+IxaBV0UN04/3zP9/WS3Svr+ZFOXKE0XoAfr5H7WdOnT6/0ROr6rx2zhSTe5yRs0q035YnKShxfoA6VsuI3vlXItuLbhLkSCVspWYluxdMgLiuo/KQV8kErOxc1Ir2T6RNd5zp1oTlIQQf0Ur9ZY4B8xgHIQWRj9aKnbj41SnHxxR4oZ+ZRHM+wHI8txSs0sDlcCsvA6nwhJ9j9UkpUW5TRCkvKWYor0FlBpYgP3rRpEz8cyzwq3+0bNmxgj1EX2oee7du3v1wD1YoswQULFuz9MeK+yxZYZQWadesBSsoZn6kosEkH0z8/Ttzz1zVG6JxEd4GQwxsYWbOCigMcUGD8WboQpqdGM61VU1A590cqLqwvSNjX13erFJct013YA5CCso++suINXLx4sf2t+OjAWkFBS58T/vhMiqspJ3SDdBvycM1iZ10ycc8c5POE7G9/j0L+aMee9C+K5qsUxy8yKr9GNNNSNwhRakb4zK1ythAjfkJ8YObq+Eybz92UIvK3N38Iw6/UZfFJtwt7AJLliYODg7WDHpYsWcLvFscEfDfvLV5pLjTwlBRPYeaJdOYhHWddm32aBPnUOFdvKIfUMrrmQLId6o4Pi1+iUOYnCJ8kmtNIjol4rNyJ40BdP1l4lDA77erenyAFrVhQpXmrFJSvIF3YA5APurNkQZcuXTom500lpQIDeOUkhCfyBWjE4xUtPpN5nHL6WQAgpZsV2PAEMHnDw3Mpn5ROeCaOIlNczhPQW//w1atXM79qFfQ3Gji9lPtdaBuCD6pBUs0HXbhwIWuE9xpoQNt4tbnQkoJYWhCescopGA2PV86Qd3zGK3DT8jmeVKcMOPCylpW3fmBg4B5ZA87B7JhjbMYb+PQtmZ0mBa1sKlSXf1/8krdXkKxnhkjnxqexnYKkZ0o8Abj2PNCWJ7kMuqzw2HlYgS9f7RkBaTYtH7RLJyx20Ijdz4PuZv/7upE/AHehDdBLvkiy/IQ9ThJcs2bNDUxBwTPWYBt/LKGddCc074MPPpiDdbNQ5cPi2H9X3fwR3O9Ca9iyZcuhM2bMYMCa5QguX76cr3SVXqsLewhy4l+ioCLY+FPVV4/X299JgI+vwebz5s6dWxlsyvfcpZf8FboeL4OzfwDfkZctW/YTXVaUdN68ed+UgnIGUVfATUAv8ir58l/TZUV+ixYt+hEfQnTdhb0BOfez5D+dKQe/4j/Jub9HPtTb8FPh60IRWCT00tmzZ1c+cQ4NDe3WS3+OLOvEnjzSodCnN/0YdVG1nwZIaW+RknJIbteKFkA9zMa1a9fya8uK3OQi/VKWlfUXXf9zLIBfF6qrP2fatGm1vfCyApewqFnXXTDAPi71Ph/HWorM8tJIftf69ev/Rfcnxa+8OwXY8/2o4eHhq3VdUVAWM0t5/1N4BGteFbe/Q69ksU6W82wpY+13OhrN36gXmq923V5nLIHRqCzCK+VPVb7Ng+rqd0k5L1e39Qwp8v68TrRXyvdQyeKT06dPr/idoLr2XZLRO7pbtMcJ+I+RGuAsjeArC29BfsEiC/sTdfmnq/vaKkXdn6agepCN6v5c1fsyKWdteST/99S9C8bzZJEuCOQ/rVVDfEWDpuKSPnVhd8lnvQpF1QDqIVFR7ZesPcHJCql84Vc5Urpj1bucP3PmzFu8z5lwwYIFV+nl5uPGZK5XR0APSrpt27aPSUlrfyO2uGzZsl1S0uuXL19+3qJFi94sy/tSPfOCdlCuxImrVq36QyyT0moJTHdJAdboheCX3w8fL1Qej9TLd5Tq9BLhGerOb1Ldaj1KQvUs96prv1AyO1x0/ozdhfGFHnXjG2Q13i1Fqq3QGSuUQt8un+105mJFNwR8us2bNz9t6dKlF3L0o/CW8cLFixf/Svnc5bcRl1AWlf1bn5dis/27ss6hCxMA6t4WSPivVLdem+sbK5Q1vUkWi7WsDUFKvF3KU/w36L5CKedtspofVg/Av+273fq+Av4Tpa7usJUrV56lBrm1z/2mem+xv7//11LQZnugONjsjzUIYZdAMY2JQtwdppbUu1wmeTxD3T+nvnRhMgDTUPL/HqTG+WBvb+/Vaqhb5H/dzehet0eFGnDgw13T6ps1UzsahHyblVYiJxQ1Yt89derUuwYGBm5U3S+SDE6UNe+euDJZgUXPshwb5Xs9R3iaGuxTUrILh4eHv63BwnXC69tBdZHXrVu37iIp55/5hdQelN+wuvmTFi5ceJ184oYDlrFApthkrX+rMt4o1+ZbquOnhW+Rlf+TrsX8vwU9DF6kZEvU9W/avn37Q9SQRwgf2SYeIeXcHKepWoJYZ/Oc8nqmSI7AHBfctm3bM5XPscrv8QofJFzaXTDThS50oQtd6EIXutCFLnShC+MCBxzwv2izl2FKUNHmAAAAAElFTkSuQmCC;fontSize=16;" parent="1" vertex="1">
          <mxGeometry x="699.4300000000001" y="160" width="128" height="105.9" as="geometry" />
        </mxCell>
        <mxCell id="EnO2U9nMXVYCDqS1bMv6-72" value="&lt;font style=&quot;font-size: 24px;&quot;&gt;3-Tiered AND 3-Layered Architecture&lt;/font&gt;" style="rounded=1;whiteSpace=wrap;html=1;" parent="1" vertex="1">
          <mxGeometry x="190" y="20" width="470" height="60" as="geometry" />
        </mxCell>
        <mxCell id="EnO2U9nMXVYCDqS1bMv6-88" value="Internal Database&#xa;(Embedded System)" style="shape=image;verticalLabelPosition=bottom;labelBackgroundColor=default;verticalAlign=top;aspect=fixed;imageAspect=0;image=data:image/png,iVBORw0KGgoAAAANSUhEUgAAAJEAAACLCAYAAABhlXveAAAAAXNSR0IArs4c6QAAAARnQU1BAACxjwv8YQUAAAAJcEhZcwAAFiUAABYlAUlSJPAAAC0WSURBVHhe7Z0J9G9JUd/5v2XevJmBx2wMQwYGhgkQCAM4LAZhJiKJo4lEFAKCRgmEsESRAcQAOgZNxLiRCApoUBQSQyQoYRFjMIiRoAY0srgQMSiQKIqiKKg4fj/9qvrUra57f/f9GfP75ZxfnVOnb/Wt7q6urtt7973ZHvawhz3sYQ972MMe/p/Bgbl72MOh4ODaa689Zs972MMZw8ENN9xw7OEPf/hRo/ewhzMDaqC9Ae3hU4GDvQHt4aaAfYd6D3vYw47Avlnbw6cEGBAjND3um7Y9HAqaAd144417A9rDocAnGfcGtIdPCfYGtIc97GF3YF8j7eHwoI71kcc//vHH9bg3pD0cCg4woP080R4OC82AqImM3jZQEzoi02EwxrGHmwC8MCJEem6IX9HRby7eNTw0m7cQ3kZ4J+G9hPcXPlj4ecK/L/wS4eOETxR+hfCpwmcIv0r4TEOe8bte+BThk4X/SPgPhI8Qfr7wbwsfKPw04V8T3k54gfCEEFkm8tnHtCYPEeCJYYAqzKZ4q3i2C0wemoF0YU1JnQ48XXhr1iZhUjy+8j/hMb8WD/EaDZ4jvPLo0aN/Ry6F/53CVxwcHLxG+CY9/4zwF4S/Ivp/y/2Q8MPC3xN+TH4fl/snwk8K/1z0jXLBPze/PxV+QvhHwt8X/o54/o/c9wt/VfiLoknjJ4WvE/574UuOHDlyg1wM9u7CW1599dXepLsuPA8T3ZifQ9ZfzHeDrBtco2f1F9ztQiW4+TVwAwoz1Y3HDM0hZ24wMgHP1C5nCy8SXiWD+btyqSG+T/hWFeKvyf0t4R8KMYg/k18zCsMbMQ6QZ8eKXsMTaUNPhzRJG8PD6H5H+H7R7xC+Ws/PEVKD3fvss8++rVw+gJb/UNAObTNf0F9lZP4BLurP/CblgHua3BFAqGgcPL/yla/sgqKI66677kRlQNHIUIjxgDQJtz527Ni95X6x8LuEP6fCoBag9mjGUWEu6ExXftCbwq3hWYF/qjDUhO8W/lvhE5THzzhx4sTt9exGVRZ81nHFY34OTnceYaR3BrzQXbDBOESfBfJ82mv4gpoC7nrXu8LDF0pf4ylS9g/I/WUhtcuhC3FTmDXxruGp/CqehNRcvyH3h4XPFn7+WWeddZfLL7+cmrcBugGNBAYdC4daPrcEwhzP9gGho+AILHpiHNRAcY6o+oLMeP6K8GnCN0qpvyKXPgvNw01agGt4Mh423k3hEg816x+K/nW59K/+pfDOV155JTVyL3j0V32AchdrKWsZopFtH4KgDi6oC+77q5dqoHOoyqW4b9Tz/xB+VDg0U5XyM72Jp/CjE/1JUM9/5ii6PwcaHu9jxTgapnhXybOC54+Fvyq/F8v9HCGjvtw8nUkfaGJkcnoc24QuBEIlA2qCJ2GptTAg/M4T3kMK+g7h7+q5F84GxZYYeCjoT4img/0R4f8V0lS8V37vkvt24X8X/qRoarxX6Zkm898IXyz6hXL/teELRb9IyLvvF/4H4etF/1e5bxX+nPAXhdSaPuojL38gHvpsrRYFRXdZna78Mm1+rYYS/siJE0f/plyMqek16NjhaC4HYaSBwRB3AXL7XNVSrQYyvyuFXy0F/ayQr3yiuExXfoFGwYyCaAJ+SsjwmsL/Z3K/UvhlwodqNPcguczl3FF46S1ucYsLLr74YgyZfgdN7XGG4HLd6FsBWa2JzLw7eeGFF95c7inhrYR3OH78+L1Uk16jZ0aLjxZ+uYb2Xyv324UYJ1MMGBk17KJRRbryE03N+b/0TDN3X/pM8SPlGXlTXzT3gXbPgBA4NU9D9eoGZf0eCvLVUga1xGLtU/nJxegISzX/o8J/oedHCa8V3u3kyZOXYSB6ZpRDeseSfGXVnvxas2x+DbyA9DgXT9ODdYZJm8nOS9RBZgLyAcIvED5T8r5KSI3I6KwPFnCXMPC0Wkk0faa/JySPMQ+L+cxltXXAgJLgw1Bf0ARHuaoNmC1+uxTAHMpESRmD0vh6/1g0TdJ/Ej5deJ1qgLudc845l+r5XGFLj7RNHoehk48slXxyJzxyJzzCSQFlnpx2oZuDSy+99JzzzjvvYj1TE9MsPUH5eoVcaiqaK/pfcx9PRvSCTp4kvPmmPFS6MXe7gFC56qwKiCZAVTwzt78shcQZ4YYFjYIYmTGP8iPCJ9ociithaD4LJZVfZpav4tkUjxA6xuNhnGf44kl3Ie0LhY9Qvl8ufIeemTRtHxq6KfQT6Q8fO3aESdfzhcCQT56zfIneKiwqyRR5TAZAf4RO6BoD+qgQw6E/w5rUxSnD+QsHPO2upFyIWbGCpsj8EaS4S54YD88pDC70JK0k35AHaOtv0dyzpvcD0sMH5Wb9ZBqdvk/P9P1OZvkEg3w57Z0AE6oSHD/6J3xhrf13LJSB8fyEnh8vvIOwrfxbPA1CE9HTgo48Aq/Ks9IiT6nYGI8VRI/H0w4FFJcpJjx67PLlPAicpxeixRl5jqtvx5zZQ4U/JPxt6ab3H0H0F3RIzf1mmni5ZyTfTgBCBcUCuR9CM/YxYVdAQqrtd6q5Y4W8GY/QDbMrFgXkOSh4jM8h8xy6D2Txdh6jO0+VdlX7ZR6jl3iifPjfSn3Jh8t9s5Bpg6a3YEBO8+7rhF1/MV70l+XbCagUYLQLeq4y99oiw/7MZNqrWRvLBZ3iyXTZfCaeVmAVDwo1euDhuYonhAE83+7nBT+J56aQT+g8lwu/TfiRrM+AdLRvU+Qh0wBxRno7kBQ7fOHqC91RGX6PnntGgwKogV7NGpFl0GFj/0Ew8JB2lIcwuYCyfPCkuDPPmg/F5YvyLPE0gDY/h6GgoUM+DxjZSX/fImRerNIptdFnrZhsrIxquxAs35XkSmMz2AeEVfX7Iappm+ADYhveAKNI8ca0HJynK8QU38MI5uTr8YR4u/JzmMyzQb4cz5J8vJukZWHABiFe+j0/L6x0yhwaE56z8kFneXYBhrbWaARnCwfbNiaZBZVhZl6ZIGzhstJQwJo+kJS7qeZw+TpAR56q4InXCrsB71M8q/pAK+Qraz85PW3kCDyXCd9UGBBIB/sfCoEhbeJJae8ENKFCM9IsPyi/GVGVYbl0tp8nZGY3F2KmKwVknlZThLSBgQd6DQ/uabJBbFYAL9QeD2EsnMPqtBf0lw2cNBnKM4800amhG9GqZtnc7UKlgCTofWQwLID2jNoXwzNDVt491WZxF5WdCrHxhLSbLDlMUmSUz/0aT47HeBzKeORO0krxDjxVvClMM5icT9FeI7LOx5CfLb7DcN+eMaLH5bQFc/L1tHcBXCiwARnXqOt+emxGFIwnZ573zxfeM+xBXlL+oIAcRsC76FfKJ6fHgyHBY/5Aq9liWs6jx0o+l2eQL6TlMCdfj5cwobZjtv7Z0heDlMl6Y9LpJ48cOcJBgjXydZ6dgJBZB54RtPeJZgzIkVHFu6UATlTQ5rMJq/U5LG6HoZ3PC6WCuT5a5wkF1BVrdKV8h5usD5R5BLyP+jt62WWXnZTLcgiLrD8tfdH8zxqQ0bFP1PK5Sb5dgPz1RsERtOwTVWg8DPvfJvxa1WLXnjp1yteDcrzAbNq5iY08gjIe3NPk6YK3MO7XwoR4WhgL57BRPkHmGYwM41He76NHPqjXCyfDeccZnXYjyvEWutkNyIIKspLurczOdaxnaSHGxMr2vxIyW3t39ZsuimkVaeeaIha0+2VFlgWd51lSGGAwGNLeZGRZPi9YPbMTgfNxn3P06NHnSh+sMzIR22qeFfpyxIgeK9wkHxCftwpdsUEhzQ+lW5+ojyQqZWxQEPMeH5Dff5PLlgn2X9/dqvpYQKQJPSlEuZ3HFDiRz3h6mJwH3MQTaymH0njlgg2qtGzf9BVCCv17lMefEHLsifNtlS7W6Kv1iWIeirSjLnYKXKiuSFPsfYW9Y40b8QyUxBdJ7cRBww8K2ZD1TcKHCe/LzLhc+g9sBjtuaceCnjMOp8uaLfOgfKulHOb2lLsfcpxz85vfHNk4wXIPIQcsv0ZIU8VuTHY8coRobsQ161fwYETsAHBo5ZBq0ZzPnYClAlqabKSWoUNdVtmVH3Twa4YlmpruncI3Cr9LSrxeTQK7CNlGcpXw9ueee+4lcpmPYtfhCWoy22WJnK2ZMcPzPDRjCTVOKwzjIQzuWVYjEifD7wvPPvvsy48fP85p178hxFjYdPZ8IZvp2NvN2tbHRW80mIyBh5rqT3IYaGHsWOcOfCuXVIvuBJRzKMHSlzrWbGp/mfCnhX9UKSXTZ8DDthPiZxclx5q/V8ji5dfJyL5K+OV6phnhQOQjzjrrrC+U+xDh5wqvkxHSN/lsPYOcsniIaHjon7Gs8FjF8WQhzSu1yjcLv1tpccKVQwAcr2Y35pr9U6VfQZMnNum9VMhHM+ExdCMaDCaVC+BltnVAyCYMVaZV7V1wG2UMk432jEIeyEZ3Fcaz9PxeYVkrZbrCDWG81qLm+wMhJzLYo/Mh4W/qmUKnafk10SzHdBSNH+84zUFNQnNK7UccNEV0gClgCnAu/ZJeyYPs6JCN/w/UAOOucvkwqnDI8DirgWKNwzNl0z/29PHvBLhQE8uPk41gUtK79P7eFo4mgdHJk8Tzo3L7MWlTZAy3ka6wCrMm3k08lV/Fk3FDGJorLo2glqamYyH7PDsAyikTmscqXOtYxz5QVQMZvdsGJOAZpCaam2x8t2qhq/XcgKrX4qHvQof8G8TzZiE1QOt8CkvlV36RrnBTmDXxruGp/Aoe+odMJtIE/6zwO9V8XieXyyuaLkP/hiWiZkQxHp6FPsQHqj5QNdG5dch9ICB2tJc61hybYT8xMHwdDIFtcz43aNDcfa/CcK7st4W92QN5dsx05VfxZDxsvJvCBR7ywAkP+m1c6vBcIX20u3MqRG7XRTKGZkQz8faOdSgXj6eVSzKq7YMJ2YVCQPNzaJONcnNmeXYjGtpn4gmZPbjkkkvOteNB9Ae4qOppiuMH5dLB5OoWOrGTPglo6Uzoyi/Tm3gq3BCGZplRGSdY6Pu9VniDahs+kHsKuYzrvOr+olzLM9JUPISv0mo1kemux0PzluLZySZtaHsRXH0emqW5yUaM6OpqniV9LcO+aTsgeEshm9mp7Rg5cTrkW4X/UcjJWr+viEupGP3Rz0DJ1AC9JsN1hK78Mh38iIez/HSsWZ6g2eVQIh11jv7QAeZY9jPVV2FUx7QD+8jP58OQ2/WV9ScYChpaH9Ot9TjpEwV54mSjQx5BDx//roDXHC5oq5FsdNb7RCGz4LvtfTcOMqsvjY7jXQwvtfmczkO8WUlGdx4hs8H0J6i5GLpfr7QxMGa9OY70Y6I5T0/zyJCcO4+4hIodg9yo9j+F3H6Gix9zPCxF/Iz8mD0n7H8Wvk70K4XfoWeu5uMKvvtYrYmhI8twNh5504eS9dd4ZjrIkz4RyLMhRuR9IqAZUIin0t/2wTLfFRKqTgRfmidqNZEQOLBtsjRvLxCyBMCsNGfZP1N4hHjTFEJUSFMSPEZXPAD+fgqVJoTN73eyCUJGQKSPzNSgjCx5xu8e4mHikiPR1CS3IY7zzz+fM/nkdVPak0KU2/UVeBzK5l2O85R9IsPeJyJMTNvLJRnv9gGBklBZSUsLsL1jbWHoRFNT9IVHIaOW/yK8Y1a2pduVXRViViRu4hmUjZvoXIjAkJbRnecwaRd5qOK5lfQ36RMFbH0i4Ub5SEtOz+PWwARpwHPu31hzNTfZ2IwofB2sgzHxl6voj6mKZq6kK1YwFJB9vZ2H98bjMHzhFU+Kd9iPLSh55ESeYSa/ks/8GgQD6vEGA2oAz0UXXXRpNqKgL4zocbkcLI4l/e0ENKGiUaEA61gvTjYGJXExwe8nHsLQcaWGchgMSJiVlJuRoXOZC0gwxAttBu7Q1tRCPlvaiSenPcTDs9HOM+gP2uJpAD9pW59x7WRjSzvGI8j53AnIX7h/UShpaZ6IZY8+2ajMP1IOk23+3hVE88YciscbFZC/8EppHq6SrwFK38QDvYGn0Rt4BuMg7crA5fR4knyr5okIk/qQ8cPpae0CDEoKggJlx9ro3icSHLF7fN4gRBHOAzJUvmehgKEQ4Vkw6AYr4omF6DCkZXTnmYvX4mp05gnGcSby9dFZgW5EzYAsXIMqXnO3C0mo4SsTbJpspCbyLxH8q0IugSIMczwMp6+pJuGklMlIg/cWj8PwhRfyDf24tTxyJgWfjdfoyjgcyhoo85BPjM1on2xcWoB9LHFE3QgIH/PQ4sU9TW4XJgpIgnufaDLZGDLMyviDMZCgpAOuwLMhNxu4WEfzQu08iQYyjxfqxMiMx6H84nMe8IvyHTIepzsP8kWeuXhz2rYBj/mtSqflZKPRk3iiYe4EmJAT5QvxW1qAZYaX7Q3MtVRteFVg+Qtfw9MMXE7nIS0LM1Gs3EmYDTxD84Sb+yG8Nx6HnPYgn2BIy+JlApMjQSz1THRqxtRqImGDLF+h492AIKhDVNLSZCNILcX/L9om/BhPUGxXAO/NH1jVxwhhvNAGnpCWw1CIRneeubSX5MNN8Q7x4FY8dgEWP7XhXyLVR4nbO9Yr5NsNQCgT1CG382tOe7BvmsVUOtmsJxGWjMZ4htqFdM3PIaddyiclbuKhWZ7wCIZCTWm1eGMB8RzjpRBzvJlH0HjgdZoVfQ062GvFjbGsyy3tluwda4t3UT45MY/bgZBZYPii6BMpg3OTjZ0Wknl+vYCiHmBfXY9HGONtCkhK+MvqAw3xwF/FIzfG42FmeaDNzyGnra7h8bupj/PVeuYPRv2muUqH9oweJ6c9cFO8QM7DTgDCxEJ1pfXJxpzxyk80imLRkzuouefxNrYA68pv8VrcDkt9oCYPCkxKGwo1G0cIcyY8Ub6eVu6HBPkahHhADmzeT8bDZZ7cgc082Vr90bHmtMdEPkuvQZBvp8AV4EprgsoBlyYbl2h2+f2S/PhhCj+tu7Mw3uHYC8joSkmZp8uXC1GQ46H6n/BAxyasKKAWJqZVFWLFYx8KP9v7UiEXfrJzgC0svoY44Iz+ep+IeCvjjWnvCmzqh2zqWM9iUAp7rYnjdfrK/omeP13I6vsFeU8OSsp9FVNkly8o0mHgEUB35QsG4yWdbByWtkPJY8eMGJGyF4pDCl+ivL1cz0x58PFwl/Ws8WzA3idSWhvlM3e7kBULHQUXLF0tM/GLdIXGw6o+8b1NNFtKWZhtBxg582VbM9hSggze8Z7Il2RuxsFXa3RV3Q8GZHTM5xCvbW0hfYzm1urf3Ovo6cvgOWbEv0L4twib13pfB6x0U/nN0BhRu1om5kkwl4fIs3Uoq211rJeuluEID3NFk6+uUlDlF2h2LTL7TdPH2X2av8cIucuHW+uZtLzCNoqxG5INa21lPirSmx49TvKQlO08jmcxCLDDkewz+uvC+5ux8J9YdltyUpfRJxvw+68oNuSp9DOaw4vUzgOPnttkYy6HmTzEj2D7EBTrgMDQS5ONvy7kvxwYgPtlntIv08GPEyH84Yf5J06J/JKQ318xw/vjQtac+FsQfzbi11jsRuTe7EfZ4UROrf4t4WeKfpDQDy9yvcsjKCC51CR0/DnZ+lIhxvtjwrcI2ZbLwjJNE/mmX8O23MUPpcLMYzRxshjNH44mPDwLqYn6ZGP4MHbfgEwwhyj4Usca48HI2GH4VNFsOaXWoslypeQwA72Jx/woREf6HBgbzQhfNKMfakT6I5y+ADFEDjk6zVwW7+ElDLUBNSmyUnAtbtIRxnQ3yreBh7jZ3M/W3H8uZDmIvlS5ii/X+0SxBnL4/8aActW5Zmejj05objj9QF+HK+XY9N4MCqzimIl30e+wPBk3hanoTTzmhyFgsNSkb1Dt94QTJ05wewg6AoadjSEer4mGJsz6h92A0vutQhcit71UpdUCrD8L2yq+hfHMHXCDhjUjNDU0Pe9UuH7dCpjiKTHzVGEqnk3h1vJEusIiDDUkzSDn+WkuH8pgwfQDtCmE6rSHPwvjAmw3oKTjVlZyPN7dgKJT6vTsZKPodtojjCLiPAvx9FGNXC5SYERDDUVHutdQYI67wiL9gd7EU/lVPBlnwtAE0jRy/9IPq/CZJERfXEETz6A1CAXfdzYW8VIT0W+bNSDoNGrdCXBBu1BB8KU+0WRnYzCgBm6YZmTNqPhpigyPs1v/WMgRIPoG/D6THZGtEyucK7RF3BQGek28BQ8GT7+KGpmP4McPDtqv2Rm5UePe/oILLmDLS5/DCfpziLX87M5Gub1PJChn8kM8OwOlAZkfsDTZ6H0iIM+zRANqkI1McIzFSRteMwGJYb1AaTFa4m9FDKnfI5pRIEbG4mW7xUM0HWsUTm1QGkPGxEMHmjioSfyWEfLJvA9rgOzG/CnRnEv7Hj0/Vcgv2q+wX4Z6Xod8Qqd85oJvNVGSx9GNqMVrtVeDIt6e5rYBIZswKCJPs9NcyRkmG+25GVGRuVMKh1HcX8gBRDfU+GWSZlSs84As3t7OJvc4s8bw/IvVXDxRyBwS/2dleP/tkuUlQs628d9YjI9C51YShuwgvwd9g5ADj/xEmJllrsbjJ8PM//BXn2coXu474pJyLtf6LPJtK++TH/7KBRtYAfdmBf3hFwvenns+4ZER0ifqHWvJ0nUrxIiGe6yreJLOdwKaUFEwBJcyl66WoU/kV8uQOTJ6F/FQUDR1zPG8XjzX2uyvw2BUQUkOkQc8ZssNXJQAnnvq1KlbcpmonvmyGRne1kZBTBo2hDY/+ilMRVzCaQubGadGOYfa0OL2pmNpR0E2eudpdDagGMYL3mrexY51jif1gQb97QRkBQhcAUuTjc2I9OxwJ/lxj2G7QgYUTbPBZCHzI0BbE8I9TdbVtNGdx5QYeQbFLhS8wxBvLmhc5KPAja7i2bhfSTDEG2r5vlG/0Ck10ezORtwi7a1DU2xWUhB802Sj94kO9AVx4UHnRUGmJPod3yAsvygUZTSw5lzYoNgqnk080Mbj0OSLaQce9xsMiDhzPClMTntVxzqk7eAfSk97J8CE9My1zMqNClh1tYyF48+LjLD8vSO10StSTeFhqkKdKF/uJEzkCX2DKp4G8GTlW4EuxTPEG4ylh8l9yIpHfpPVeDvtsTjZSBwxHnMndHq/VZhVAK6aqz5PBJLZkOE82chvPpkzyUbEaIrJt0lacgjnMFeInaeSDzoUUOvYbuCZjUdu54E2P4dBPhmIx9Mgx4sBwRPTxu+mmmyMae8EVIq1r3cy2ZgynK+Wua3ec02Lr+yDrE9xOwid2wakkxQw7Aey950H+VJtskaxZQ0UebymwDWvSr6hCctpC3iHX5ePMKRndEx7sU8kIxruscY9TZby7QQMBhSU1PtERYYnk42E0bCcrRTc9cNi7FvEw0iNyUXibvFGxQpa2rEQBUMhGj2Rr4pH7iwPtPE08EINaVc1We4nVcZ6pvJhRK05izrlWdj7RILyw0lpbR8KoZqgcl0BSwuwLDBydZ5X2SDx3JL/wppBMZxt/ineWBhzaVdKG+KpeBT35OsVwN95MIoUT6sNza9Blo8wa/pACzwOd5D+OBmc9Qm6ERFfjxfX4u3xmGH7+60Cme0KSIptk43K4NxkI9sqXsCcC4rSs4PH0zOY4xUMBmRfXefhfeZJ8cSaw2HIQ8Uz03xOwlS1gNwq3sbj+ou6yDyCo2quvkIum9uyPkGM6HFVEyanxyvI8e4EDIWIAmREm34Q8wnhi/XMZF/LuMINCrAMOxxqngX5ZgqoAYVo90T3eDOPoMlnX3GDNfIVPPlDafGSntE5bdwLZUDsu2LpJuow6rR1rDfIN/STdgEQBiErBSxNNrofNRLbH77QrsHzeIYvU9DiXVJSSLsXUIjH/TxMxdMAOvEMaRdpHboPFMMIIg/beR8kXb1ELtcvT3SY6DbEFwJVvoc8bB0QxjLbCz4prVyAzbSQlW5ue+Wm1QcIb5HinTUOuVXajaeQrzKOsh8iB78GVT4JY3wNqrQTz6x8OR6rKVie4fflN0hfnMWb/YVVwN4nsnR6HnLawd0umFBdSdBJ0KXJxomfPTM7zd3UfHXscmyXPQg2GVCTJVbTKwy8NLKKJ1f/VZjEsxRvl68yXrsInQ+J08D8tpNtJBNdLeiv1UQ5bYHLk+XredomTBRrgjlsmmzsfpE2P2ommjkO8V1/8uRJ36zFCj1pZCUNRkahUihGD8YhGHgEJQ8FbjRQ8uCeJmtdGN3lU7p+FyRGw+a7q9Sf4YQIF51iOMP5sxX6i5ONDqV8Kd87AWUhyl2abBzoyk80E47s02FrxrdJSV9mxsmP6EjTf2Q3UZKcqKShCUt0LHj3a3mKBlTxYAyZZ8Ywexh2ENgUBidMvl7INhRu++DDmdND6ZdojIg+UU8rfQQt3ztnQAgUlYTARiPo0qa0CVYKqvzk8pWysv/9UthzhFy3wvmyu5x77s1uddVVV3EqFgMGmiwL8jUwpeLnkHla02N+Dap85z4Q/yexwQJ7i/iR3hdI3mcoHzTXHDHiT0JcbFrlc5au0Hi8TzTIhwsd87ATgKCpqvQayBW5NNnoSxuTd44zYSKN8lkioabjp8Pcdk9txSw3dx59EVMMttbkivN+iMsble3Qmhrc02QD3k+MLuebMNQwembbCsbyTLnfLWR7y1slG7ssuWKZnZBtj7joSZ4qP+jCb2jm7Dl3rCcGJHeSBzkxj9uBrPxkQJsmG/kpHYXN7kHmkvrm+8Azi5nHaJSLIomLQ4N01NkZwM/u+PUCuxS/T8/fIvwaFfT1QnYPoHhqtEeKfuTRo0c5GMDx7IeL/iIhfRVO1bIF9ytFP0cuOxupUWiK+LUDJzWYBMSw2esdt+BOzqOB0JVfps2PeIib4+PspmQ9MfM43zDZKKCcJmWVjGwnYDAghKw61v4s5B7r+7D5Xs/8oontp78hHiYgI18ON9AVroiDwm3GJqQvwikSznv1Q4yicaExDHiQjTC9JiBe0Gn3W6IrrMIISYur9ahhn2I37DIx2xdgU7i2AJv7aOljH/qQW4eqj2E0uLQpjQVY3gMHGJPVAOxffpvwo+IZqu2ktJJewxPpCg8bb/RbE6byE43BslWGf+SyKn8n+wU6Ol61KU3QysWarQahrHarBrL+QxcUoYPlL3Ws+85GwlhNBnLJ051lUPwdiP4NJylaczCjuEW/myJMhWvSWRNv8OODYe/Um1Sb0LQyemP/d/5F+8Xi6fuJEroRlX2gXTSgVuPEqhNBQSMB+kRDTWSKyzsbPR5vGvFjLYvLnx6mMJzQeI2QcPwEmP7OUFNluvKLdOVX8WzCTXFABz/6Sx8RTb+QX149X/ilzBXZkSLXYdNF1OmanY3CiQEJBh3vkkFNDMgEcxgWYMGQ4bazUeEm8xjCYZ7FjAqDYrKRW9MeJaRj+yohP9vlUCBny7j8oBlXSKdj9oOu/DK9iSejvcfA6W8xGkMHLOtwMQMG8ELVNtxGwn4qat6z0F0q2DwCbB+tjTaXjgytusc66Xj7YEJOLF+I35rTHi1zRd+q0ZUC5MIDns/Xa2f32ej/FMXLD4gZNbGoi4HxS3KaRPoZKHkixxwW8pZ+cjEW1rV+TzQDA+awGNbzL/5vkrHwH35Gdlxbg9HcOvRvGliBTvIpjE2Y5xss+0Sg/LwmapD7QIWOdwOKGsibIwRf6lj3PpEgju6ozm/LZQZc7mB+wEQhAGmHcLhnX3HFFacsHOfEuH3+njJW1qI+V8go8OlK+5vlYmiMCN8oxNj4uyIycYKV/+HT1DD/xADg50VzJxB3HPF7UO4FYPb82XIxkIcojWtUS1ytERQ1JUs0F7FXyponalFkHEaxIQ8OMU8NyHfQcTMiYdYnrveJYrzdMHfWgEAjgSx42bE2uhuRheHr5MQqw1n6C8zvcBSaDfy5c5kVC7S0ozw8Gw/ygEfZM2R+4DFqBasZKGjwhOLh5nqucnE/p5EBPG7X4XjcbfkjypPSBkoDSjxLeXDY9NM8jCjHO7QWMY2tQhJksHxheY91MCKqd2+fmQN5szD3Z97DfFJOKxeQ3k+Uz/uk/CZf7H8Fnkk8uKfJshCHtKE3yZd5oDPPCiNrpz2yEQV9YUTDZCPxbJBv+0DBmJATpcllsrH3iZJx+GkPz9yj9P5DiYcw9GW4lq9BpXybPJsoX07nmetvyZ2EyR9BxRPTtnwv1X5AGY+cCY8w8uR1uBjv4tUyamL7Pda4lW6SfDsBsQ/UICit94mKDMfJRn6a92T5tcOLjhaGjmv782JQgEMroBllO3ghTuRLPB5mTSG2eDCgFQV0Jn2gSn8OMd7ZyUZh7xMJNn4EuwK5iWgKCMov+0SGsWN9RCMsbntl/am9D2HYU3x9UIBDK6CQVlNSpAWNJ8uX4llViMKo/KUayGFN8+Rpd54V8q3pWK8xoJ7frQJChQIaagVBW4DNRmS0G5Fn7jLhi4RxJx9rR7T/V1i8S2mVtUuUT5ibwuEjEGRjGJRPuintgQc68kAnnsF44c/xJPlwN0020pwRx0b5cE+TuwGD0nhWn2fj1TIhM4S9o5q1fyqXw4tcG/y848ePf1q+WiZ/vZZuVwpKt3idpzU95teAMLEQizBloa7hyfLZe9AB3hjP0HwGeXLanMVrRoQ+k07bzka5i/LlZngnwISMQrng3Lf4QWHOLPT7bZKwhUNpljk2lfGP/CuYZ0lf66pmJCmtbCKM9nhWG1BOO8sHPSOf8ww1UE5bUKYtFx7uTmLvdaVTam62rTSYy4PcmNb2AaGi0gRtzkQugnOGnsuqJpkFlWHWj1hgZVKwbbKfUX4DjIx4l3gEjQdeo0sDgkfuhCfGKxiUT5jIw7MZg0NpQPZh9HgqA8rypbQjD8s+zxJ+vDAgXGbOOVUc5ctpx3xuHxA0Kk3QFBAKkUy/fibDIOtcL1GTda/UZHm8XQHEG9MKinWenHYLs4GnMsRciC2eGEZQ8shdlI9CjPIF/c3xRPmogdgMx/LKRJ8B2YvObHkpX9RffN42TDI7Y/ksNPZbXQuDYh6I5YRHCC8KSnMoh9JyOg9KtzDOU/aBomIJU8UbeXChLb0GczxyOw+0+TlslC/kocdLWvYDQWqXfyddsSc768+fqdmfz9V/OZ6UdszDToEL1ZUUaHYuvlGZLbeI2jNt+ftFv9z6SSxDdMXOFKKDG4MrrRWinEmYbOAVj/k1njkjy/HAA6/RQzyCHGaQTzAYkC2r8HMbtonw7ze2+87pD/wFDVQ+vfqQkcnoSn87AUMhCqKSeH6wMsx90wxBKwVEP5q4NwgfxmLmqVOn2CrhmR4MCCXNFKJDWYhRsYJc8AMPzxaPw9DHgCfpouSZkQ8/BhW3O3r0Zp99cNB2NbK1pe2ZWjAg3n+AyVoZHou9DqUBFWW1dWgKiYVYFZDdtsokGCvkTSkZk5KotWj7WV3nt+eP4pyWrYh7Wjnt9jVbAXUeFLlJvhSmxRPDCEqeGA904mlp50I0uvNcfvnlZ584cYLRKCd+uRGOWptpkcUPLiDn82+wfUZnIp+724UoFEo3eqK0wHOOvpbHSCHv1fPEkLKSEk1bj6LeIuR/Zvzi8r6meP979dDHSGn35ikotvU5Ig9u4hniwTV6sYBSDRTToqluv5s4cqTtUGDHJjXvbyrfwz9MFnSDDukjfb1dSzwrn4DnKg9O7wSUBmSK7IJbJ5F9PWzEb4f2FpRU+dFBZ2ss0wYcm2GK4GnqR3F4sV2cLizTroxDTlekG5nTQCj4STy4p8mSx9P2tA6sJmYJiIlAzqIxkPDfSTCwKPVQ+QX6vfoon2R3cfe0UtpRFw5tugL3NLk7gBK74IJB+QhOhngWctsXZ79o3qhpKiWtUaTzUPWzXMJlEK+QcvmtJ5vF+APiNewW0JfPDRvUXu1SczuZ6pean+QiBZoWPbc9ROwxMpoOLrXHOfyDwwyCftrFnFCxy9LZiHZP4WfIoD9P6bPRntv7XyzZOCtG34bBQ5mHCjOP0eSTA5AvYzXAOt9dx9mABEM5wGPlsDuAkEmooRawjESeo3ZalKEr20jZAtKVDFaKnlFs5UdVzxf+u6IZ9b1Hz2xbpfZ6rWh+p8nuxPZ7BdGch+d3DfyDnsJ/ugwBl99lcZL1OeJ5rvB5ema0xO8cXiHk4ABLNPy3/l2i3yfkHyKcVTtMTVvSQoyHw4tsu6UJvFU2jlwO0ImnGdROGpCcLhQCJsGzAVX9kIvsy32pkGZqOJteYaX4TYVRxXtT8WQ8bLzJjwEGy0Y/JHyS8I7oboOOAZ43lgPuaXK70IXIxhH6GD1zvI+1FDwKd8yqZZqXu8ugni3FcSno7Ogk0xWuCXNYnk3hqngyboiXmvTDouk/cREEp15PoL+oY6BqwszPIbcMAHGAOwVDDYRxmLU3CEbmMFTBgYc+Bx1wNtS/Scp8n1z6PG1UlwvgMJjjgK78Mn1T8BTIWtgH5HKmnzssH81BhWgM6CYZQ9W/KUeJiSeXw07AYEDZOAQbeaCNx6HdGmZn9R8kfJYU/YNCzm6hcDarcXfRqoJdoiuswqyJdxOPkMur+CCYC2Ig8BrRDPP5pRad9HNDwbu+Sv3JnegvGVkLM6Nj59k+IGASashc5pmbT5KDnwO8keeABVobUTFUfpiaPX5Ex98X6S+8XQXxW8K2RueYCxC68ot05VfxZFwI0067Crlahn+pcdk7HfZHa4R1jWocFkzb4vOcbtboWM4Sj9NgA9KS4/zbgzWZy1Uw/STLgIMrycGHqp2H94nn2CWXXMJEI8NtJtqu4MyXhtfM+rLSzejrHSo05mE4uMgpVM65M5lHoTISpNPakGfHip7hIQ7i8itsSANj4bQrUxevEzKaY2H5fizhqFZl9yaj0pP0A7NuKv0JB11k/Vk8DkMfiDBmaA6tu4F7mtwNGOYoEDoVfKNjZgKPZ6ZUWo6n4pETlXTEOuvMAXGWP/6FkZHgk1WTPfPgoC0zcBybmfAXyRgYIXJ/EetWLxMNMhXAtl1qkG8VzW+zGPbzt8XHKN6HCZmq4PgThyXPzydcBYN8Kd9DQQfdOAwDFUFunpoBRSMr4hmMbBegfUFRAYKspKGjzftNmQsKmMSDe5pcFU+WD3/nwQ88itHZnib824jRDBGa+H0U6XG3eLN8uRAFGz8CZAvyAS3fIZ41tXyLN8WT0276S/JtHcrMmd+iAuR0HjKVeMgsz2ccb+TxeC2uBmvjkTPhEVJgztNqBQvX4DDy4ebaZU080Bt4nAYbBB33MOZuF5Lgs0qyQmnAe+NxWFO7DArI8a5RPjxVLSW34nEYmmoLAzqU/Tg5nWdt2sIJz5p8pjCl/mbS7mG2CRMhrJqMfpluSpCzyCOo6EWeNfEW1fjAIxjimQkXoYpnQq/RjWCgowEZ3CTyFWH2sIc97GEPe9jDzW72F4cuExRtTsVRAAAAAElFTkSuQmCC;fontSize=16;" parent="1" vertex="1">
          <mxGeometry x="707.86" y="370.23" width="111.15" height="106.55" as="geometry" />
        </mxCell>
        <mxCell id="EnO2U9nMXVYCDqS1bMv6-106" style="edgeStyle=orthogonalEdgeStyle;rounded=0;orthogonalLoop=1;jettySize=auto;html=1;exitX=1;exitY=0.25;exitDx=0;exitDy=0;entryX=0;entryY=0.5;entryDx=0;entryDy=0;endArrow=none;endFill=0;fontSize=16;" parent="1" source="EnO2U9nMXVYCDqS1bMv6-89" target="EnO2U9nMXVYCDqS1bMv6-60" edge="1">
          <mxGeometry relative="1" as="geometry" />
        </mxCell>
        <mxCell id="EnO2U9nMXVYCDqS1bMv6-107" style="edgeStyle=orthogonalEdgeStyle;rounded=0;orthogonalLoop=1;jettySize=auto;html=1;exitX=1;exitY=0.75;exitDx=0;exitDy=0;entryX=0;entryY=0.5;entryDx=0;entryDy=0;endArrow=none;endFill=0;fontSize=16;" parent="1" source="EnO2U9nMXVYCDqS1bMv6-89" target="EnO2U9nMXVYCDqS1bMv6-88" edge="1">
          <mxGeometry relative="1" as="geometry" />
        </mxCell>
        <mxCell id="EnO2U9nMXVYCDqS1bMv6-89" value="Web Server&#xa;(for Web)" style="shape=image;verticalLabelPosition=bottom;labelBackgroundColor=default;verticalAlign=top;aspect=fixed;imageAspect=0;image=data:image/png,iVBORw0KGgoAAAANSUhEUgAAAJQAAAC5CAYAAADODhY8AAAAAXNSR0IArs4c6QAAAARnQU1BAACxjwv8YQUAAAAJcEhZcwAAFiUAABYlAUlSJPAAADGzSURBVHhe7d0FtCzZVQbgBGYIQYIOEobBBgsJwUKCDu4eBpcgwT2EICGDuwRPcIcgQQe3ZAju7u7ubvuD+VcOtaq7q+p2V1X3q73WXu++7tJz/rP97L7LBLpr8d2Kn6L4Oh9stAgZe3Pw5P/7v4022mijjTbaaO0UG+opi59648X5qYrNxfXF5uZs6EmLGYD3KH6+4vsXv/zGi/PLFZuL5yl+umJzZK5WSx7u6YsfUPyw4q8vfkLxTxb/zMaL808Xm4sfLDY3H1QMYBb+KoH1DMVvUexhf6n4H4r/s/i/N14VmxNz86vFX1L85sU3FK9GDT5JMR39hsXfUfxPxQHSfxX/a/E/brwKNhfmJOD6i+Lbi4GKjbUKUDH0XrH4q4o9tAe2Akipbyn+ouJHbbwKNhcA9MvFf1dsrv6q+BuKmSoCoIsSRD9X8WcV/3GxByShfqT4/YoZgLyKjdZB5uJexebmjuJ/Liap/qD444ufs3hRerLiVy7+vuJ/K/73YgbguxR7OGGDs3JRL5zMxd2Ln7X4XYsZ6gBFo/xUMSnFhFmM6F3g+cViD/ZnxV9c/ILFiz7YRgeJ9vjcYvMWQ50dvKjae9riRxT/drEHA6wPLH6m4o2Gk8XHde9j33WlvP/3HYv7ju8jkkro4O+LAYp2eXDxMxYvRuJOH1v8e8UA9WPFHkoIYaNhxK55tuKXKH6ZDosTPX9xKzUAxoJ90eLu8S9V/ELFYkuHQOU671H8J8XA9B/F71VMHS5GAPVxxb9fDFA/WvwOxUMAZYUYmBuLxUFEboesLOUYJKNJ8PIGb2h5DI/0mYtzTzbgkHueimIkv3Mxx4YX1jKV9KHFL13MHiWBbirm5j+yuHv85xd/dPFrFBvffQRQ71b8R8UB1HsX37N4MRoLKJMHDGys1yxmfz2k+J2KX7vY57tWl8l/9uKXLX7L4vctfs/iNy22MoGkT9ybBKkGK/f1ixmj7kmSvmqx9NBSMRj3BaYfKv7z4r/pYS7+RxQbU5LKOzy2mGTpO/53iwHRwtlHZw8oE0ZCANJXFLO7xELo8L8tNqBW2CsUW13tBAPFcxc/vPjnigXknIf/uviHix9a7HlaaeUawPQ6xSaBe9ze0+B/djFAera5SUDYc/9KsXALT7llgUjP/BnFpLlnfKvi7y/2Dt3jsfH4uuJDwDh7QJlYq0tgjTfoJWIMehl/e7lvLH6zYpIMUYXUAlH+G8ViJ+15CaQC2kcVP28xACKrlHr47mIgzDntvdl/7snDmbuqkdRlC31AscDwN3VYGuuTi1+p2CKzWCws0vVLi7vHC1BaIA8sPrRAzhpQJMV9ik0cSQQEmIh2LmlhgrHIrdDD/YoRW4eKEt/yvftk5f7lnX/77F+KgQqAgBdRae7pmu7nfOcYRJLKeQbSqv7MYgbwnGRcqDHB4Zcs3mVkP01x1DkQUu99Rjxb64WLeWpZVLvorAFFtFs1kRImVyDtk4qBhYH5s8VSN67jO7YFo/W+xVYeKeQ7tsNjilU03FZM4v1psQEBzE8rBgwr1LUjDZ1LVXheaoYa+bXiRItF99+oeE4yqcbQ4nmT4rfusGS7RcEBARCA8l4Wp/HsHk8dvlYxKXbIUTlrQD1HMbHuwTFgUU9WGlHOMP6w4t8pdh0v+enFVu/rFgtHACE7g/oSnWfQur+J+PZiwCCtfC/iy4AHLucZLBIJSA0Y1fYCxZ9S/IfF7gmUADgneQ6AkWf78WJxvJZJXIsJWLwv6fTixcaOId89/heKv6v4fYpJtX101oAiMcSrqByqyYu/TbEVh9hLr1ZMMrkOVfhlxTw+g0l6ZdJ5MMCCrEKe4acWA4xB+YliBWXsLq6089wTWBWZ5Z4G3CrnReUY3tSc5P0+uJiDEinaZRL20cUxyh9UrM4sqr7LpLyk/CFgnDWg2AgfUuyhPTypIEqbQbq5+N2L1ei4DuBYtb6jhoDE5zybby4W8KNG2QpiLl9dnPKMxxWzJdyTgUpCuSc7iX3lHKud8e4ZIhXZWaL8cxIJLATyrcW/WWwcW+Yw8GBJTouORHuV4i8opq67x2OL7xOKu3PQpbMGlOOsLA9tgrm331NMSjEu374YEADGdQyWEAERT335znkknIF3T/Eo9gLgGXjXZmd9ZTG7iwSiRg2W83wPeOJWrslTkhyNbcZ19xxzErvoWYpJZ5MJ4C2/f7FFYMGRxkDgvRjgwNA9nlnxoOuvv/6+N954Yzf00qWzBpTB4LEomWA4AweJoCSVzePfqCyqh2fGVfbS1NvHFAsZOI+tBFQqHJSzAlMGxN8Cl8IFJot0c894dAx69hgwAxObzHkADogvVjw3cTxE/NlGFknLPD9gIskCDmNCyvLmuscb43vddNNNvNyLNsoR958EYEzGs+qyCQaAdyymDpGVRsVRX+yJvvMAjRplhBtokg1xBqhSINplcwDbDxTzkKjROSmpF9KSp5tCuLB0DMkDKEm9WGCkLA+5e/znFLMDBY+N2z46e0B5AZKDPfCdxb9VbDJJpEStv62YJ6aWql1h/mY7MLIZ9IAFlOwmUocxbzCtcvZRyD250EIM31tMglGr7snwJ/VIw7crBr65aYiRbZyof1KHDcVmFPBMiKXL7E+LzwLeR2cPKGSFialIhXx4sXiSOJIoseuwJYh/K7fV//42+OI18ne8HsZ5IsNygS9SbBUbqJZcy6oWpWesfk0xI1j6R+KVagV0x81NJKIMv/BAH6BIXmP7icXUHNUnTCI00AeomBLejW22jy4CUAg4TB6RbEC5zqSKwSKJ9hmSANndPOrvPiC1lHu6R85zT89w6J6nJM99S/HnFQsdyCK0bLLZmEDkPb3DvYuloTgR3eNJJwFaZSn3uPXWW43XLlotoMSXAqitHmocmVQLKhtihTtaZju1qRTAtyiYBKR13/Fyg/e8+eab73bLLbfsM8zdm30JhAHU4vVQ9PpHFrN/AIrn5KEO6e+NTkd3ve222667E0z7JK/vbVZIHhWoeMhxhhYhq8tDiRsBFEnF02LgLqVGrmmi5gaACbGxeIpCJmwvNpwqD+bAYsTrkGujtz0U70lY4I2LgW0D1fxkzPeNO1UHNObo8cUEgXkT22PP7bO7Tk4eTgpDbY7Uhofzr2I2UWw7K3hQbICNl2dzwV4TeuDtivuZM6EXxY2+W5wY5sosuLJiQ4w7cSJSi/oTd+JN0M8bz8vtuPubeaLuixZR8cF2AiqpLSXYhyoUZiH6GvrVeAsUQnx0sodWCMdo33h5ZuOmKNEcmSv2r5whR4rGWQV5EOoNqKQxxEQ8dNzRjdfD5sTcAJbmJiQXVbcvxLAIMQRt8VGbLfAmpSHp++vF0gcbL8/mQiGfLIP4ITtX3Gl1YGpJYlbYQIJS4EwBmVLdjZdlO7zVpNm6xl4SHF3UoxtKJBXEi+gy8gQ/Ge4bL8/mwpxI4wyJVW200eUS9EtmCn5uPD/f/YYbbpAA735uTs5OMvH6Ykspx1Xmu/FMfN11192v+AHFEs7td0p8OE6AdRagUo7B2HuDYpWG9r4pivvyjWdl9VC4/cwuIhtoBZs5SsqjY5ivElyMPVWVWuvdUSwFI/Eo7rHxeljeztzYTaNcWC8JxvpqQOVBiFAPJj/kgROFzT481YUbL8tSLObCnJgbLJOhsYbNpodq0GcjD2K3iIJ6ObyASCWg+ii7U5T5KrvdeDlWr6+uXrmxBrvyriSWzR3MEj0UsrljUZLBtv/NJk2SCaCUs+oaQgXa8q0iwXagjZdjc5C+XHbYpIZNOkY5se3rh+rQT05cUJsO9RYgUgFKeJ/Rp/ZZAO3sXNQLJnMhlGCR20mTndp2H7F77RpadL4AxhYkYtSDMfbYUR4M2DZaJwGNcA5PMFLK3NmNxB5ejOy3h3SJRw8G8fJGi4vOjQ6S1Jj8HluKmQJUhIMUzWIkcGaPHCMPoDS1UMylPmqjw0RSyKlZmILANqW2LE5k04D4XlSRf5XwaoXUPV6DENUDHKVDqkv8ybYppUaMc4Cy/WpRYcDl1A6HWzoGUBlIL05tjtkfJwpvgK0wzDMZWhhGDU+556nIpAKATah2D2lL1LKYnp3UqVfynuJ9NqfSDN3jbTpgXNtKdchjc63V7cvzMIzxxDYY5IJlu/Z2mTyT6aHtIdPKxq5fuy0Y91bdrrQAMNjvx72l6/U/sI1bfTTvhajuA5bP3NOOZT9ypIdB7mlvm2dtJcCc5LnettjWfJ4xF75l1a42z2ozlK3ovDQ1/Kpj+463VR+4Di3qVQJKvAmQwnZO6JSyC1AmDnAUdxlEPQl+vlghnkpP29PlnPoSmABhEympqBcAR0DfTfXRBhi4TFAXVLwajcYMsjiM2FjuyTtVI8Qj9Wxzk51B+i4Ah0ltxzJsI6YYX3ppaYHEI1N12Xe89kS26B8CxioBZZu0lZVuKibKpoS+zYIGQ3saTS0Y8dIy3cGgPrVCtJ2HSkLABaCkCvBQr220F/NQtOgBKjZAwGjCXMuODqvXoLXneQbA1BpxiR/OIXH0cwAYW5pUU7ZsowevuW2JSKpSj/qFdo+3c1sQEzAObThYJaAkGL0ww84E7eptYIK1RdRyxgskAKoDion2rxfyYr6XVKbanEeVAYpV6RjnAjAR775J9VC98lP2CQISolaByTYh93N96Qb3cM+AihQgNWXi5yST6lm58EqnNRdrWU8DKS3BY8caD5JUHInd1T1emx8A9R6HqjFXCSiTPaRZBmnD7olHAQB2YVBfJBIR7f+RWq4DRAbF4H1tcbrb2TpN5VnVfuKUIyAw55oklQ4rIsMGntfCA811SUBd7Gwl0tcbkPIdCeEZ5yQAIbl5c9JXpE/L1L/35wW2gKL+laL0HW8hDtnBctaAMgAelt734MBhUg0iQ1yjB1LJy7kOcAEGIFpxAOQ8k0/tWblcZFJP3bpOdiQVyaVhqYGlJrXByWD5TkmNidDeh10FkEDlnt5Bq6A5CTioWl192ZTeo2V2pX6agB6vFMDsr6PausdbFFojsbMObSk/a0CZeDthqB0TqwWybnaJpvNgDBoj23WoI4a2QeGVtV2AqTAxF6vV+bqTACMpZWDYEroAG/gvLHaee7L1uNsmBbknNSGP5RgqU05yTqLuHlqc0IsF07IFaGxJcVKHNDMeEu7et+94/aFI9F2OUeisAUUFmSyA8uI6yenSYoCAwktYVYDmOuwcwGGIsgt4Zj6n7gxWMuPx4GTLeTeuTZrpN+megq7O8zl1y77KPUlN0o1n6hgTJLYzJ3kW4Q/PTF2n1CTsnQBe9sFYM+LtWNHBzhh1j8fGlq16qIvKWQPK6uKleXCg8uIGhSEq70dS+L/Nh67DjRZCoBJIG6I8RjVPkqvN4FbNwJgWewEa1wU4gT3PQCr63LlWLw8TqNgbts9TM1a0ewKWZ5yTSEsxNPaiIKZqypZVbPCaZSSMBZuSutbowrt1j1dFIAxiXOIl76KzBhRpQt1YbVSLY3leanSsJv+a2IBGvIgH6aWpN8c43nlAQzWyLXTu9evrASqVqNLBoJssQUPfU3nO1ZOcMa55fiokDKRz1WwJMSxBFpyFRdq2DEjevxv1Nu5Uffd4tihVPyTBe9aAYu/wZKwqai3GuQmlavxrUhnWEsyi7Y5H4ikkGU8w3pzzGfZRc84FSIZqfh4Nccc9n9ofg4YBMvdMCML3enxzz+ckk+qegMympIJbJjGFB4AqqRe2n3ie2FT3eGmvW4tJvdinu+isAYWIa3YL0U5qsIcACCD8CyA+Z8ewfzIgwGiFkliCl4ADFM4DLH+TTMAkCp8YFDJoBpfqEExNB2DnAhLjn33Ga9Kbwb3mJLlIRjZvzuII6MOe0wKj4vNLCn7nhidnUfQdby7ONvUyBlABBo+P/eKlqZ07iqkb3XytLhNr4NrJ9bdrGkw2ggE1CVSjHR26hxD5vMJuQI+00gvciqY6NYhgkwkvCCuQfqThEDVxbPK8GoywAQHcpLZsohnZFgSAMOLlIGUoLKTu8ZgdyhQ4VDVw9oAKmXDnpVEpIPiXJKHeuoBoyYoWBc4POLMZqLUklXcRdeGegCXuwwukNpTFkmj77nlKAnZem2CrMSR9W1ajb8HxBIGPYW6shBFI3O7xwETisiOpxn10NoDy8vsAtdETCZBNoF0n7B/SqmWhFUFcJkBsKKrPgmBfdY9XukISW2RdQ75LAZRMwmoAZRWI8opsA5TqAdHmrcBuOFHn2ATv4lb9o7HH9xEwAyHJFnXJsJ/bMfl/REWJ9KqDAihiWFyI2z7kpTZajki6xOniOZNuh6oUTkpsACJZgpbrzlMRLBRzYu9soFofkWDsTXOk8RgwARXVJyB6KNxwUiI26WsuO4R7OA8m8Ru9v9G6iGFvbtSApeyI2hNcFixdlEgg9pK6Z1UAjDvMSBcSkIOyk6Kt2dl4GRaqMReCxkImwhHsJtKJhhGO4GQtTrwJkVy/7CSjD/EklQCinJwqwm6ZxcbzswS0uWDnJv3FTPF/jlXSVasgkkoNkmClaLegG1B56I3XyUClLEhwV7L8UJhhdqKbFcxJExCpor/EqqQuXb3xsixIKkUlxCOfyiQRt1IKJAK/SgfKQ0G6TYtyb2wopbp+D27jZVmFhfQW0+SBxcyUpTIEowioSCvRcnpZbo5XsfHybC7MibkxR6uUShtttNFG50WxpZRQELMqCzZens2FXB11dxaUMhERV3vwZdDVL6kP33hZtknEXAhC+40XGQ5zJRWzSpIfSsG9FsbCBiLmUjFCBxsvz+ZC2MDcKMKTDCa15GRXZ6B7MNlrGwGUp4rC9gXUNl6ek8i3g0g9m0LD1YQQ2EpcUmIVmDysHJFIrGpAkXO5oo2XZbVq5oKkSvmwhL7SI32lVpN6EdPwk1mqNYEJA5KyVgVcko6CnBsvy4KZksTq1zQ4kcUgrZIc1qtr8cJIYpIB/phiu1g8oBC/nbx6Eiji2oJn6yFzQQCoe7JNP30d7EK2QVbN/aLEmIP+SCc7N+xG4eEpql+tB3ENUwrseHp+eBygqD4OVNv7YRFSLpoObB4sJcCHGjVstDzpC6Fxmfo1lSH+XbwE2CYFD5VNCrbw2KRga/VGw4jEUC4tJkQdtewzkr6VGtQWCWPsu8djgBhSiuKabFxbr7JJwS6YRTcpeOFtG9V0AiaAUUsmfmdCW9ZTlPlgkh0LTKLceoIyorvHC1r6abkxHexWtY2qD1CHNnoaFIXwNmfadKkzr02X+WHAfWSQGPoGVD8A+9M0h7BaDdAuyj3FynRtcU9FZQZvycIy76uLsa4wqiq7rr4em4xlqigbPY2VCks9NrvHq8i0C1ud0yHVFUCd9c5hk6qgS2MI1Z2PLbY1XCsfdVN6RMk59RmGXFqrVQpBMzJF9Qr5eJR2yuYnurrA8tl9iq1eE+fn/91TO0ZbvNVa24q+xG4Pu5Y16RALMqnGsMviRjZ9tA3HHlfMkO47Xv8G43oIGGcPKJKAhFDgJfTfNyBWmTgJqRPJ4cUNvA53WvEYMB5lex73V2xFL6l2ZZIApJmgq/5PYi7teereba4wkKLF+6TcKSgAsWtIBxi2aMtq9EkuvRvSLEM4hsuv6133eIFldqx2kodiSt6VvSvME0BpGZmuN4vQUEBROVQcsKhjFl4ACtF0HVDSWkc6wPdezPHOI+pJH7mndAsGDH8Dl8HAVjL1QKVFdQKmbi4ixADsXFFiMbPc099aSxvcQ/0Ajk1UuPfUBE1z+zaZiy0+O1W8BwkKBMace68RWfd4FbIS8npNHaoocC1ANeYJSJP8AGtRGvvZaSigDJymGBqOAVOkg4nWosfn/h/31WZREslLs62UrgKM84DCqtJnkkRTL+08A0J8A23AyHBNZxPnAhPAsj/c03m5J1XIJpubjE28PFKlZeNIOrfq2HtR48DfPR6TZKT7IUAYWyC2OI2B8THGGrmxTw/ZsyehoYDipUjPRDL5Vxseq0EZhaZafmoLUFwnLRG9lAZigqURy7rX0f08Ix1YrGJ5KhIIYNISkc0hWQ2o7ul8OzxEiX0vFQFEbRvGuVsiAgqVrCkG6cCWbFn6SlzPYjQWbEs5N7amie8eT+1ri6ijC5DuI4CiCYxLAGWczAHD3jwC86yBzqGAkjxmTAOEiRcApWLy0hqMGiQSy3VMsgFL01aA8bkdrnpDSREYECtRS5+2aSubiKRhEynMd57PucdUi9WNgFxziDU0bWUneTdquOU0YTN2xtqzewcOhYnvHm8M2FKcjyFNW7uACjMn9N6ibgWpZ1N/QwHVtpUmMXRlc1xiJa5DSqV9tI64eoizn6ittJuWc/JT8XqUe0krXN9xHmLsqbatNFA6zz09o3CBgUTu6dr5VUsTYuLmJO+nex7169k9R5cthHSkswAl26l779R3vIUhtzqkrXQXUBZ7nsN1mAb6lALnLKAaCig2jYHzsKSU1WhvPXdem0SGtOskA+7nOnxvAIUK/OSGl6YqucyCd7ZqAar76ejmO4MsJCBW47qu4X6YOhQZFragNqhL7rgJc0//+n5OosZ05dNAzOR5z5ZJLs4IEJFmJDJ1zfhme3aPJ52pcZJ3SByqBRQWvqD64/wAFXvWwptFUg0FlIGj1xnQWQHOYTcwDEkd35FgWECPuCXBgIZtQAI5z0tqaWhQ1fEwzDMoVCWXWXiC9DKwQgq5J2lEDVJtbDgqwsA51zXn/mmOEOlD0lpYLfPW+mJkDG8Lo3u8hSSON6RmvAso406is9ksSqAyZiS3X+4yHyTqSWkooDy88mCTKVZiEolXdoD/+5edg3lq7Y8HuZZAqBVMCjmXq0+a+QGhxKWAwwplY3hx55JCGuh7PscYHJ4MO8M98xw+87NsPMo5ybh4VpK678eA9CNnkFM5jvVO7CigUS3QPV5rJRKPRog5sYv6AEViC0m4DklHqvveGAsk0wzsWueehIYCChHZVhGjOp5Vl9lIDGyeneMRL4O4pY4E8/rO89LsLKuIqssLE/tiWDw/gOueZxABmBHLkO9KglMTyc3TdX9SWVCyZZJB1JvKMZFUnu3+EvLUYfd4zost5gK1Y1WesdA8H7jNKzBL5UQzkFjmxiLN3BydxgDK6vIgBpCBDvE8GBLKXns2AaM40e52FTiX10aFsSnSRYTOZzt4Ud4S4HVB4RnZYdpZ81wYwO4pPqXhlp0gcoqHJuAURDpZKMaBdG7BHgZ4tmCMcl6v99hllJt44YYhXYB3Acp4O19ymtQn2R0jcu8YoZ6ThBPGACpkwhnFPC4ehPiUkAGgySPtkxJsByvU6pGbAyJtoVWN7tPvVrZ7SsSSYu4p4SqAJ3wwa6ylIQtM6kWhG6cAGFomyUkpwVqBzEg0tqcx7x7PO2Ynsi0BcB/tAxTyvWsI75D+TIOASo8pgDukVkfTFEBt9EQCZA4EkMsGcE5aZv9JfDPOLQoTaCIFZU1+93g5PuqQyQB8++gQoBDjnplC7QKrOXY81eoZjp6qckHGbNx9HpfVf2h1bPR/RLUAinEknRnTLbMHRfwZ4o5FQCiCTb13j8ckLsmX43eR61D3gGTuOChUq7AEQQHo7MqHFIt7CfU4DvhITrYaU8HzH42ooEcUs2fcjC0kDOClNlo3sceoLvMWQLFteXk8TtJK0pwqZkP5PscCISeHOrQQjkZWAjuIjoVc7jzxGBG90fqIqksKh3EfkJg/nuITijksgMRRSGiFtydWSDr5DKiEcoQSDqnXwURs0rGMSjd1E5FWCVuR7KWM3Y12E+eF1yuwK0wTQGGSqOttkkR2GEuFmVd2nfMAUNCYA8DuOtpc0/NKUrnwbpLIqmoBolPyNj+yvBQDPe/o9Yo90xS2Em0ZE0DkIZ4b86TVrauB8lNxgsItcFoGIoJB2kWe1I+Bs6d4yrIJqj8IECx3KrxwtLALtSfYpe1ekCtG4m83FjcS0l+SrUbpBMFAcZUpLN7Fi2Unqq60gM6JAYTLb14s+hjjmFSiysTokj8kjYRZpH5ItXiZEvPsZpkG1xBNFwdsvcMrE4+CMacmx4PtCtJtvC62+OVG2cDq0VR7ivMBEFurj6g23p1FBpiu43xS7JBnOYqS5lBqIZJNpAIXQ91DL8FEdwJyGUAGJcCPYbGX1svJtazQY3Ke85T38R65j3dTvcEUkB8U46JxSKJd4PA51WdzBe/etQRV2VjCDUe1m+WbFNOpLBDjENFVgM9oX4KtImIeqAygwfTyPJgxLHmcwF7YZEhWH5OZCiY99/C8Pus7dgpbYN7fs7u+eyn9UekwJurNS1TkeEexxeY6TAJa6ugpLAiGcoExolH2m0G8BIuzyJMZTAPIgBSIFeoYwwxZVZKZZFKXipD+ORYraxYHStbBypffVB5MFfWdM5aVOJMsJp/t4z7sQgJgSMlLyByLY6njkmt0HcFtWRPe/UWSVaSor63B8sIqOceSXKFAn2sAp8pS+/mOSVQF+4U9EkDZN2hx7rJnplAKD5PdYIgDrej7GPJMcqqkVMaFQc+jnrtqYxbS2F1ZiJclVQTmuPxjBw5JIgvYuhbpxO222eGYNBegpMUY0KnTVx1r88bY/CsppfiR7QRMnhdIhShkUC6OOAjsA4MGTNSd1TNlcsShqAbXIvFIKzmvY9JcgLKgxJIyNmwqYYJD5S59xAiXYBaWoAWEJFTMCi1cFFk9ktQMcoPG4wQCdt1Yci0BwagI16JKj13dORegmAJiRjYyuA8gSKF4H+86hpLC0RKAlMKSxt7jYoi3QuRaKRHFKj39hP9YUWyAeS2MciEQEwCkrsWjPSbNBSjjo7qBOeAemPqTURhjmCPPbJEaa2Ea3h4nSBjCc18ESVRagVpbGywrkLHIsDYAY8jxIsU8wwyYDDzP9ZiTjOYClEUCVN4pnh4QUOtjXX7XIqXYZEnlsMlUoYpVXQSxEVRxxkZgRCuJVSs0lqQb2EpWc4KkAoFssWPTXIAKqQLN9n5pGaGJqWVHiu3YqK7FxlQseDFqT0HaQ4qzaVRcx2qc0lWPChCsA0irGUsvHdsgR3MDSvm0kIF7sQ/V80+1C+3MiU1GkksqiwNeBImzyJBn9RHnBm9KuIA4V2EgscweI+0kwU/RLXduQLED47kaq0cV2wgyhcT2bAJxLZF9Eu/YcbrFSPxJVDuJS2XJ9rBNKQITDRYpV3RmoKRf1P9ILx2b5gaUmiilve5FTdlMO3WhUJW65rkWO5OUEvkfk85ZJRl4xreUhQnxgiK5KkinvBxPzsCYZPkvcRY7lk+xIXRuQNmuJs/qXmJRbE7bo6YQSU4iuVZAZXPFsT3h2YkRbceHpLAXY0TfXkyUj42xIGUc7DH1T7xFNUBCCEeto76T5gaUdkg2wLoXh0OFiM+mkOeTDxRAlpVwTSrwUMOO1ZOVwsNTMeqlqCgVD1MlCkApNGPYGyi2Bm9oioF/iOYGlK3+xsa92IdidZL5U8k+SxtomQauySZTEnPWZPCVuooVean0SWCoTyGGvH1u6YOglMUeulPsO5wbUKS2+nD3AgL9HpRrTyVVuzY5kHauKQ6oLOasiUSRckkPBIOkxMJqBIKxLCclZcPGMMEA5foM/77jr8IMW6vchoAASjyHdCUR+865CgOvzaHuxT604YDa6jt2CAsTKItJLwTq9P7FZ00ivbwNNo+XIqG8mFogPQHGMmnEcLWCTbD0C4D5vO/4qzCj1p5GaiOAYv+RuPpD9Z1zFdYnQjjEvRjRgCAW1XfsEJYkJl0jofSNYPifNcnViQDLfnspRjl1BWDiUWNZnwAgMrmuxzCXWhAQ7Dv+KkyqKqmNDYLd+xT3wsak3Q1MpQNz37FDWI4TKIHTNTVDIXHPmgBKRaLAWiZl42VY1YEsw1lTKgMioUgUQTbeGfU3lp1HhEdCWcVW9dTr7WP2mQBj6r2xe5/iXpjNFPWEvaM4W9+xQ9izxzRwvYuQUF0bispQacDukc8by7wsjcAyUMDp1xx83nf8VVjcpv1RRCw1IjKvTWHfOVdh3eoSXvFuQgc8s75jh7C9ea3Kvggbipcnsh0vzwte5ff7ANRE8/LYBko0dJM7ehubornDBspyUiJNkgOyJO9U0t9ToZ58p2tKf52iKmNWAgC1OMmiE8VW4tQ4lOvZZk+cA5TrXVIcSqLbvTgvKg7EkqaSc0m8qFG7tb3PWZOYjc0E7A4vZbWol54aKRfYtO2aZEqkXBzqEiLlEsE2GLgXdcejvUqkXMqLM+RargmsU3YYrYoEME169DgDl3E4tTqACk0YIrk89eSnyFHNDSgJcxUG7kWqqMqYmsuTJ1W9YAFbeK7p2acUNa6KhPq9TMv6jyuIm1ptIACoWC/VBiTWJVQbsJdsLnAvNqJeUVNTJXKogq/MAs/tmnKgU2rQVkVELNEtKZyVIosuLTC2AB+ZTDteVC+wM4QM7GGbsnvmEM0NqFcvVubjXhaKSlQSfgoxAXSzy3OrRfN/73TWZBOjOhyFY+lFoBsbUFBfY8nKUy+tpDUVm5r3a+J/bJobUN5LSMS9mAlsnqkVm6oKbKN3LQtP1NyGzyklQ6siA08dKYJrE8TU1BTPTJWnHcJsDatOTbnc4Cmy6HMDyq9TSJm4V+rup/YlEB4Qw3It6RcbOSSaL4KkXyQrNTvzgtQUb4aBOHbFKNgzyWp7GK5Wn1jLVbyhXTQ3oBQOZuuTn3izFWrK7mFjaguWMmnXoj6VxdjndxGkDtzL2IVhUoDAiqGmxhrmJlmpiiYbouTsMrVWUgrHFudzAsqzq/NKzIg01/hi7EZYZNGp5kjXGCBVNbHobxcfk0yMH9vR+AyYvKQ2hvbzj7WjTGQqGGKTib7bCQO4x6S5AOVavC+Fh3FceLHU1tiNHJ7Zhk72kwXnmTlFwDnFZl0tGTQ5PZFtA2b1eOkpNoJBY28oW3EtK/Do/bmL5gIUb1fXFP2t3AeobOTguY69D6dFUxJ2JadF/I9DJA1zzGdeBZFI6V3EO5MkpgqnqCoSSeDPtQQ3JWztrjkmzQUokkPIQHmJ+5As8m5TgrWkt0AvDSDwy14l+U6xzWxxklqQvRdsE5SksrjKJmgssZlUGZgA17Eij1maAeQkB8BnxzNAqZLgnZIEvmevAB5bcKoN53o62YnPuY+yGfeZ8nMqpJpwQwrr5APZU6dITS1OgKMsleGZCK4S1ymrR5hAktkECB2QVn6k8FgEJCoYNOEQNwuglIS4tziP+naeqsliA03tEkcSqcBgC7qPtBIbUSJ8DJGatAAV51lJKNJVBB7wL468sGb1Ui/xZmxmtIt4rAoxkdxs12BzqLNiowECcj1Sw/8NJmkC0NxwklLTeIOvPpx7DuiqGEgGgVKbBfRP8Hwx/jF3Xi5SbZFf2MxP6fsRS6EQ4QztDXlsQGHLvS3mYmfUp+em4iLdgBA4SViqzj1UCDCiScEx5Jq839TAC44qhyG1ju0Br4YYnxq3pvqAkW4yrdIxIQQeHXXJayTtsBSMnSo8I+Uxdt1qFO/37/yipvuSava+AYNcmQ4lgokmQf0RVUEdW+EB0VB2judhH3o/4CMh2IpACKB2zXBGlPR4LikooAaivIf0i6RwFscQ8s7GVqflVBfoMaX52ClqxVZDpITmV16WZBHt1h/TxI9xkUkgolzUPZUMjFr2goI7deyPLAYcVZaOi1S8Cntm9wMcKiWqu+/YPnasd+blSrMwviWEs8CAgW049hc6SV4bXlNqnQyCzy9S3YUAQcKTWklpBelARQwpuiOZ2CzEOJtJUNPgGURFdwYUeEgbHg6JY5JInUy+v4GLmiQh3d95JBUDnLRgIOc3h3N9zM6x1QlTh6L/PFfJaudYKJ5JYJKEEtrwLKoHPIf7Y2D0f8/nWYyD6/vb9XQBVs9krIyLKotdZgHA2G9ne5kxdR33f1gxUF6sugsxNpVWSFhGzJsc4rn78tSgASPZuMRqhlRo2ixq4EkL5xvETFbYJJEkJIKJMtjSEMDjXLYPKeYHARTpsXUY4Tw7VRKMbp5ja5RTmeJdmqN6HuqENyaYKPIvGEna2tMHFIxtni3pacMocHkOzwNQgOW6rp97ADwA8tBIMLaYWnDq3IJid7XjxFwQhyPl8t6kk9jTNUFAcu9iHhOpYiC5ygxaLjTw8JoMIENW62kSzOCSGiK/jk8kOJOBTZAJA1bHSveI0FOBbBVBP3k/nhoASOMAg3sBCYPZpMWQB+A2bNAXhzK5Ab5zLRggM9HSHYxuLSHZRe4PbHYCMZjbEl0LA5hiFwIGKUsq8mJVvqrcUDgH7ADtXgx+gI0qtgDYaKcoi14tWdm8OyrFRAGCwQUeA2TyNR7lTVEl3U2LLfsswLKqlRj7nWXBQqqAVwc07tld3fuIujh2YNP9gYC3B1zqvAVmXd/7kZ7UFZC1i8U7+t7uIWEByV6bP3iD+Y1px1tkFibwTg1jnCWZLCtIEI4aMGhWIw+HK04lpW48g5qB5cYbdGoSeAwwVeZ7gCKRAOiqtsMpABXybK7NK0tYwn2UrDCugUQowmIyPq1qNCbOIbXUhbHZYp85nvdIwl/1/c+OvLC4lEGNq27g/O1f4MFWK7Gv8QPbAGDYDCQc1aVYL5KOvcQ4parGeEl9dEpAMbLZbBZCwMIEkD7i7VKZyqRJaiCjuqlwqp5qczxgOde/xonzwDQQPrjmwBQycGqdeVqRRgYLqKxM9guACDqKOynWa91gE0ulCT3EFpHHElC8anb9lIAy6aSQ6wIDu0+glg3WJfaZJDqv9tHFgMX2BCbnY2DynAK215Sq65LVaP+YgYrqAyxeDiOcjcB4ZnOwgYCpu/rEWtT7xBsz2FSpSbjKxJ8CUJ7dhLc/WM3uobZ9tuu63pvToCSYUU/dJ0Rg8Xl3gBRiuGalE/LyVqUKw7SyMXFWH6kDbIcGyAQ7Lj8mBJBsCS5/34ofSqcAlPPUhskOZAFRY34Pekh3ObaRsIlnioRyHXE9OdFrWjq1xG1nLwguJpAoKMjT43LvAwaVwIXO7+46NzuUDfLUFXsKQGXxUOMJuAqKCgW47i7yDiSULMPtxaST5/G+7CtdVYQ5NrqTDBi1Jl7EBjLQJlHMCagYqPtWn/MFFKkO55ksoQYTMLXz7SkAJX4keSwIyXbi2fr/oW1gQg3eT07QOZ4naStJbt9PXTgXSyZQoFH0mvsfL892artmRK/3rUKA1EiDTRID3/8Z7VPo2IByDpvw8cWuF9vHZ1RZHznHdySQX5N3jjGh7qh1Un1fWuaaJitMyQZPRbpCsM7gJfpLpclt7SrrAACuuBhWPL4M+pS4zDEBRbpS62wdNpPrxfbhdOy6HnuLZAImatwzkExMAykZi2gD0wECGNl2Ed/YCiSOSLE4i1hNn7eHhBWkHSSInUda2Z/mF0DHVDOgYwHKcwIG78zCyPuwnVRM9Ekn12dvCZVIq7ArnUcyAZM4HC92U3MDyCAZTIlWKQYrOfkt6s+qtmnRJHUnlkqUqxNlBkATR9IBwtjOI8cClOMlnbn6yT8K1EocAxOnIuTdLRY2lViaPYei4t6dZBKXUzPO2WjjcRsNIBOhhMMPD/H4DCqAEP1qhux8cUw7IUhKR/TcpDkeKyuR/QeEoav6GIByL0BmeIuKewd2EGPau3WJaqQCH15MXUd1O8dzSMuIRW3hgYkk2q35u9JcaiyxF6tWLZLyXSqwtasAjK1lt0cK10gGqoN9tssA7tJVAQVM1BL15BqenaSVg9NBprsJQeCWvSS1RBIBkXuSTKLj+QmSTTJdgUwK2wdoGOUqEqgyAy2npYgNcGyr4pJn5fJ8ZNxVK4i6O14EnT0l4AkUh+iqgGKEA44cZCSNagHSh5Rxfe9n0bAZVZsKCyj8AybHS5CTxoKZx0h4b3QnkTpAwuAmmQw6VWbQGawmTfpFspjKC7BsT2L8JqFKsinOU0R3KIo+FVAJtAoHpJ8DVec5U1qShcKJkOQWhG1bb5NkwMTbFTIggTcwHZlMIjfZRBloqx1QACsVCTYCAJFqAzk+9ouKTCpEsNOxJk6siw0DpLsmagqggAlINAdRz07VApMFwMAGHmrLMSQlr1VcKlUE1CLQs59sZgB8KnqIRNxoAhnYqAg2BZUHKJECJlCRmslUgEa1AJX9f2wwx5k06s+2Jx7hrsmaAigRa84CkHgW5wEKG4haZlPJO9qBo2EIGy/S07Gi4Gw9NU3dyoqNTkjCAwactFJKq8swKUUCARa7ScxHsZ7SF8lYe+2s/tgnJlNFAwBw06mgFihDAEW6kUpATiqqXWptprj6DG3qWlWFKgNpId+5pucBPgCzsQDgbMTYBdqNTkQmk21h0qk5gCGxYlthq1+t1R3FVI6UjmBpjgE86sWevm5sawiggJCb72dr3d/13dPxgCJ5C1AqUd2HBMq9XQ/w9HFyXUFMhvcGpIXJBCQQqgyEp6REONFlk4cZulQdadCCjkRjw1CTYlVq0VU4qC1Skw4QAQDbC+ioLvaN3TsK5YAiKi7sfgDUBZG/xaR4rEAogClQuVULrIjiNdlpItbE4xMyUG9NtbGzAMdk+rcFGvY5aSGqzjPjCYofARhjP2BQc2UjKdXEBrM1Ckhz/faajvdZ7hvHgUoEpAcXq4Eau3lioxnJpJBYwCV8wMay/VswUQpHDItK6k5+CwKTT7oASRco1BjbxzX8ves62HUcS8VShYCqPIdkE1bYlY/caIUUYAEVg5s6lJxlK5FcDHbpHKqHHUU9AtE+gPRxAAhgJBD1xm4i6dhMpBhpaTOGmi5q9FAca6MzIAY2qUDFAJeiNIa84j2JZNJDXKs12IcwEAIQ1WdLk8S1TRdKZjTCEGjlje6Ld210AcTVV1Ir5yfAycMCMNJEjIgkk5S2EVPoQUMLks02Ltud2FiK96SDZP+lRpT2MuIVCW5Fb9cgRS1iACPFGMfsL9JMVJ63J/ipnkp/AfaPLVCMfxFsnpnzsGu41hlKorvc5X8Aqnwaun30uwcAAAAASUVORK5CYII=;flipH=1;fontSize=16;" parent="1" vertex="1">
          <mxGeometry x="542.04" y="250.23000000000002" width="111.82" height="139.77" as="geometry" />
        </mxCell>
        <mxCell id="EnO2U9nMXVYCDqS1bMv6-100" style="edgeStyle=orthogonalEdgeStyle;rounded=0;orthogonalLoop=1;jettySize=auto;html=1;entryX=0;entryY=0.25;entryDx=0;entryDy=0;endArrow=none;endFill=0;fontSize=16;" parent="1" source="EnO2U9nMXVYCDqS1bMv6-90" target="EnO2U9nMXVYCDqS1bMv6-89" edge="1">
          <mxGeometry relative="1" as="geometry" />
        </mxCell>
        <mxCell id="EnO2U9nMXVYCDqS1bMv6-90" value="Mobile Client (iPhone)" style="shape=image;verticalLabelPosition=bottom;labelBackgroundColor=default;verticalAlign=top;aspect=fixed;imageAspect=0;image=data:image/png,iVBORw0KGgoAAAANSUhEUgAAAFgAAACFCAYAAADfNT/FAAAAAXNSR0IArs4c6QAAAARnQU1BAACxjwv8YQUAAAAJcEhZcwAAFiUAABYlAUlSJPAAAAmhSURBVHhe7Z15bFTXFcYNDYuNYZjNG4NXPKt3nNqOzOLaMUkKFluIQJVKStiEhFjyRxECsdRqcAgQ04BQVQJmEZHAqlsThORINMjsiEU1OylCUBAFvIAxq0/PuX5juTNT1fa8M/TN3E/6ZI/8Zs69v7nvvPPuu+85TEpKSkpKSkpKSkqqx+pnNBoHmyPMMXq93mUymUbi61wtWmm7LTYy1mQ2myOxb+90dPEtyOl09kegadioJeh6k9HUZjaZIUjcbDaaD2K/Zut0umTsbt+OXgdO/TD4NIR6FP3cRwODwti3VgRdi6O5UOl3QNTHYDBMwuD/wEa0ezYqCE19PIF9zlP6zysM5EC4lzwaEex+bTKY/oIpMV7BwCOLxRKOgbYi4Jc+GhHsbsG+L0YM/TtoMGjo0KGZGOiMR+BQcTsOrGrcgy0KDvVl0pumYdL/p4/gIWEcwZeplFNwqK4+CHcBfotPfAX3x7ExsWC32WG4ZXjna8swS7c9LG4YxETHeH2u2sa+P8Q6+RcKD9X1M/z2FmOQVl/B/fHkyZPhxvUbsGjRIgF3wYIFsHHjxm57/fr18Mm0TyDKHOXz89Uy9r8JS7ZxyKJPBxJ1xQZ4wvgJ8EPdDzD7s9kQFxsHX63/Cmr+XNNtV1dXw9IlS9lHsWYB0y6eOzIXkhKTxOsRKSMgzZXWbbucLkhMSPT6XLWtWcBasQTMbAmY2RIwswMOmMqiUHDAAVOtWjahDD6e+nFIuLS0NLCAqYy6fPkyPHr0KCRcV1cXWMCpI1Lh3r17ECo6deqUBMwpCZhZEjCzJGBmScDMkoCZJQEzSwJmlgTMLAmYWRIwsyRgZknAzJKAmSUBM0sCZpYEzCwJmFkSMLMkYGZJwMwKWcCvX7+Gu3fvwvHjx+HkyZPQ0tKi/EVdhSTgluYW2L9/P3w681PIzc0VC2Ea/t6g/FVdhRzg1tZWqFhXAelp6RAdFS06X1JcAleuXFG2UFchBfjVq1dQWVkpFm1Tp92eOmUqPHz4UNlKXYUU4B//9qO4YaYrXLrtYOXKlSIncyhkADc2NsLcOXO97sVwOpxw4sQJZSv1FTKAj9Ufg/cK3vsPuJSDKyoq4MWLF8pW6iskALe3t8OOHTsgJTmlE6zNaoPy8nK28sytoAD8/PlzuH37Npw5cwaOHj0q6trr169DU1MTvHnzRuTXLVu2AMXOSM8Q98Xt3bMXbt26BdeuXYPz58/DhQsX4ObNm9Dc3Cy+ELWkacAEoqGhAdZ9sQ6mT58OhYWFkJ2VDQX5BTBx4kRYuHAhbN26Fc6dOyfy7PY/bYfv9n0H327/VryHcnJZWRkUFRVBcXExTJk8BZYsXgL79u2DO3fuqAJas4BfvnwJ1Qeq4f2S9yF+eLzohKcpFSQlJcGowlHw+dLP4Zs/fAMzZswQXwLdett1iX/X99jtdlG6HT58WJR2/kiTgClvbtq0SZRcviD5MlUPVJJ1d3vaLjkpGbZt2yZSUG+lOcA0cnfu3OlVz3KZKo+rV68q0XsuzQGmg1d+fr4XCA5nZmRCVVUVPH36VInec2kOMNWt3d3N/TGVcVTa+ZMeSJoCTLk37+d5XjDUNj1HYs2aNfDkyRMlcu+lKcA0d2tNtXoBUdtjRo+Bs2fPKlH9k6YA79q1i/3RA1RtzJs7D9ra2pSo/klTgL+s+FLsvp5Q1DTVx5VfVyoR/ZemAK9atcprLldt04M96GqHWtIU4OXLl4uTBU8oappSEM1TqCVNAabZL+4UQXvI6tWrVZvw0RTgzZs3/9d5B7VMNfakiZPEZI8a0hRgekIUzQ94QlHbNG9MX6YalYSmAF+8eBEcdocXEA7TlOf3B78Prdk0uuROl9g9YXC5aGwRHDp0SEza91aaAkyiNQ2eILhM+ZgWptDVELo60htpDjBd1qGHyXnC4DTNqtXW1iot6Jk0B/jZs2ewbNmyzlU53KZRPP6X4+Gnmz8pLeiZNAeY6tP6+vqAzKqR3afOvV2YojnAJJq2XLFiBftZHXlc6Ti4f/++Ernn0iRgEl1N/ujDj1gn3+kS/+nTp5WIvZNmAVPpVLWziu3Egw6kdHnf31U/mgVMotJp1m9mecHx19RGKgcfP36sROq9NA2YdOnSJRg9arQXpN6aJpPWrl2rClyS5gG7V/fM/PVMMfLoigTlZXqEI51W08KU8t+Vw5EjR8Qyqdq/1orHkY8dM1akAZo9o+3pfbT9hg0bxNIAtaR5wG49ePAAdu/eLeDNmTNH1Mo1NTVi2arn1CO9psqAToPp4ub8+fPFY8YPHDjg91VkTwUNYLfoRIQW8HX34EQHS7p6TDNnas0Bd1XQAf5/kwTMLAmYWRIwsyRgZknAzJKAmSUBM0sCZpYEzCwJmFkSMLMkYGZJwMySgJklATNLAmaWBMwsCZhZEjCz3gpguv+BVo6Hgunu1IACpvUH9IgAWiwSCn43993AAqZgoWgJmNkSMLODEjCtOYuPT4DExKQuThSr1n1tz+mgA0wHU6fTBZmZWeBwuWCE1QqpVhu40tIgKysbrPh7oO7zIAcVYAKXnp4OTnSkTgfvDBjQ6X4DB4LBZIKsnJEI2cq6Qr6rgwow/XPszKwsiBg8WAA1RkV1Wo9wCfQQvR7y8vMDcp8HOagA0+6fkpoqQA4aMgTGFhdDMr4mF5WUdI7mjOxs9pvL3Q4awLTL22w2GBYfLyCGR0aCKyOjE2p2bm7n75SXk5UHhnKbG3BfDLAoUCM4NdUKCUlJ/xOwAw94CQkJPj9DbWP/GxFwKbJgARyGAT7DQI2egTlM8x0uPMD1Dw8XeZjSAoEljy4qEnAHDhoEeQUF7I+ocRsH1z0EXKjgUF8Gg6HEbDRf8xVcbVOJlpOTgynABgMiIjpHrNsEPT0zU9yjEbAqwmiqjzHEOBQc6stoNMYh4IMY7I1ncA7T3ULZ2TlgdzohMTkZomJiIDouThz80nB0p6dniBtlfL2Xwa+w71/r9XqdgoNFlIdnYbBmj+BspnqYHpFos9nB4XCC3e4Qj65NSUkJ2Mgl4+i9YdabP0AGPPnXLRzFg9F7MWhARnFXU9oI5Jmb2wj3Kebe1ZYwS7iCgVexsbEmDLwH3dS1IUHodoT7L5PB9HusVAYq3Q+I+ij5+LfYiGPYiDaPhgWDmxBsHfZzXnR09CCl34EVjuSIqKioDGzErzA3f4Ggt2PD9iD4vVo09mE3/vwjehWmhCn42ord7N/R27ervvQt63S6ofG6eL1liMWgRWP7sUjQ6ywWkWt5D2ZSUlJSUlLaV1jYvwHQkyICAGUYnAAAAABJRU5ErkJggg==;fontSize=16;" parent="1" vertex="1">
          <mxGeometry x="205.53000000000003" y="130" width="66.17" height="100" as="geometry" />
        </mxCell>
        <mxCell id="EnO2U9nMXVYCDqS1bMv6-101" style="edgeStyle=orthogonalEdgeStyle;rounded=0;orthogonalLoop=1;jettySize=auto;html=1;entryX=0;entryY=0.5;entryDx=0;entryDy=0;endArrow=none;endFill=0;fontSize=16;" parent="1" source="EnO2U9nMXVYCDqS1bMv6-91" target="EnO2U9nMXVYCDqS1bMv6-89" edge="1">
          <mxGeometry relative="1" as="geometry" />
        </mxCell>
        <mxCell id="EnO2U9nMXVYCDqS1bMv6-91" value="Mobile Client (Android)" style="shape=image;verticalLabelPosition=bottom;labelBackgroundColor=default;verticalAlign=top;aspect=fixed;imageAspect=0;image=data:image/png,iVBORw0KGgoAAAANSUhEUgAAAFsAAACICAYAAACInJcYAAAAAXNSR0IArs4c6QAAAARnQU1BAACxjwv8YQUAAAAJcEhZcwAAFiUAABYlAUlSJPAAAAkUSURBVHhe7Zx9UBTnHcfVsYkgeHB3u3fHmxhRERRQ4HhRE6BEgTEiqGXMH6mSmVSSOuafaB219SWtY0mDRk1TZxK1SSZjpmmZmkolpc00mjFCqfg2Ux11wPg2yIsvBVH0199vWZjjstVDdh+8ze8z8x243eN5+fDcs8/t7t0whmEYhmEYhmGeSEbYbLZgh8Mxzh5if1a2ykWSJC3y64RKeaGhoVPCgsNs2L+nero5xFgslhBs3By73b5XsktX7TZ7N/4EE+QB5ib25yvs2wrs5zjs7vCeXg8Bsiw7sCE/x0Y1qo3TarQZ0oX9/KPVanVjt8ULj4iICJBs0i+xIa1eDTNr7uEoP4iv4iRVgTgkq7QIK+/UaNSgIkuyEq19T0BI+B4pUHKqGoyH5mms9IhGYwaVqMgomF84H/Lz8iEyMhKez30eCucV+pyCggKIj4vXLFvHtMo2eT5qGNFjw2DwKD0HK23xasSgk5qSCjU1NVBZWQnJ05Ohuroazpw543Pq6uqgtLTU8FcGzt87XC5XoKrDWHAKWY0ju0OrIYNJ9NhoeHHxi1BcVAxjo8ZCQX4BlPyoxOfQ3yUkJGiWrWew79/Qq1vVYSx4kNiGld71boQeccgOJb2Pe+dwX+NZloFpUtffxoMvo3ewQkNk+0kusmxxES970sRJULq0FF5f8brps/ynyyE7K3voZOdk58DJkyehs7PT9Glra4NNGzcNnezcH+bC2bNn4fsACd/8q80sWwQsWyAsWyAsWyAsWyAsWyAsWyAsWyAsWyAsWyAsWyAsWyAsWyAsWyAsWyAsWyAsWyAsWyAsWyAsWyAsWyAsWyAsWyAsWyAsWyAsWyAsWyAsWyCmlU1l3rh5U33kO3Sn6YULF6C7u1vdoh+mlX20thZ2vvsuPHjwQN3Sw318fKerS+l49/376tYe7t27B385cAD+VFkJ97326YFpZZOs7Tt3wv7PP4fz58/DHz77DH5SVgbpM2ZAzKRJMC4mBqYkJkLRggXw67fegqNHj0It/oM2vvkm3LhxQy1FX0w9Z/+rvh6ezcqClLQ0CAwOhpFPP62ZH4waBc7wcEjLzIT3P/gAOjo61BL0xZSyaeqorauDRSUlEGSxaArWylMBAZA4bRr89r33oK29XS1NP0wnm0TTfJ07ezaMGj1aU+rDQqPcFREBv6mogDt37qil6oOpZJPo06dPw+y8PGWU0qie9dxzMCUhAUYFBmrKpdAU405Ph1QM/R1tGz1mDHz08ce6HihNJZs6s2bt2r4RHRsXB5cvX4Y9e/cqc7KnYM9MwAPmV4cOwb+PHQNLaGjf9ql4AKWPWOuFqWT/B8WMfeaZPlmS0wlvrFoFCxYuhOCQkL7t3rFKEryybBmUvfYaBAQF9W0PwtG9YeNG3dbcppJN62qacz1F0hQR4MPcrTzPQzSFysrOzYXGpia1hsFhKtmlL78M0ePH6xqa8//x5ZdqDYPDL2XTgfDit9/CocOH4dSpU8qqgQ5kh7/+Gg5UVeka+jqNS5cuKfVeuXJFqfPEiROPtRb3S9kNDQ3w46VLlQNYDr7M9336KbS0tMAbK1fCktJSXUNzefUXX0BjY6NSJ73rpNG+e88e6MK3/QPB72TTeY1N+Jaalma982r+3LnwDb7dnhAbqzzWMxarFd7Zvh3Ky8thjMdBdmpSEly9elVtlW/4nezW1lZltPV2mpKAHT9YXa2c8/DcrkfG4FKQZC8rK+u3VrfLMpw7d05tlW+w7EeEZbPsgcGyWfZ3wrJZ9sBg2Sz7O2HZLHtgsGw/kN3e3q6cd/YUkjR9unL+wkjZr2KdnpfZJIdDuWo/EPxONt3bsaW8vN+F3MKiIqivrzdU9vYdO5Tfe7fTFfvm5ma1Vb7hd7KJa9euwdp16yBz5kwoWbwYjhw5onTcSNl0hu8X69dDemYmzC8uVi6jDfT6pF/KJqijdKtY7xXw69evGyqboDppGiNpj4PfyvZGhOzBwrIfEZatwe3btyErJ0c54a8l7XETFR0Nn+zbp9YyOEwjm/hbTQ28tGQJvFBYCHPnzVNuJfMUR0s3uhGH9lFm5+crV2I8n+MMC4M5uJ32Fy9cCG9XVAx41fH/MJVsuhDcigfNpqYm5Zrh5i1b+okkse/v3q3soxxraICJsbH9nkOvjuPHjyv76Qafu3fvqqUPHlPJ9uZ3u3b1Exlqt8Of9+9X9/bM8/FTp/Z7Tl5BgfIu1QhYNsvWB5atwrJZNst+XH7/4Yf91t10t+pfDx5U94JyF1WK2923n55L5z1ozW4EppZN9+TRPdq9MjNnzYKmixfVvaDcr/ez1av7biemf8bWbduUJaQRmFo2rZGrqqpg5apVsHrNGuWmSE+R9Dt95rFi61ZYvmKFMu0049RiFKaWTdCZulu3bilTg9aIpW105pA+jqfnGxgtTC/7SYJlC4RlC4RlC4RlC4RlC4RlC4RlC4RlC4RlC4RlC4RlC4RlC4RlC4RlC4RlC4RlC4RlC4RlC4RlC4RlC4RlC4RlC2TIZedk5yhfsEX3dZg9dG/hhvUbhk52VGQUzJwxE0i62ZOdlQ3xcfFDJ1ut+PsYli0w5pTtdDjB5XSB8xGh58iSrFmGAREnW5KkrVih4bKjo6MhJSUVUt1pkIw/H5a09AyYPHkyOGSHZlk6p1GYbNkur8MKO70aoGtoRCcnp4ArPNynD6PStwwnJiXBxAkTNcvTOXUWiyVE1WEsNpvtBbvN3qrRCN0S5gqD1FT3gD71GxYRAQkJiZrl6Rns/y6XyxWo6jAW+q9ipbXejdAzNLKTpk2D8MhIZdTS92g/LPQdJgmJSRAzPkazPB3TbrVai1DDiB4bAsCDZAlWfNOrIbqG1vHutDRwu904d6c8NBkZGRAXF6dZjl7BV3MXZjces5yqBjFghUGSTdqGld/SapieoVWGL9H6Wx3Tjf39p2yV07H7w3ssiGN4eHh4BB4st2BDWrwaZsb8XZblDOz3yJ7ui2e4MsJDpTw8aBzABjXTSMd0mCD/xf604XR5ArMG+xeG/RU3Tz+CkU6rMw4PHsU42l/Bf8Krfh2r9BIOohnqEk/4tMEwDMMwDMP4OcOG/Q9+FiPM2sn+zwAAAABJRU5ErkJggg==;fontSize=16;" parent="1" vertex="1">
          <mxGeometry x="205.52999999999997" y="270.23" width="66.91" height="100" as="geometry" />
        </mxCell>
        <mxCell id="EnO2U9nMXVYCDqS1bMv6-102" style="edgeStyle=orthogonalEdgeStyle;rounded=0;orthogonalLoop=1;jettySize=auto;html=1;entryX=0;entryY=0.75;entryDx=0;entryDy=0;endArrow=none;endFill=0;fontSize=16;" parent="1" source="EnO2U9nMXVYCDqS1bMv6-92" target="EnO2U9nMXVYCDqS1bMv6-89" edge="1">
          <mxGeometry relative="1" as="geometry" />
        </mxCell>
        <mxCell id="EnO2U9nMXVYCDqS1bMv6-92" value="Web Client" style="shape=image;verticalLabelPosition=bottom;labelBackgroundColor=default;verticalAlign=top;aspect=fixed;imageAspect=0;image=data:image/png,iVBORw0KGgoAAAANSUhEUgAAAIMAAABvCAYAAADPG3OfAAAAAXNSR0IArs4c6QAAAARnQU1BAACxjwv8YQUAAAAJcEhZcwAAFiUAABYlAUlSJPAAABiCSURBVHhe7d0FlGTF1QdwHIJrkOAQdFkcgvvgECywSCBAcNug4eDurkuwYFEywd0DCRDcNcGS4BYc3te/+vb2qWmmmZ3JTm93z7vn3NM9/eq9qlf3X7fuvXWrZrSSSiqppJJKKqmkkkoqqaSSSiqppJJKahgVRTHhN998M+jzzz9P/MILLww6+OCDB80111yDxh577EGVIiU3GZMLnn766Qfttttug+6///6q/MiywlNVyvWeKjd2VABRVD6L1157rRg2bFix3nrrFZWKikqFxRhjjFFyk/GYY45ZjDXWWMVUU01VrLrqqsVJJ51UPPXUU8WXX36Z5Fih/YaLt3dUeUCHB7z00kvFdtttV0wxxRSpMtxdQ0puLianSSaZpFhzzTWLBx98sPjqq69w38Hwr3/9KwFhwgknLEHQokyLd3R0FC+++GLfwfD66693nHrqqV00wjjjjFNMN910xYILLlgstthiJTchL7LIIsXMM89cjDfeeFVAfO973ysqNkRRkWnfwHDcccd1UDGhETx8pZVWKv70pz8VNMZ7771XvP/++yU3EZPJ22+/Xdx9993FkCFDigkmmCDJjgwXWGCBoiLTvoFhoYUW6phhhhmqYJhtttmKa665pvjiiy+SMTLcIEmfX3/9dTJS3nzzzaJiwRY33HBDahDDs2LJputRPqe4F3/yySfFs88+W9x6663FTTfdVDz++OPFhx9+mOa6KFP7jLzuf//738Vf//rXat1vvPFG+r3eve1I3hHrs4ceeqhYZpllqlqdhl944YX7Bobxxx+/Y9xxx60ii1b4z3/+061A/vvf/xYXX3xxsdpqqxVzzz13UlM//OEPi2WXXbY49thjE1qjoTn5m6CAYPvtty8qACxmnXXWdP/gwYOLn/70p0mwAFgPDEB0wQUXFCussEIxxxxzpHtnn332Yvnlly9OOeWU1GadU3tvu5OBtMsuu1Q9P58V7d43MFSoY/TRR6+CYa211koV5J3quxHJyDSNBApzZmcA0tNPP50EGuTezz77rPjzn/+chMclirqw736bfPLJizPPPDMJ3T1Rv2f94x//KLbaaqukDuOeuB+rm4v1zDPPdGn3QKBPP/202G+//YoY0MO5b2CodGZHPIRQ1l577eKjjz4aXtX/CxM4Dj744OTCZBV+iwll8803Z8AMv7tIo/Wee+4pFl988aog67HYxlVXXZX7y8U777xT/PKXv+yxbm2nYcynA4lyMMSgrnD/gMHIvPPOO4v55puvOhKV422Yq9gYQBDP8LupJFQ2Ye65555djBzfGTo/+tGPioknnrgKEs8R8GIHqBfffvvtaVqIMuoGGnWbavwd7RKEufLKK9N9ASafwPXuu++m57Yyf/DBB13eDTUUDObxE044IcUgogxB/u53vyuee+65ZAiyIfzuujlrxx13TCDQ6CeeeKJYcsklq8I0wnfffffi4YcfTlEztsaUU05ZFSjBMyzd60UrlnF6UdfUwd4w5agbSNkr8WxgYpPEVINMUdpqGuGOub/VuGIQprYbKPfee28CRFBDwQCNfNcQtlF9xBFHJO9Bh9MAl19+efGDH/wgXScYrqrgh+t33HFHGslxjY8MBDHyX3nllWKjjTZK1zFr+LzzzkvXtONnP/tZus+Lqhs4QusA6h/+8Idiookmqj5/lVVWSd5O0KOPPpo0kGs46mlFNtA23HDDpOWCGgoGfi1rNTpSxx999NEJDIhgfv/73xfcU9eVW3311YsXXnghCZSaz4FCSzz//PPpXtfZF5tuumm6jhmS5557brrGVtlyyy271H3yySenOpHPzs7OYrLJJquWWXnllZNnEUQDGVXx/FZmYPjxj3/c5f0aCgaVHXroodVIlwYJe/79739Pc/HLL79cbLvttkXFRU2NIRSGnAYTqHLzzz9/ute1aaedthDxBDLP/s1vfpO8jLg+00wzpYCXkc+VPfDAA6tayTQAaI899ljSCrTKFltskdrkXp+Apf0xTZiuTEVzzjlnmo5onlZl04X+8u5BDQUDgRIOvz7KETy74Sc/+Uka6fnIZBOceOKJ1WmE4UNgnh0CY2QSKpTPMsss6bd4NsMwNIeRzz74/ve/n+7FbBedYmpZeumlk7bwu+f7zj0NzYF8Bwi2i4UcQZpWZa6zAZJTw8Fgjtppp53SnK3C0ABxH/Y3oYpTsBeCCOPaa68t5plnnuoIr2X34qmnnro4//zzq64lpmEYpOGN1LvXsxmJAl+1FFqiHaj2XRoKBpUDhGDS+uuv32VhJGcqnKF22223dRmZ7v/444/TiKUFlM0anZgwqXAvVRvwiqlG3TSSsvm92AKNuv/yl7+k8gOJGgqGIALmBey9997FvPPOWxWMRpjnt9566+Kuu+5K81ktev3tmVdccUWyN8x/6sKTTjppcg9PO+204q233vrWvUjdTz75ZKpb+Jvw1Q2AAEZzCGx1V3e70ygBg0426kT4uGvm8l/96lfFb3/72+Jvf/tbUufUez1yLzuCwcnD+PWvf53WGsQUeB60Rz1BRt2mK1pCYCnqfuCBB5IrmU8tA4n6DQxGmwCSVchy6br5mYysGQ0dOjRN3yMdDMLL1O6uu+5acgvwzjvvXCy66KJJq5PfSANDcPbQkluTRx4YSm55HjlgYIiw8AWPrCiW3LxMRji8q0yOI8dm4DZaexBFLLn52cKd9RhudsNcy5Kaj7jRoyTOUFLzUQmGkrpQCYYaisijKKXOsd9DCr5MKGn/EmCEwrHo5XXXXZeysYXXhcDzNP/gVqESDBXKBae9lnglxcjKsjS+1FJLJWN4xhlnTEvgkmbwNNNMk5bjBw0alNZELIXvs88+xUUXXZTAoXMDGK1AJRgqZPHKqL7wwgvTiqbkFQtgkcof79QTK8s1k0wLPBJzZE8J9aoDMJqZBiwYCMYStyQVqftWS3sj+BFhz5OXIf+C6xYJJc2qKQYcGAgCEORUSMGTZVW7mSfeIWe/eyec/9bTPXGNxjCVnHHGGWkjT56n0Sw0oMAQNgEjUCZTpLlFm6Pdgi65IH2KpFqFlUEVv0vctSVPBC9/ju/xjPgNe7YpRJp6beJOM9CAAQNtYIn2sMMOS0ksMcIJDOuASKxZYoklqrmUrkmTM5VIuYuEWywj6pZbbim22WabLplTPr27hFpGprr8Fh0MKHPNNVdK4/+u3ItGU9uDQUdLVuEeGpFeNNqIJcXyBoDEiTOSXIAlBAsIe+yxR1rzlwqXg0ECrw3AciV5HQDkvX1avmePSN6xC0xWVV6359M2lo4l5DSDlmhrMACC9DXZU7FTK4TsOzUvOfe+++5L5STibLbZZkmYyvm0kQaQCMsOpFow2I1F66gjtu5hNgIQMFLFHmRhcT1jx1c8A9jU2QwbfdsaDATo/AW7srxgCMEnbXDJJZekoJJyWADJJp0oZ1+GlDjb6hDQdAcGQuQl0C5AEHXYzqZ+1z1fprd9F54RdWAGrCmFYTkqAdG2YDA1SHxdZ511qgLC5uvlllsujfLYj4GNYFlZoT2i/bRFCKgeGJAydlz5zf04dozp5KhHf1x//fUJjKGBPIuGsIHI3pBRFY9oWzDYIWUvYd7hhGMTjnleh4eQfYoY2pAT7RdhZD8Y0VHuu8CAdCbhqydA5ZwJU0CQZ6mbLQGUOt6zlGe//OIXv0gJwVFnI6ntwKAT7Zy2lS6PH9AOIoIEQ8A5ucdeDMDRduXlAsqUzoXSExiUZWTmRw5wRUUho05lMM1FO0n3zzWXqemss86qapNGUtuBQadLvbdbmzCiPQxBGsH1WjVsutDWKO/zgAMO+Fa5nsCAeB0MQtORMgCmgwE0J4JmtNpZXnv4CLdTGn+jp4u2AoMOtrdyjTXWqI5y7bDWUHsWQU7uycPRRirvoHZkegaXMd7RAlbs5QxSh/iBqSLKAU13W/UQIFr9jD2gymszQDU6BtE2YNBpjMBDDjkkRQSjHbwDy831dkj5zSqj/L+4R9CJZU+ADDrfCZ0NATRRztmWsXHnn//8Z/JMbMxluMbRATqVLWAltDsCHlMGLyPfA2oDso1BrjWK2gYMOtURggSkfqNMVNBeAJHHnABAecxtFPjRAdF2ZzCIEfz85z9PsQGha7u0YytglDP6rW3Y7W0nOPeQR+LcKHN/tENfWBIPYzQHZfzNa+ECKxv3iI0AWl6+P6ltwGBO5uczGqN+gmLQ5QajjqWa+fxGupfPz3nCphhzfggmfs+/55x1XLon7s3LANjhhx+eEmRoESM+gIBprj/+8Y8pZ0J5dZk6xDkapR3aBgxcSedJhsCMYB6FFwQGn6+++mo6Jsgpcsrq7HxNoT9ZHaYLGsOBI86LEuTiRtJOtJTv1kbC+NSHzq3Q7kZQW4DByDKC8pgCo5Glzz20o9v6glEXZYKjvcF+UwZIrB1wDd3HcPQZmgcrI9PJSXFC28AVew/CgK1lz9c32LNMPTwXU5zNwDRH7rEAjwUyYOlvagswmCLUpc6o38hzDqTPEU1ccT+NYRXSKqUjguzw5qpanTTvA0Q8y4m0jNObb745eQQypfy/BsJ1flQexKrHOt3zuJMEoS62Q4CJlth3330bkhTT8mAwYkQPcytf3TaD0A5eLAeC79ioZFMoEyDS8Y4SZHCG9+H5Ma93t1AldhHXozybhF0gFB51a4dgFLCFdolr0SbehGOFGMExVfjdqXa1AbD+oLYAAxcsdw11YK7Ooz0621Kylco4eNwcHWAwpzunsp7BNiJBpyAxgqFDh1bLmlIky3JRRSSFxbmfppSoH2t7ACFYuy2Hl2DogQiOO5d3YKhe331aNrZGADSOB4wopLgAdzDKmvPFHOp1em/AwCgErBC0Dnbsofaqm+YBDPEFrmlttlTOfpcuV4KhB5LVzMfPR1fUb0SJDzgpntqu9fOd/JL/fwxTjdPo6lFvwEDowBcaClhpAx2Ooh1AYb2EW2waqdUKweyYEgw9kGP4amP7vgsIObmeejVKcxAEEYKVw7hPvIGhWK/TewMGo98BpxGW1h8yrZySm1O0i4Ho/16wM0wp7ol38kl79He8oeXBYKGHJR71YqPR/MxvJ5R65EBQxll0uhwDAq9HvQEDAXMT7b9QVn+IKObHD9cSLeF51iXYEjkY2DoWwfqTWh4M1HpE7TAg0Ag6rt4ID7IyyD2MTpeZ9Mgjjwy/+m3qDRiQDOg8LM1uEXauR9prKgMYq6w5GKzC5mdi9ge1PBguu+yylIEc9Qri2BdJI/QEBoEerl7cy60z7dSj3oJBO/JzsO2bsOj1XaTN2i5GwruJe8UsaLL+pJYGg45j/duLEJ1mexxjcURIfqI4Q7RZQovNNfWot2CwITc/GpkxKwO7J/Je3iGf/kRCgbc/qeXBIOrHdYx6rTKOaCxfzkIOBvYDMNTTKL21GYTBAwyA2hsweAdaLuri9gJvf9KAniYcApovbllZlItQj3oLBsZtTBN4RKYJ7WY3MD7zBBm2h7zJ/qS2MCDzUDQDcocddqibWZQTAzLyFd0rDCzDuR71Fgz+s05uQK644oo9GpDAYAVWtla0yycDckS0yv9CLQ8GHV7rWsoSEsRRtw6upyGMNNogOj1cy3rlewsGq40xhalDkgx3tzsKIACL9ZE86wlbNZVF1Z/U8mBgYTP8ot5gqe7CvzKF+O/dkaCTYE7cw34ArnrUGzAQrGSVUPXAYAtevViBxS0Bsk022aTLOkvcKxWvDDr1QMLRuUrNWWhXdFJY2FzdXTjavVHedGMRqR71BgwAyLiNcLQlaUk1OhyFJhAdFT9wEn5kXGWCSOw3C2rR7v6ilgeDTq9dqMpZR9ISG2ywQcpNsOQcApHs6v8/R1nuG1e1HvUGDIR8/PHHp35QFijkWhrdhCr8LEkWCKyt5AtVtWDA5ULVCJDRdfbZZ3fJiNap6o/OjfbwOvzLYy9sDYJBFlvqlPEMySk0SHfUGzAQ9l577VUta73hoIMOSjbB1Vdfnc6L4soCatSPa9uNhablUpRg6IF0kBBypKZH3WwB6wKRMeTlsGuRiyjiyE6IMjrBmoZ5PZaaPT+E8F1giHLuca+QsphHlKW5eC7C35F76fdoV5QRWlcuT5tzj+X2aEd/UVuAwUv4f1b5iKKSWfMMMucteMHaEVfL2kwQ8iWpZauON954Ywoeif6ZZvJ1EJlS0tQEr8QUJLiKe/gXiRJocoDWcnS2Nhn5PCIusfoYmtriOlAAKE3T39QWYDAahw0b1mU0CSZJHuHKMQoJh+toRNYDhd+DtV9Z2oWPz7ijFQguytMw8bu1Awm0bIP8Ofnzc3aNp2GqGDp0aMq8opEAygpllKPBBKDC+O1PankwBHEhCSUEoKOPOeaY5LLpSD66edemVtqC50Ath9Cyl+8XVoc+ASbt9J/6aRpBLiDQRoEytkQAzj36kNfTCGobMFCj+++/f1U7qF/8Qcg55n6frHwp6WIMNtHofOsHOSDc6zl+i/epx3kZ33F+b/zm+D/7OIxywHU2JE9IuzA7w7kNprR4Hq10+umnJ0A3gtoGDARt7rZBJQRhhAk81UsoIQQCUSZ3Ta1vyI0Ug5AJJVYh18GUkE8TtA8hM0Qd9sVTkalk1HNTldEWfRH/hrk7Ve83C1Prrrtute3aIxnGVOe+RlDbgEGHUrc23uYRPNPBpZdemkZXd4LQ0YJD7glBWF1ka9iPQXULWEnHv/jii79lQMo7sNJpydlUpEMFkfIFKi5rZDfXtsHfACl5NjwMLIyd/5PWRlDbgAHpNOFpbmUIVjsYaZJWujPC/G2lMj/PgSHIXa0tOyJxBvfwKAKQnklz1FuT0CbGY/5c99ASI7LYNjKprcCAjCS7nPjyOhWbw0X54rykWiHrBCeoRNvdc+SRR/YJDN7XNBHTjn6wo7vWNfRsbTW10UTKRXtpFa5so6aHoLYDg042JdiSFm4kNtfb8mYONhpzco+4gjZru/JWM43MHBA9gcFz82N8lAHK/BifIFMDIACpzo9nipKWx/iMJNKBWE5AHAJKMNpDdVvwMf/nU4ZP00jsjVSeJS/olAuxJzAY/UcddVSXKUISbGzBCzLijXxAiLiE8u4T8KLB4j0aSW0HhiAqWJoYCz9GPOYBiPCxCQIQhMP4tMmFYLAOEY8w14dQegIDkElgCeHKSbAeEcfxYO0SrdSu3IMBio033jg9T5lRQW0LBh1PFet4QssDTL7LahKu1j5gUFbWVNga3oFR6TwHwvG8emBwjedhkStPSjFdCGUDHTbtOO+JOxrxEHXp/DilpTubplHUtmBAOpUQqGQjNh+JhEDwQ4cOTdepeL5+HBccZWQn2aALEN3twgYGAhTcEkYOILFRnOnouc6aAkrP5mbqmyhHU8noFmXMp6RRQW0PhgAEP5+7ZuSGIDChCSrJPeCW0gQRkcTWH3gDopb1tuRbUTSlhJAxYNxzzz1pqhL7yE+EDRZLsDhlehmVGiGorcGQk5Gt043W2GcRTDDyCsQnCEcYO9ciygPL7bff3uXoP2AAEJ5LGI3Yu9ModnaJXOaJK8FWNAWaaKNRZSPU0oABAwpDURyCzZC7ntrsk6bILfxgo5j1n6fli27yFgSpast7tk71PTpWnwCGlHnJNbUHhY5qGlBgoIYBAstyov6p79pM5FrOhYnjdwCoBUF3rIzpxvqFfzEs28nUpR3NRAMKDCjsCILQNoad5BHrDLRCdwLWMbi7a7Uc16MsA1Fms/+HZbnaqqm6ox3NRAMODDkRhhFqOVk0kGvIxbPvoieh1+PoRKuWju3jSopp6IdmE34tDWgw5ERQkesgGnnOOeckV9Aik5VKRiSQmPONduxvzEXlgTAoGY2SVqxcOpgjYhStQCUYaojgwq6IqUQMQMDJGgNBO3MSc0MFrsQphL8ZhHFfqwAgp5EOhlCvPiWHsN5brWO0N9qcf+a/19J3XWsF0nZg3nvvvatuNRlWBnXfwFBRpR3UZwCC4dTIg7BL6jvRZtZh/IMWWp38GNQVmfYNDBtvvHEHq9yDsPlUXkD893jzJ4Ot5OZhMrEuw1aSEZafNCOOMmTIkL6B4c477+ywBAtR8UCRPXsMWdUqK7n5WDofueUBtbD5KjLtGxgqBkiHQ61ohzxDGDNKRPZKbi6OiGvIicyw/RoM5IqH1TcwVFROh1W6Sy65JC3/QpcHh2UaFZXcXFwLBNFS0/vw/Rx9A0PFUOxgjPDXHXDJ75YxBHl5pSU3F5MND8IaizUbaf2W3Ycb/n0DQ+XGBSoP6KxYpp0VRHW++OKLnYcddljn4MGDOyvTRGdFQ5TchFwBRGfFWOzcfffdOx9++OHOynSf5EeOFXluMFy8JZVUUkkllVRSSSWV9L/SaKP9H1NMnsnYVjHzAAAAAElFTkSuQmCC;fontSize=16;" parent="1" vertex="1">
          <mxGeometry x="191.41000000000003" y="410" width="94.41" height="80" as="geometry" />
        </mxCell>
        <mxCell id="EnO2U9nMXVYCDqS1bMv6-103" style="edgeStyle=orthogonalEdgeStyle;rounded=0;orthogonalLoop=1;jettySize=auto;html=1;entryX=0;entryY=0.5;entryDx=0;entryDy=0;endArrow=none;endFill=0;fontSize=16;" parent="1" source="EnO2U9nMXVYCDqS1bMv6-93" target="EnO2U9nMXVYCDqS1bMv6-90" edge="1">
          <mxGeometry relative="1" as="geometry" />
        </mxCell>
        <mxCell id="EnO2U9nMXVYCDqS1bMv6-93" value="User&#xa;(Patient)" style="shape=image;verticalLabelPosition=bottom;labelBackgroundColor=default;verticalAlign=top;aspect=fixed;imageAspect=0;image=data:image/png,iVBORw0KGgoAAAANSUhEUgAAAE4AAABVCAYAAADnu9JFAAAAAXNSR0IArs4c6QAAAARnQU1BAACxjwv8YQUAAAAJcEhZcwAAFiUAABYlAUlSJPAAAAT3SURBVHhe7dx56GZTHMfxn33f9+yUfSmUUJKQbRIzyBpRskcif0iKP4Qs8Q8hJUWkyE6WbFmyryH7Lvu+vt/1m5r0fXJ/zz33eM6591OvZpqZfuc5Z+69Z73P1JAhQ4YMGTKk0iyPrbEL9sSO2BCLYsg8WQjb40ycg2vxEr7GL/gID+Fi+PfHYB30OrvjDryK3/B3A9/gCVyO1dGbeIVtgZthI0SN08Tv+BSnYFnMh2qzAE6Ct1/UGOP4C161m2B+VBcrdTKiyqdwH3ZAdbHR2tyaTbyATVFFfKadgO8QVTYlb1s7jg1QfByHfYGool2w8ex4VkOxWRC3I6pgl37CYSi2s9gDUcVycBC9ForLwngaUaVyORjFZW98gqhCuXyO4gbGl8LRfVShXHzWFTUt8za9HlFlcnL+ezSKiXPRJxFVJjenY8VkFj5EVJHcHkExORBfIqpIbkU1nMMAFyKjiuRWVMMdgOGKGyPuFbyHqCK5FdVwLio+hqgiOTnhvxXFZBHcgKgyOTmOOwJFxc2USZg5rIqi4jrcB4gqlMvLKC6u/D6KqEK5uCZXZOxdowrl4NW+PoqMk3134aOKdel7HISitwvddXoRUQW74LGJK+AZlKLjJvT+eB9RRVNy3PY4NkMVWQqn41tEFU7FLUgH31XFHa9D4XJ2VOk2HOi+i81RZVz/t6d9Cn8gaoSZ8iq+DtXs4I+KjbclLsNXiBqjqTfhlGol9CYezdoOV+FnRA0TsQPwtNOpcIm+uiyOVeDpybVhBxFt1TnDWBJb4Ta8Nu11vDH969w/OxfLwJ9tbx3FZ6nHH9bFmlgOo/7txMRG8OzuIbCS9+IdeEt5a7rX2mRQagM7eF4MNkTTvVEbywM+DrpdD3wePv+Ow37YGBMVG2xXeE7X8Zq3U3SbfYazkXoqZPnOFO7En4jK/gEP4wxMxF6rt6AfxuFAk57S59lz2BcpbiEfBxfBY62j/sPm9SNcfNgJTa/k5PEZ4rNnnHW3X/EgvH1mOj3yNrZsD1/7HzHO0Mby3cbMPp/1gX83og81E14B7vp7q7mGtzSieHWsByt7GrxqR92WTdl4+yBb4y2B8+EKa/SBxmEl7ER8mF8yzQ7mwunf27ncg9S7Z3ZeuyFL5qCLqdO/OZVqe1X9F3/+Tei8w9gIHtqLPkSpbDyHMQ59OonPmRPRpPcqzdvwud1J7M0+RlRwDY5FJ3GBMCqwFm+hkzyDqMBaOEpI/o6Eqxm+5RcVWAs7CfcrksZJsnPNqMCaeEjHuW+yeKQh1artJHsWTueSxPGNI/qooNq4WJDs/Yg1cBeigmrjGPUCJMk28BKOCqqRy1RJshdybChPChcVkqyY+JKFqxdRITW6ESujdY5HVECtXGJPsj/Rt4ZzkdTneuv0reFegXu+rdO3hnOJyc2c1ulbw/kemtudrdO3hnMze2e0Tt8azq2BbdE6rozWuFw+ygNIsi43Gzl2tSbF1fAgUOu4EXw/okJq46mE85AknvHwC/H6cLu6KZ5kDDc3HqHyvFpUWC1cOr8GyXMWogJr4S7XCkge1+I9yxEVWjq/oq3Td79WxJWo6XnnTOFI+J5tp3EPwsPLDhRL3sDxCxduQfb3Ixwk+lVAfs2iR++7PlmUgieg7Dk9k+fA/n97Uc6CHee57+rlftSEOxyufIw6wDhkyJAhQ4aMm6mpfwDb6WpD8NcbpQAAAABJRU5ErkJggg==;fontSize=16;" parent="1" vertex="1">
          <mxGeometry x="26.560000000000002" y="150" width="55.06" height="60" as="geometry" />
        </mxCell>
        <mxCell id="EnO2U9nMXVYCDqS1bMv6-104" style="edgeStyle=orthogonalEdgeStyle;rounded=0;orthogonalLoop=1;jettySize=auto;html=1;entryX=0;entryY=0.5;entryDx=0;entryDy=0;endArrow=none;endFill=0;fontSize=16;" parent="1" source="EnO2U9nMXVYCDqS1bMv6-94" target="EnO2U9nMXVYCDqS1bMv6-91" edge="1">
          <mxGeometry relative="1" as="geometry" />
        </mxCell>
        <mxCell id="EnO2U9nMXVYCDqS1bMv6-94" value="User&#xa;(Patient)" style="shape=image;verticalLabelPosition=bottom;labelBackgroundColor=default;verticalAlign=top;aspect=fixed;imageAspect=0;image=data:image/png,iVBORw0KGgoAAAANSUhEUgAAAE4AAABVCAYAAADnu9JFAAAAAXNSR0IArs4c6QAAAARnQU1BAACxjwv8YQUAAAAJcEhZcwAAFiUAABYlAUlSJPAAAAT3SURBVHhe7dx56GZTHMfxn33f9+yUfSmUUJKQbRIzyBpRskcif0iKP4Qs8Q8hJUWkyE6WbFmyryH7Lvu+vt/1m5r0fXJ/zz33eM6591OvZpqZfuc5Z+69Z73P1JAhQ4YMGTKk0iyPrbEL9sSO2BCLYsg8WQjb40ycg2vxEr7GL/gID+Fi+PfHYB30OrvjDryK3/B3A9/gCVyO1dGbeIVtgZthI0SN08Tv+BSnYFnMh2qzAE6Ct1/UGOP4C161m2B+VBcrdTKiyqdwH3ZAdbHR2tyaTbyATVFFfKadgO8QVTYlb1s7jg1QfByHfYGool2w8ex4VkOxWRC3I6pgl37CYSi2s9gDUcVycBC9ForLwngaUaVyORjFZW98gqhCuXyO4gbGl8LRfVShXHzWFTUt8za9HlFlcnL+ezSKiXPRJxFVJjenY8VkFj5EVJHcHkExORBfIqpIbkU1nMMAFyKjiuRWVMMdgOGKGyPuFbyHqCK5FdVwLio+hqgiOTnhvxXFZBHcgKgyOTmOOwJFxc2USZg5rIqi4jrcB4gqlMvLKC6u/D6KqEK5uCZXZOxdowrl4NW+PoqMk3134aOKdel7HISitwvddXoRUQW74LGJK+AZlKLjJvT+eB9RRVNy3PY4NkMVWQqn41tEFU7FLUgH31XFHa9D4XJ2VOk2HOi+i81RZVz/t6d9Cn8gaoSZ8iq+DtXs4I+KjbclLsNXiBqjqTfhlGol9CYezdoOV+FnRA0TsQPwtNOpcIm+uiyOVeDpybVhBxFt1TnDWBJb4Ta8Nu11vDH969w/OxfLwJ9tbx3FZ6nHH9bFmlgOo/7txMRG8OzuIbCS9+IdeEt5a7rX2mRQagM7eF4MNkTTvVEbywM+DrpdD3wePv+Ow37YGBMVG2xXeE7X8Zq3U3SbfYazkXoqZPnOFO7En4jK/gEP4wxMxF6rt6AfxuFAk57S59lz2BcpbiEfBxfBY62j/sPm9SNcfNgJTa/k5PEZ4rNnnHW3X/EgvH1mOj3yNrZsD1/7HzHO0Mby3cbMPp/1gX83og81E14B7vp7q7mGtzSieHWsByt7GrxqR92WTdl4+yBb4y2B8+EKa/SBxmEl7ER8mF8yzQ7mwunf27ncg9S7Z3ZeuyFL5qCLqdO/OZVqe1X9F3/+Tei8w9gIHtqLPkSpbDyHMQ59OonPmRPRpPcqzdvwud1J7M0+RlRwDY5FJ3GBMCqwFm+hkzyDqMBaOEpI/o6Eqxm+5RcVWAs7CfcrksZJsnPNqMCaeEjHuW+yeKQh1artJHsWTueSxPGNI/qooNq4WJDs/Yg1cBeigmrjGPUCJMk28BKOCqqRy1RJshdybChPChcVkqyY+JKFqxdRITW6ESujdY5HVECtXGJPsj/Rt4ZzkdTneuv0reFegXu+rdO3hnOJyc2c1ulbw/kemtudrdO3hnMze2e0Tt8azq2BbdE6rozWuFw+ygNIsi43Gzl2tSbF1fAgUOu4EXw/okJq46mE85AknvHwC/H6cLu6KZ5kDDc3HqHyvFpUWC1cOr8GyXMWogJr4S7XCkge1+I9yxEVWjq/oq3Td79WxJWo6XnnTOFI+J5tp3EPwsPLDhRL3sDxCxduQfb3Ixwk+lVAfs2iR++7PlmUgieg7Dk9k+fA/n97Uc6CHee57+rlftSEOxyufIw6wDhkyJAhQ4aMm6mpfwDb6WpD8NcbpQAAAABJRU5ErkJggg==;fontSize=16;" parent="1" vertex="1">
          <mxGeometry x="26.560000000000002" y="290" width="55.06" height="60" as="geometry" />
        </mxCell>
        <mxCell id="EnO2U9nMXVYCDqS1bMv6-105" style="edgeStyle=orthogonalEdgeStyle;rounded=0;orthogonalLoop=1;jettySize=auto;html=1;entryX=0;entryY=0.5;entryDx=0;entryDy=0;endArrow=none;endFill=0;fontSize=16;" parent="1" source="EnO2U9nMXVYCDqS1bMv6-96" target="EnO2U9nMXVYCDqS1bMv6-92" edge="1">
          <mxGeometry relative="1" as="geometry" />
        </mxCell>
        <mxCell id="EnO2U9nMXVYCDqS1bMv6-96" value="User&#xa;(Medical Staff)" style="shape=image;verticalLabelPosition=bottom;labelBackgroundColor=default;verticalAlign=top;aspect=fixed;imageAspect=0;image=data:image/png,iVBORw0KGgoAAAANSUhEUgAAAE4AAABVCAYAAADnu9JFAAAAAXNSR0IArs4c6QAAAARnQU1BAACxjwv8YQUAAAAJcEhZcwAAFiUAABYlAUlSJPAAAAT3SURBVHhe7dx56GZTHMfxn33f9+yUfSmUUJKQbRIzyBpRskcif0iKP4Qs8Q8hJUWkyE6WbFmyryH7Lvu+vt/1m5r0fXJ/zz33eM6591OvZpqZfuc5Z+69Z73P1JAhQ4YMGTKk0iyPrbEL9sSO2BCLYsg8WQjb40ycg2vxEr7GL/gID+Fi+PfHYB30OrvjDryK3/B3A9/gCVyO1dGbeIVtgZthI0SN08Tv+BSnYFnMh2qzAE6Ct1/UGOP4C161m2B+VBcrdTKiyqdwH3ZAdbHR2tyaTbyATVFFfKadgO8QVTYlb1s7jg1QfByHfYGool2w8ex4VkOxWRC3I6pgl37CYSi2s9gDUcVycBC9ForLwngaUaVyORjFZW98gqhCuXyO4gbGl8LRfVShXHzWFTUt8za9HlFlcnL+ezSKiXPRJxFVJjenY8VkFj5EVJHcHkExORBfIqpIbkU1nMMAFyKjiuRWVMMdgOGKGyPuFbyHqCK5FdVwLio+hqgiOTnhvxXFZBHcgKgyOTmOOwJFxc2USZg5rIqi4jrcB4gqlMvLKC6u/D6KqEK5uCZXZOxdowrl4NW+PoqMk3134aOKdel7HISitwvddXoRUQW74LGJK+AZlKLjJvT+eB9RRVNy3PY4NkMVWQqn41tEFU7FLUgH31XFHa9D4XJ2VOk2HOi+i81RZVz/t6d9Cn8gaoSZ8iq+DtXs4I+KjbclLsNXiBqjqTfhlGol9CYezdoOV+FnRA0TsQPwtNOpcIm+uiyOVeDpybVhBxFt1TnDWBJb4Ta8Nu11vDH969w/OxfLwJ9tbx3FZ6nHH9bFmlgOo/7txMRG8OzuIbCS9+IdeEt5a7rX2mRQagM7eF4MNkTTvVEbywM+DrpdD3wePv+Ow37YGBMVG2xXeE7X8Zq3U3SbfYazkXoqZPnOFO7En4jK/gEP4wxMxF6rt6AfxuFAk57S59lz2BcpbiEfBxfBY62j/sPm9SNcfNgJTa/k5PEZ4rNnnHW3X/EgvH1mOj3yNrZsD1/7HzHO0Mby3cbMPp/1gX83og81E14B7vp7q7mGtzSieHWsByt7GrxqR92WTdl4+yBb4y2B8+EKa/SBxmEl7ER8mF8yzQ7mwunf27ncg9S7Z3ZeuyFL5qCLqdO/OZVqe1X9F3/+Tei8w9gIHtqLPkSpbDyHMQ59OonPmRPRpPcqzdvwud1J7M0+RlRwDY5FJ3GBMCqwFm+hkzyDqMBaOEpI/o6Eqxm+5RcVWAs7CfcrksZJsnPNqMCaeEjHuW+yeKQh1artJHsWTueSxPGNI/qooNq4WJDs/Yg1cBeigmrjGPUCJMk28BKOCqqRy1RJshdybChPChcVkqyY+JKFqxdRITW6ESujdY5HVECtXGJPsj/Rt4ZzkdTneuv0reFegXu+rdO3hnOJyc2c1ulbw/kemtudrdO3hnMze2e0Tt8azq2BbdE6rozWuFw+ygNIsi43Gzl2tSbF1fAgUOu4EXw/okJq46mE85AknvHwC/H6cLu6KZ5kDDc3HqHyvFpUWC1cOr8GyXMWogJr4S7XCkge1+I9yxEVWjq/oq3Td79WxJWo6XnnTOFI+J5tp3EPwsPLDhRL3sDxCxduQfb3Ixwk+lVAfs2iR++7PlmUgieg7Dk9k+fA/n97Uc6CHee57+rlftSEOxyufIw6wDhkyJAhQ4aMm6mpfwDb6WpD8NcbpQAAAABJRU5ErkJggg==;fontSize=16;" parent="1" vertex="1">
          <mxGeometry x="26.560000000000002" y="420" width="55.06" height="60" as="geometry" />
        </mxCell>
        <mxCell id="EnO2U9nMXVYCDqS1bMv6-97" value="" style="shape=image;verticalLabelPosition=bottom;labelBackgroundColor=default;verticalAlign=top;aspect=fixed;imageAspect=0;image=data:image/png,iVBORw0KGgoAAAANSUhEUgAAAN4AAABQCAYAAAB23csfAAAAAXNSR0IArs4c6QAAAARnQU1BAACxjwv8YQUAAAAJcEhZcwAAFiUAABYlAUlSJPAAAA4ZSURBVHhe7Z17cFxVHcd3N7QVqDIqr5ZCG0TB8lBBBKTN7vIQBIFammxCeVlbFBFFRARBUmh5tKVTAaVpNqGlRZipM+roCBQcTJsNoLyGhyg+UJjxf8cHFTZ7r7/vNqdz8svv7r27uXf3bvf3nflM23D3PsLvk3PPPefcJDQajUaj0Wg0Go1Go9FoNBqNRqPRaDQajWZycZMdQ84pmUJpRWa49JOO4dLj6UJpIL3DXZD+jbvX2EYajSacuMn5253TMjtKT2UKrivRURh9jbb57NgHNBpN7XGT6WH3jI6COyTJxplXKP6v4xlnIT43tgONRhM8biqz3TkrWxgdhlDZCnD5MkPF90jWTpVPowmaXjeVHXLOSQ+PjkiSBSWzvfhepuDkVD6NplJIuI4h57zs8Oizkki1USymR5welU+j4SHh6Jbyguz20edkeSZLsZh52lms8mk0SKfbRreUC+mW8gVZmPCYP1wczQ47l6p8mtYNCZfe4SyiFu4lSZKomF8ojqYL7uUqn6al0rmVWrhhpytdGH1ZEqMepIeKpeyIsyThNr18XyCWVclS4jKiizibOJE4hGgjNHtaeqkPN++Jf/dkhoqvZrYX8bSxQYy62R2lsnzpgrOsyeX7KrE6JFYQEPJTxBRCsydk5g3bLjt2zYhzwNLNrj9byhwYErv2t2vf+xMHXvGQe+i1P3Pnrh0pnfzjt77SxLedYYpns5xAa7gPoWnadG5t2+eKh944ads77v63FdxUd96Ttu6ByJCON61nY2nfpQ9fRWfZjPJFJZ4BAp5MaH94fN5HvJ8Rv7uEVC5/0fRlm52Tntjpzn2U5FsxMkEASZSo4MdOda93UovyX6dTbbYCk8S7y4dVBP+MH0uI6YRmVxYR/PuIucExqp/e3lQq1//K9GUPu0Y8cMDKp3cXviRH1IwXb0y+7sFv0Bk3k3ySeO0EHpR4gZUb+In9YeKjRAeBvt1Kgu/L5rvE/oSmGcRry+UXoqi5eGX5bn9GlMKPvXomIm3nhyxf/lt02s0inyTeYUQtmUqcQOD6+T4NNxEqXxOIl6TbzOdR1JJ4Rz/2jnvQHc+KUthIovkh7UdivHigz0nlBq7Due+6hFgnTPFMcN0nEbcSfN/gO0SrP3SJt3ht3X3njrUiE8SDdIaD7vytKIUkVLVI++WI8nXlr6dLiLt8UYhn8iHCq/W7mGiGH0xRJd7ipbr7R0wx2+LZ0u2W767fjZNBkqhW7P16MV68MXKDN9BlxLnAohQP2Zu4muDHAJ8gWjXxFa8tN3C6ae2An3jg4FXPlSWQ5AkDLhtnnHSGXJ76NbEd54taPARPM28k+HHwtVYdaI+veMnu/qfsAjbiScLZzFjzvChNWEjCGezzHUcuf0tM5auHeMjhBIYi+LFqKTaMeR1NZInziQuJLxKfJ04hcCw86KlXUgSe9uLPoImpeD0b5tmtHSiL92Rl8Y4ZY8bd/vJNuWhwHNI2XkjSGexztknm8stjKF+9xEMwt5MfK+hDKLSMGIjHWCkvWInbCQxxHEVUk4OIWRaYg8qD4ZRPEosJdCXuIHBO+PNMgl/PAgJ9Wht8jp/zNwm+neEMIvraodbuUV64EO/kCuIZ6Qwz174wQRgumxf8cxxJOAM/b5tEZ35FzOSrp3gYRpBavdlEpRxPYBiCfy4ouMYDiSC5lrA/i7FJuyXDuXyPsLexOY/g/38lyarlCiLiuunacGKqM1/iRVtJPC6dYebaF8uiSHL5wWXjSNIZ+LkbqNVzk12D9NM4NvLVUzwEKxv48c4hpO8HWrmLCL59LWAC98cJv3iJh1vJHOHX2javeMme/E+loq1FPHDIupdEsYIgCWeQhDNI5w/K4hGJrjz95I+FfPUWD7eLvHjx1JN/LyAdis3eToL6zuVxQRQ3bi+lbQy4FTyCqBQv8dCPDHKL26TideePo77dqFS005c9IoonycaZ9YOXRbGCIElnkKQD0vkbjHzJrv41iURvNR3yKFJv8Q4geAFDCP50E62LvY0NWk30sfggPL6XMwmsisDkbOmzELXSnFFJvLlEEOmAJB7O99sMaXLB9wm+naGTiE486ts9IhUrmIx4YNY9JN/iB0S5/JCkA5J0u5CvARjx2jrXu3ufv/LTY5feqNRbPBTPbQQ/5sGECbZBAfP+IOZ6foQIkn2JSwn784aFhFcRc/HuJFD49tcgI/bxMQJPWM0cVgi9HxEkMXqq2bPhqFR3f1EqVjBZ8cCse1/ZLd9UCy4aR5LOIIvnf7tZFm/BXZ8Zu/pGpd7iIdcQ/JhS/wtDBr0E/jsmn0OmaoIillpO3JJ67YuLx/kSEVSuSomPeMnuvo3lqVZCsaKQwxAPHHrvq+5Uks8WL4iAknSAC2eQrgOoeIkvE/yYXi3/Bwm0XB8o/6v64BYWU/ek40lFXkk8SBxW1yAm4i0cPDyZW/+uVKgAhSyJJ4nlx7HEYfe9JsonCWeQpANcOIN0HUDFK49L8WNGWXSYsM2L3KvP5CUeHgCF+Yts4iFeMjfQl8zJrR1AIYcpXlm+H/6+Kvkk6QAXziBdB1DxygPP/JinElEVHW4NeZFfSVQjXtjfkxiIt2j9IclF63eiGKVCBSjkMMQz0hlm/+j1CfJJ0gFJOsCFM0jXAVS88owSfky0SlEVHfaLcTz7eF4zZiTxonitRwzE6x64Ga1dPcQDE+S7/3V3miWfJB2QpANcOIN0HUDFS3yN4Mc8jvALnhxiHO4s4nICD2kwiwSP4THhGv/Gww8MyOPBDFZGmJiHNAY8IQ0qXhTTtRovHhXhM6YYpUIFKOSoxCvLt/4PZfkk4QySdIALZ5CuA6h44pSrOYRXMF4H2SAY/1wlMBSAd70cSUxGPEgcdmIg3oV9/6hVvHDl+6M79eKNonRAkg5w4QzSdYAWFw+tEB+fQwF6DWrjHZ1cmjCoRjy/uaS1JBYt3vN+4oEwxQO2dOZrs/tk+SThDJJ0QLoG0OLiYbUALzi0gFLB4ZaRbxsW1YiHVQphJwbidQ2uNn28SvKFLZ4Xsze8MUE+STggCbcL+RpAi4t3AcELrofgBZcmvKTDLSfW36E1xLliGhreeDaDgNj4LPqAmGEifR6oeIlF+SMwhhcX8cCc/j/tlk8SziBL593agRYWD+NgmCvJj4elNnYgEuZv8u3QZ8PiVz6v0yvTCEzKhmR8XyoeQoW43O/JZq2rE2plTv7P5ellknBAEs4gnT8w0rWoeNJANlolvKPTDorS3gagX4jJyrUEwvP5oSpeOb29KUwZqzSIXm/xQFk+avlUvEkHckmLWfkMEvxdWlmAVzzUWpQQD62lvT8Vb3c6t7Ylc/2DXvJVuwI9LOYM/GWCfJJsBuncDS0sHgTjx0ErxleGY5U6L0iAPlytgTh8nyreuKDly/XnpcnSEC/oO1fCpn3wr+Pkk4Qz8PM22NK1mHjzCEkmLC7lhYZlP3xbDCdMpiA/R6h4vinLN9DH5SuLF+AtY5I4YWDkk2Qz2OfLaVHx5hN83A7cTEhLczAzhRek13BDkOABizTwruKJKff5Bu635TPiVXqvpkESJwzmPPAmybdJlA7Yotlw6VpAPPTppLeKAYiIRaRSsIKcFyT6ZxColqBvyPcH4igentg2WLxy3CTJd5+Rb9+lwcUDkji1Yu+3fePfRPm4bDYtJB4eZOCaKr0VDLeeXgWGoQLp3Sm1TKLGMIXU2oJGi4dX/nHxsN4vDuIhJF/PwD2Qb58lW9xTqI8H8eopn7RfLp8km0GSDuxB4kEWvEQWv0/dbz7laYRfcWGiM/8c+nkY3wsavNiWP8m0abR4+D5w8XCNtbbsUYTky+XXTVnc75y67T+7xQsqH5CE8kPaj037pr+7Uy7ZJMpmw4UzxFg8rJfDLZoXmH2Cp5SYHYJClQa7OWjFTiSCRJpWBjD47jdhGS+kxXnZn4OAfH+NFg+32tI1YrW9JF+lSeSRhuQbuPuELW86tnjVyGdTi2gS7ZvecveqIJ8knCHG4oUNluug71ZNuDw22B+eVOKXnkBSLCk6ncDiVqmY8YBnMqsTohAPS5y8bsfxAwb9Y7wtDVPj8LIlnH/D3kiXPPK+F1cd88t/hSLfZDHH9pJPks2mBcRDAaE/hyKrNlgKhMWq0n6rAQ8xIFjcxENwByD9oJBoqHjlHPfzf66a+4vGyseP3f7g2xPkk2Sz2YPFw/tJMEdysr84BK/OkxbNBgEFjTV8pljjKB6CW/Yg8jVePGTur3aulOQDkihhIR3P0L75bXfKpQ8Gkg7sIeLhlQq49cMTOTx5xC+jDDNoLfE71rk4lcD54GGPnbiKh3M4k/DrJ8dDPOTYx3beevxj/3WOf/Jdl3MC+HW4SMfhzH3krdLUhesemrpg3WZ/1m6edvbqoC9ojSoQBQ8kqgHTvPDaPYzVScUbRczvV7+EQN/IbiXwd7z6AfJjtbl0TjhnvDTX4PWEFL/qq5sR9g8TKZgSdy6B19HbQyC4NnwNfdp6fa/9kyk4t2SHik624LpxIL29WEpsdWvp02iqC4YwcCuK920GXSbULMH14M1o8b620wrOTXGQL0OoeJqWSnbYubFR8kE4g4qnabnQbef19ZbPlk7F07RsqOW7DsUvSRImXDiDiqdp2WR2ONdGJZ8km42Kp2nppIeda9JD4cgnCeaFiqdp+WSfdq6GfFwOSS4D37ZaVDyNhpIZca6S5IsKFU+jGUu64Fw5v1AclUQJGxVPo7GSHXGWdAyXHk/vKG2LEhwj4brxmFOn0Wg0Go1Go9FoNBqNRqPRaDQajUaj0Wg0Go1G0zpJJP4P6H+A87IU+HEAAAAASUVORK5CYII=;" parent="1" vertex="1">
          <mxGeometry x="182" y="1365" width="138.75" height="50" as="geometry" />
        </mxCell>
        <mxCell id="EnO2U9nMXVYCDqS1bMv6-98" value="" style="shape=image;verticalLabelPosition=bottom;labelBackgroundColor=default;verticalAlign=top;aspect=fixed;imageAspect=0;image=data:image/png,iVBORw0KGgoAAAANSUhEUgAAARAAAABOCAYAAADo+UkmAAAAAXNSR0IArs4c6QAAAARnQU1BAACxjwv8YQUAAAAJcEhZcwAAFiUAABYlAUlSJPAAABz+SURBVHhe7V0JdBTHmYbNtUnWzr1ZJ/FzfGwOO4njGCNAQqNzJAzYQCDYiEPSaIRuIUDiMghdOOQktvNiENgcAmwgGNDlxM5zYogTr5NNDJIAcUggJGzHS3AcO7Z6pmu/f6Zn1Ef1TM8wQmJU33vfm5nuquqjqr75/7+qq0cJCAgICAgICAgICAgICAgICAgICAgICAgICAgICAgICAwC8vLyvpGbmzujsrLy35RNAgICAnzMmjXrA9nZ2eNzcnLWZ2VlncSnDD4PEfmQkkRgJIH+OSY/3HSLfV3zFPu6ZxfZa1t/klrTsjO1trk1pab5xdSqxj8kEasbjySuPfhcUuWBfQlrnvlF4ppfrk5YtXeBbeVT42wFe/5DKU4gyuF0OidlZmb2QzSYikJARhLSf9byEXtN82x7bfOe5LWH3rDXtTIeISIspaaJJVc3suSqQyxp7UGWWHmAJawBV+9ntod+yeJX7WMTK/a+H7dy769jV+yeMaqSCVM2iuFwOO4VAjKCYa8+NM1e03KOJxhqpta2QDyaFfFoVInHM1rxWLnXw7gVe1jc8qfZhIpdRxKX7r4VhxrtPaJANEEIyAhGWm1rjn1do8QTDDUHxAPWh0c8DkE8DuosjwEB8YlH7LKnICC7SURet61s+PaoUUyISJRBCMgIRXply5dSqlr/oRGLqkYZYtGdVHfoLb14pKjEIwnikUjiAevDIx5q60MnHuPLd7HxS3eycUu2n49bseVzyuEFogRCQEYoUmpbliXVtbgHhOLQ6fSHD9xFVkJ68c8+klLTsiaxttmdqhMPsjx8rosN1oepeCyD5UHiUQ7xWNoAAdnB7inbtmHWrD0fUE5BIAogBOTqo6Cg4L9wjx2gk6hsvrqwVzfvJ4vDJyCT6ppj9S4GXJZDKZUHZI94aIKmXvEwxD1IPJYr4lGhFY+YxdtZTMm2y6lLtn9cKV5gGGHBggX/jsY4HYKwb+HChf+NTZbcTSEgVx+oq09mZWXZcJ8znU7ni8rmq4uUquaX7dVeAUmqbX3r7o1/MlR4clVTia36kDtJFzQ1Fw+yPvTi0QDx2MHGlm1jYxdtxfctcSIWMnyAhhgHEdiExvh/KgG4A7uEgAxzzJ8//w7c//3Kz6sLe3XLMXt1k9cCqWrqT1733GeUXX4kVx2stVVBQDyui1c8NCMuioBQ0HRAPNRxD694xJRth3hsY/eUPsnGlz45a5SYpThsgM7eDtLkL7UACAG5BjCkApJS29TmFxAwvbbpx5WqORv2mmduTKo81Dcw4hJMPJQRF1Px2MrGQEBiSjY/IARk+ACdXQjINYphJSDE1LrmptSa5sKU6kOVWvGA9bHaGDTVD9caLI/FinjAdSHrY0zJE0JAhhnQ2YWAXKMYVgLCG671j7hwxMMw4qKKe/gtjzKteBDHFm15UAjI8AE6uxCQaxRZ+fm3OJ3OHyg/ry7UAkLi4RmupWnq6rkevLgHiQdZH2bioYy48MTDKyCbhIAMI6CzCwERCB1+AVGLR7XF4doVXvEwjrgMiAeNuOjFwysgwgIZTkBnFwIiEDrSa5/NTqtrrkir8TK1prEitYp4sALWB/hMRdKaXy5LWL2vwsNVxD0V8St3L4tbuutU7LIG2Sce3rgHiYfiuigjLnrxIIoYyPACOrsQEIGriwkVO5+fUL5dHhAP43AtjbjwBORaskAqKys/SJOq0BnSwSx0ljL4nGXZQFZW1qSMjIwbkMxSRwuE4uLij9Bj8UPR6dDZo1ZAaK0S3Ndvgg/gfBbhcwXVH855DurvTpvN9kEl6aCA7gHdS3A6WJjrcCzHsSvw3YkmlOwoK/u0knR4Ia269atpNU0L02pafpRa27Ipta6l3sAaYmN98lovE9cerE9cc6A+gbh6f308cdW++thVe+tjVyhc/jS4uz62Ynuv6VwPuC5m4kGMKdnosUBY76Ll7ouLNrn7Suq9LN3s/Sx7RO4tLWGvLb+FsSvvnKEiPz//FlRwOSr4N/j8B6juGHrKSPc/aJQLSGyUIiyBGhc6Xioa1CZHTs6bKMuFBh/2Oio4h0fAZ1HWr3xEJ7kduzT3MDPTeQ+O2eJP53D8U3dNDOUcUZeDbVTWo7wOh/yWBEQRyRSUs46Oj+8duHevI+2b+N0J7sd3x5IlS654pjKO/bXsbOdjSvl6cfQTx3wT57EJn99Ctoi0NRzzGyj7IZT5W9Bwb9XEvZDw+QLSzQ61/QwKIBopqTXNL/lmmJox6IjLQ9q4R9DhWtWISyDxIPpcGNfFxUekC4tl9tpixqN0ocxFgiIfz75OubxBBSo+EXx2wYIFbn1FWyEawR/nz59vadkCeh4Iec6D6sZ9RQKC/C/ryiMhmMCYdtZvVpZnASBquP50FvmKXhQIuO6AAoLvNyPNT0ESSXUaM/bC6psezpKIqL/rcJxHUMb7ujIDEudPdf5EYWGhYTKlFdC54rgzUMYRpSzucYLwJeS1/AhBRDFrz54PpNY2bUiubnXxBENN/4hLgOFaTdA0wHCtOmjKG3Hh0TcKE1BALi4CSxnrK2aunqLDrK1g0FY4KygouAkdrRENwPSfChX7HtiHNBfw+Q4vDRH7L6Ksb6LYgI3AZqv8INK+q8sfbQLyWewj4dBfZ1CiPOqEi8gFUQ4TFEVFRTcjz6ugWT3KDodHWEzrGQJ0GucbkjWCfBNxvi8jH69cHNPxBngC7ITF8TYnjZqvhXr8iCCltnlzcl2r/8laM2rEg0ZcaLg24IiLIh6mD8gNPONiRTyIgQWkzCsefSVgEWO9hWABc/fkP8b2WG9MVoGKT0Ol8f4ZXeDzYB4a5tfUHYfMeLg5d6OinwQpnSYvtnXl5eX9p5Kci6EUEPy7f9npcJTkooMSke41dR6F651OR1luLtIQkQ7nO4dnFWC7QUDw+yy2X8B3fad6H530RfAxfH8Y3AHS8Q2dTxGR+61YInRNdEyk15SDbe/gWBtxLqllZWWfJkEiYcN9mYT9O/TnreT5G/LchWIDdmJ6oI3KVtwQdX467ybwwZKSks8jqb8cOj6230358Mm1klDeSZzjJ5Qsg4+02uYc9WP5ZvSIBy1J6BMPS8O1NE3dfLg22IgLj+YuDImH1+oYEI98xi4sZFJXrkvuyf9WJGMiqOgkVJbemnBR5aKBWXJF0DBncMogEXk6UIBuMATEaVFA9EC6wQiiaoh7ehqfxTwXAZ3lY9j3I5Ajxjm9c+bM+ZSSlAuUfR3SGiwPbP99sHpEurupw+rzYts5uKNfRBJuXnqcHtfdqc8HPg8xuzPYPScg7USco1mMZtlgB3g9SK9sud5e2/g6TzD0VM/18LouA+IR/BkXEo9dinhQ3IPcFp94bOUKhRm5AuJxWcjqgHgoVge7kOcRD9bjZOx8DnOfc2xhLHJWCCrpYeXfwl9xaBQ/CMVsJiBfMWho/LBSUswa0kgREGzHv7mzgJYKUJKbAum5IoJrKA1UJ+jsj+vz4ZwOZ2RkXK8kCQik/xJ4BtTcA3TuA2rLUw0c806k0VgQJEQUKFaSWALOMwF5/6UuR+Ffcc0fVpINHtLrWoqtWR8kHur1TCnuQeJBcQ++eAQNmloYceHRN4zrFZAy2Wt1qF0WsjpIPHIV8XCA2Uw6l/lWJGMhqCSDgIAPhSoglB4N4c/Iq2mA2PZbs8j6SBAQHLsB+8iEt4SZM2d+FOl5/+pHzDoy9o1DHk1HxrlchmB9GbstnT8BZVBHNrgUEJFpPBfKREDawun0OPZ25NcLJ7l6gz94YK9tPRzuiItfPMCQHpBTWR6huC4+xhQ9MWMUGrWrt+iPUk+prLE6FJeF9ZB45CjikcXYuUxwPpO75t1rxTy0AlRSRASEgHyZoL4RUEf4NnYbzncoYyB6IN1gCMjvzDp9ICDfYnRETUyB7pPZ0C72N+vrEOlrwjH/0WH3csr6c3p6usGqiKSA4Lh2fVnEYHG0K8Z9649cZ69ueZcnGj4GHHFR4h6m4kFxD7V4+EZcFMsjHPEgxpQ+HkMLCknni7ulnmKZ77J4rQ6veCwA5zHWPZe5uzLWRyqYikqKmIDAXfkUyuKNzjzMK28ECEhYE8mQ7yugoTOhc96C3ZrzwfavYPt7urQuCqhit6VzVwPXEYv8vGPb9FZIJAWktLT0k8hvcGMGXUDsVU2JSVXmw7Zcy0MXNDV9upbW9TAZrg1lxMXILZfGlT39Ufn8wi9KvYX9GpdFY3VAPBSrg3WTeGSAc5jr7OzD7IXIBJdQSRETEAL+SX6P/JqOiEb5v7yOJASED+qo6IiXdGWRK/EN7NYLyEqk1Q9HvxJOJybQfcJxKNirv4eP6F3RSAoIMBr5/64uizj4AlL37BLT+IfP8vA9XWt1PVOIB3/EJfThWh7vKa73LKrsOr+wSDpf4GK9KqvDIx5qq4PEY65HOFjXg+ADTDr7vbdZV/CAnBWgkiIqIMj7KKc8FzqYYbqyEBBzoDxDHIQnIEj3HOd+P2oWd7IClLkZZWhcUZ4wRFhA6LiGqQSDLiDJdc1PqhdFVjNk8fCMuKjFw+e6+CwPcl2uTDzGFG7piynZ8HnGZn1YOpd/QurOk/WBUq/VMeCyeMXjAXA2Y2dnMXZmJpO7Z94eieFcVFKkLZBS5DeMIqAjxWG35nxHQBA1bAFB3g4woICQpYJj/k2dhojrLQi3/ggooxjl6q0aw59AVAiIvablCC+Aanm4ViMePtdFLR7e4dpw5nroeU/JlstxRfWeVd/lC3mrpW6H2yxQ6ndZFKuDnf2eXzzY6RlMPjvt/uEoIMg7E43IMMMTjT9T70MLATEH8gYVEFzXDdhuiFcgHXfUxCpQxhTOtbDMTOd31AuBR4cFUtPYZRAPJe5hfIMciQesD0U8fAKiFY/Ij7gQ4bb8Oa6k3jM9V+7Jniz1ON7jB0r1LgtZHRAPEo4z34V4TGfs1P1M7pxWylj4jcQHVFJEBQRlJYEGAUHjWK4vUwiIOZA3qIDwOjAR2w0Bz1CA+xXDKxfXmK4uNyoEJK2q8TJPPAwjLr71TEk8VNaHZsSFgqYe8dgmj1+04+K4sh2vQjz+AvEAt/7lO0Wb/RxTtPnVMUWPB+TYks2/H1uyqX78oscn03M6dL6u8zkPSt25/wwYKPVZHSqXhZ2Z4RcPduo+5u6cUheJkRhUUkQFBB1mPE9A0PjXXw0BQf4RIyD4TffaYCnQ9mDXGwjIfxfK4QnIjKgTkOS61vcDiYd6ScLgcz0aTsZWbC9KWrmVpu9GFKxr4ZfdPc4GqTsLbkvwQOmAy6JYHaeneYSDdU4FpzD3yckReS4GlRRpARnDExA0jp8KAbEO5LVigcTwBATbgl5vIJgJCK5F4xpFhYAk1bW8YyoegYZrSUAGxKN/wrKdK28r/plnsgxNFX+vu/h2uXeRXe4rmqRlqe5T/7043cOevEny+cLprvN55e4LC1uknoX9WpdFCZSqhmcHrA6fy6K1OnziwU7ey9wn0n8xHAUEFT6OJyBolD8RAmIdyBtUQLCNFukxdHRcb8oVxkDGgTwLJDX6XJjaxtdJPDQTxXQjLtygKYmHZ8Sl4d348p330qxQ+W/l17l7S6v7e8v6Bh5us8iL+ofggs8oDRYo9VodEA+fcHROhnhMAtMhIPYNw1FA0MiTeQKCxlEjBMQ6kDeogBQXF38O23kdnRbmCVtAkD+dcy1UruYR+6gQEHt187HUtYdkj3hwnq4NOOJS0SDHVTz1gEc8LlbcIfUtPhVocR8+lUfvgzwEZ81lUQdKtS4LWR0kHOxEGpjKXB0pa4ZjEJUaLxoRT0BK9I1aBFHNgbxBBQQYjWMahnHB8nDrj4D8KNbwJ+DCtWger48KAUmuU1587XddvOKRqBcPTtwjdtmuBprQ9W7fkpv6exeHbnWYPnpvfAiON6N0wGXhB0oHrA6feNg94sGOJzP5ZCqUaNSwExDkLQcN80DQOKYKAbEO5LUiIHTc3+rrD9uexL0OeyIZyqjS/wnwhCEqBCSlpvEHidVNbvWIi8byUFkfavEYu2SHNGHpVs86Ce6+sudCtjxUq4WxXr3LAuHQuCxqq4PnspDVEchlIauDxCMF4pEEJjK5PTVmOM4DQWfdximPGv9N2K05XzMBQdqwn8AcaQKC7dWgRrBxLu3hdmICjnOAU4eP60UpKgQktfLgXFtlo8s/XGtxxAVsJetD7iuNh3i4uCLBpc/q0K4WxrU6fIFSzYxSEg/+3A6+y6JYHSeSFfFIYFKH7R35r6lXvOguAZUUaQvkFKhv+Kd5HclEQKgDWH78XQ/kH2kCQkFr/XFlbAtrXVESCVzLRV15XAsyKgQkbX3rV+MrD0FALIy40JKEylyPuKW7Kmg9DnffokelCyVuvljoaDlQynFZ/FaHymVRWx2njIHSAauDxCORsY4EMJ652+N/FamH6VBp34+UgKCy70JZvPjHBl55tA37eauh24J1eDMg/4gSEOrUWU5nmz4tzmdNOHWIY1AQXHMd+N2D43xMSeJHVAgI3UDb2oO9avEwG3FRr2cau6TBux5H36LDwd0XK4FSn9URwtwObqDU57JQrMPnspBwoE9BPIhymw0nceUBVAIqKWIWSHa2cyOnLBkd+DvYze2IaHDnKI06DxrSj8M5PgH5wxIQHPOoPh/IXceEh6ESEAKOkYtja4SbOj3Sh+wK4jp26+sQ96+CVx9RISCEhMr92xNW75XNh2vJdRkQj/FLG0hAJnkEpLfkaGAB4bksgR69h3j4rQ6rgVKOy+KzOjzi4RUOotQxQZLPpXxBufQrBirNYIFg2+pQOzDyfRv5eMvStZJZrCQzAI3csIAN+BZ4M3Zb6rxq4BwMq6JZFBB6f4leyO7Vm+1moLS4jiEREOVdMwYrBOlD+iPANYxFPk0dYlsXroG7uHHUCEjyQ3unxK7e7zIdrvWIh/oZlx0sxoqAaAKlitVhGij1uSxWAqVqq4MXKPW5LANWh4/udtuhSK6JikrjCchbYAUajsFs5QGN9wakP4G8mgYM0pJ0AVf2RprpOL7B7UG+v1C5SrKgQNpbwf0cMbIqIBuQVj969EOrHRD5h0xACDh+Ao6vWViIftN2KyKI8/ws8mjcOLqXuHeTzPJHjYBQMNS2Ym9H/EN7ZN5wrfHp2mACEkqgVHFZPFZHOIFSiIfG6jC6LGrCfYGZEvo/sxlQabwYiIfY3oPPZbT6tpJcD1p8ZjLSdIN68bD0D0iNE+le5OXHuV0A5yCNWYOkRWjo1RK0fgXP+vHQooDE4nr1vv9ldKyvYXfQ+438QyogBFznaqTTiCBdA85N8wyLHkhHM1p5K7rXBloWMWoEhBC/8qmpE1btcxnFQ3FddE/XxpRuNREQs0CpmcsSJFCqdlkMw7O8QClfOIiujomH2ca7w2qQZkClmQqIj9hPFsIRpKUXJC1BQ12a7XQ+hu88q8NDNL69VhuS8j4TEituWTgOvahqFz7X4vdifK7B7234NKwiziPOZTwOY0UEDBYM8r4OFjt07zbRA3mHXEBIJNCBDauzg1ROK85xbn5+/tdRzhdwz28HZ2JbA85bvyQisX7jxo0Bzz2qBIQQt+qpR+PK97g14uGzPJYq4qGsZ2oUEAuBUo94BAqUcqwOg8viszoCB0r1lNrj35GPJd4ZSeuDgEoyBFFRkYfx+YZ6WyhE526w8goDNdBQvoq8hk4TCjOzPG/OMwiRVQGZN2/eZxw5Oa/o8xPpHlHZDodzGzqq4V95OAgIgUREsUQ0HdsqcQ0SrmWNlQWZo05AyJWJW/7UhnHLdrqCvX5SKyABXqvgsTo4czsCBkpVLkunTzz4M0rVw7Nm7G+Lf1dqT0BhkRUPAiqNO4yL7Z+mhoTvvDe2mZFeSZgTyFwOBHS2TyD/z0HLjZ/OHemp05cXFhZ+AZ2nDt81/8DoeGNQvKV7h7T0Xtmfo1zevzIxrHfjhgrkDUtAfEBHjsE5/Y5Tt2akY70Aq2RsMHfPh6gTEB9il+1OiK3YfXDs0m1vmy2GrBEQ32sVfC7LBX2gVG916F2WIIHSADNKA1odR23/cHfY9rzfnnbHYIgHAZXGFRA0Ak/sgiwJpJkB0gxTem2ipnOiwVxCw342Bz2lvLw8Iu/wUN7vWolyKTZClhA1UopxvIltx/HZCv4I5zSbRANZ/PcGp7EO+/QCYrnj+QBT/0aUvwR5D0CUPG/Qx29q4E08UVDOeRG4WMWZ4YopjrlAV9ZiHPezym7LQDn3IO961NMfwMv47hElXItMdYfvR8B16Kh3WRUOH+hhPpRPS1j6zxHlLvC1nVCBsgrUZRFxzZYC+YOCu3M3fmji4iduTFy6+9bEpVv9pCns2Oc5MVdv8VHpfFHg1yqc4wdK5e5Zc+VTM2+TO6fd6uepqbfJbWraTWgLzM70L0VqslggoJJCmgcyd+7cj6Mz3YQ0N8+bV/iZUBtdGBhN52K1I6IB/xDnphcQwzT6kQiqK3q3DL3PVumYI/6eXDFcvUVHpXMFEJAQA6VwWeTumUmVlZ4H2qgiQuWwADpYRKeyDzVw7oZV4dFZrt5LmgVGFly9eUe9K6NbDZQOuCz9p+9/Wzo5/ZJ0chp4PzgVnAKmXZJOpIIpYPIl6Tgx6ZLUkfh3qSPWQ7kjEb7O0AsJOlhUCQjM8p3q68H3y7iWsHxyAYGgcF0gAcmVjVZHkECpJ9ahBEr9M0r1w7P6uR0D8Q35xMTZzGu9DCnQyaJKQOCu/Ib8e9+14PtRXsxCQCAicPU4jkpdObJXPMjqCDaj1CceykNwYQZKhYAMCkbDAtE8WwMB2ccbdhUQiAg8AnI2GwLic1m0gVLrM0rJ6vDN7fBaHf0el8X2vl48hIAMDihYimvRDKVm5+SsvFatKYFrAK6u7KPSmUzZLFA6MLdDZXUEefRe6kjq7j+REkcCwc6kfMLdZtsgHY13awUk/ntCQCILnDcN/WlGYJwWprELCIQNV9c8CMh82SxQGvqMUlotLBEqMRAgpe/udttvICKyEJDBAT2vg+voU18H3Jcz9KSqkkRAIPJwdc19WTqdAQFRuyxqq4MXKOXNKPUGSvs7bJfYn4zPq8jttnLp6ES/FSIdT0SBYhQmEsjKyqLVyQ3rgMClyQt3IpeAgCW4z2Vskk7PckcqUCodjX1P7ky/XineD9Y+8fs+AZGOxcv/arPfJgTkyoFzTQN5D9X9GuIhhm8FBhesKyNBOjXbFW6glPcQnKsjQfPKhX92pN0A96XXv//YxD9cjVmmVoCOds0JCFkccE8W4DzpCWG9cBBfKisr07xJXkBg0OA+/d290smZsnZuR+BAaaCH4CjW4W6Pb3B12B6UOxIWSx0Tu8nq8Oxrm+CSjtmQceitDwI623AWkNGFhYVfyc3NnYpzotdFbAdp0RtNoFRFWj5xc0FBQdivhRAQCBlyZ8b1rs77j0gnpskaq6NTFyi1+BCcGWkkxnUsMR/iMWz8cnS6YS0gsDA6cT48K0NDpHsF1Lx6UUDgqoH1TvmY+8R9G6Xjk1zBAqU8cQhGqSP24mA9kn8lQKdLRwd8GW6BWkSGjQsDi4K3ULOH2P62w+l82rFwYeq1ErMRiHLInVPHuY9PapbaU1xGlyV0q6O/Lf4NuDPV7NzkTymHGJaAkHwdnbI6Ozv7NDrtquHSIXFOD0LcJIgFre95Bt/pUf5auDXpsDaG7lFvAYFA+NeJqTe72lMr3O0pL0htie+GIh79r07sdnfYNiPffazLFtLKXEMNmnSVn58/bMSOpqFnZGRcLyaDCVyzOP/SzI/KbfaxcnuCw308YZ27PeFJd0fCXnebbb+73bbT3T7xEdcxW7nUFn/fu8fsNyKLaOwCAgICAgICAgICAgICAgICAgICIwoUFB1NIwE0UcmMtF8ZLRBBVAGBq4pRo/4fYV9vgqrOdXsAAAAASUVORK5CYII=;" parent="1" vertex="1">
          <mxGeometry x="514.6999999999999" y="1365" width="174.36" height="50" as="geometry" />
        </mxCell>
        <mxCell id="EnO2U9nMXVYCDqS1bMv6-99" value="" style="shape=image;verticalLabelPosition=bottom;labelBackgroundColor=default;verticalAlign=top;aspect=fixed;imageAspect=0;image=data:image/png,iVBORw0KGgoAAAANSUhEUgAAAFYAAACSCAYAAADfLz1VAAAAAXNSR0IArs4c6QAAAARnQU1BAACxjwv8YQUAAAAJcEhZcwAAFiUAABYlAUlSJPAAAB/fSURBVHhe7V0JlBxVuS7CKi5hkR1BZJMIAQ2ku6t60kKAk4MIBma6lp6FgIwCBp8g4oJGFN8Tj6L4YjIz3ZMgAkKAp2z6FCHqQ9QHRDYFhQeKQhISkl5nsjH9vu+ve7ure7ons4UJTP/n3FPVVffe+u93//sv91bXNd6qtHb+zHctMIwp6meDxoOKCxZMyblmos+1osVlLTuqyw0aKxUNY4d1XuTQnG3dUWyZtou63KDxoGJLy46FePiVTDwWLi4wdlKXGzQelIuH/6/gWcmG1I4z5ZzIC3nbfHLN+eY7qR7U5QaNhYotxo4FG6rAjbyUaZu9N4BteAhjpWLR2CHdbh6ei0fy+bi1Otca2bchseNAdLeyCesTac/qS7vmyuy86D4NYMeB6BHkHes36bi1iXr2pebwXg1VMEaCazVlXZt1SN6LrEnb1usZz1wx0Hra2xsSO0YigDnHujzthjZAFQxk4ubChrs1RhJpZcQVtzJ5zyqmvdCWvrZZkeKCWCNAGC1RUpW0LoW0bk7Hzddznvm7gebmt6ksDRoNUVrzrZF5aReeAFQAJbbfNT9ejDWkddREvzXvxU7IxUPrCKro1nJg0DBaoyFxrQBqxrNepheggO3b1N40k1KssjVoJARpnILI6vi8E/kzQfUNljWQdc0bH2+d/naVrUEjIYKa82Ydt942VxNMARUGi34rvIDdVLYGjYSoN7Nu5GMFL/xqCVRRAaEthTbzxOUjdK8mvR4mAMWO2G5517oy55rp4PDHMZ1vDc+hzlXZhyQaPKkPSYycF91zUgIsQHTOmJpzoilI5uagpHIWq9+NzCt2du6sstclGjRO0hQviu6ZcUKhvGsuRCddVpw2CaMzWWY53zww60UepfNPQMvDnwCb5w0VXWnJ5PmGc2Lvp3FLx8Ov5BORO/tbZx7GuVvJOFlIA1KAPgWAL6fj/tDXoMIjyKRdM1EvCNDlB+Ah5CHRece8XzrGNp8seNY56LBdNOCThtjgF6FPM17kswBxoy+ZClQX56712gYn8pFaw18AxXBPQ2/mvLCHMquoj6kyCm70Bl7nfZV98hCAmTLQHH5b1rPuS3vmRg2ogArLD724aj2CglqSyrLUo3yvgHOxvj4Obc66oX/02RETenrnSSelJDa6v/3kw2Wi2gtvqQAVqgBD+N61iZkHE0BVRIjlmNJu00zo0J/Dp91Ev5aT3Vkv+sO+NuuQSRuJCah27L0Y5k9RyspS6vuoOddazLlV5lNFhPibEg7QL0GHZAVQ36ils3DNJqUu1cSG51pP25fvAshwrwK14JoXvQTwVPYSUVdyeRsewy8zXlgmt6mDWabfaTplUs/FEtRMW/SonGM9l06Uhz9BysRD/TkvcunDAHWQpALUQnv4oJxjPqTdMJbJxq2/5+NNH5p0blSQCNa6lhlTMWx/TX2oQS2BlDC/QoOjspeIAUPOCe2HznhWu2G+tJr/2tAcnTbp52EpdbD+NwWHv4DEFQDb7AKou6usFUTgcjU6I2dHZ9fqiElF8mIFrHgh4U9Ql0DFOYb3cwPOKftBogdZcko5LP8XM/BvdRno1y1wry4vzpjkoJIoWTkn/Pu0W+1WQa/GZ51cy/AQ1GJHbA8EDi8FVQD1arEz9u5qPTzpiCoA+vEDepm6BCrOC651b70layWt3w2qAAHWMZc0lrlBBAgR1BkApTJcxXkf4/86oerqltg7YOie0VOGUgbnWc+8kP6qyjq5qZCINBNYDZACdmPfeU3vqRUlEdg1jnlgwTNXVXQGQXbDH28ACyJIGdf6aBBYX2eaT3AyW2UbROtbmw4r2KH1FcDiHOqjp6EKQNSxAPEEuFklHSsRlmf998CcI3ZV2QZR2ou+DyokXQ0swt3nBy44nS+/TXLjBQD4shpnnYLA5t3I8hdjtSWWZdYmYgcX3FBprasELowZVMTZy4a5NPOWJglJW61L6BloyaMbVew8s3ZQAGCLnadOlfmEgPHSKeeGcgxxJ3UoSxKgEM4GgeJxY0fsBC7HqGwVRNAQCNwJ6S7NfunEaC3vRhtvF5IILob/lcEoKovf9cJSCYHjUYvTg0FQdRI9DW+j8YYhiOAWXPNXUAUbZY7Ai/xhYM6cXXldZakgyZ8I35d2Z9aUWr4evwrh8KT/yyeBWg8PIWdH8j441qY+N+LUW872o7bIKRl4FNXASnno6iy8i5Wt0xtvcosh86xzAIy4Upz+y3fE9gcwNaWOgMHFupbuWi1geczY0TNRb0MlCFie+U1fJdCYRa6qN1vFjij64e3fNJAV4KJ8zjG7G4ZMEY1O1rW+T2OG1JfzoqfWM0TsCC4SAty/iA8cBJa/HfOhYh2feNIRJVEmWlzr9gz8W+jKR9afHdujnq7kdZnMiYf7q4FFwLBiqPB40hHB4hAuOOEHuQQO3btkYH79MBf5p2QT5o3BdxAEWMe8Z6jweFISwR1IzHwXpPFmvsGSpkoYIqLKONEQvYqgvs151uWTfu2rFlEtqIXGWxAQPFuYGxv0ogaJ+ahrC17oVUZuAi4CiKw965ha+RsEErUA40Wdi3RdzRVbumrtpxzEPyT7wIa2ZB3zwrFHX8UdDNQtxzcFFcEo5wJkPmDrTAu4ABRSeNVGJzq91iR41g4dk4ubGfEGbOsOBgfq1ggpAOT5qXcabT88xEh0HWBMWwC3DdfJO/iR+xNLiknd853dOxvzbtvHaL3xWCPeEzaaFx1tzMC1rZCAC4PGP3NUA8t7eTtyJb0IBA13rTnr6FF++AH8eamTDSf1n0ZL9wrDTaUNp2vAcLu24HwV7t1t2Kk2ozm5l98BbziBwZZlOwqYzbe9DQwdatjJTsNN3gWmXwOzWcPp+Y3hJFsN7+Y9VaFhUTVgBJkRWsE218Ir+EnxzBm7c1ld3R4BgWd2tNNzlZG4/mABLnH9uwy752zw/bTRktoEcDcjFdGG55AOfAPBpXQicQg5qfPBxC+NeNffjXh3v+EsfhXgft1ILIWUosepBkSKx0YEGtZ/ScGLdvLvnaOTVEUc5tU6lb/P7N7dcHvbAfAGSO8AQH4dgK9FG08cjzYMQWBkzvW7ArgPA8yFRjy1Gul1YcJJ/h4MzcPQh84ThhXzYydKa9YNx+CvnjiCyW2/8zV4vs7cCjEPePaSntHSkzHcbq0enkb79kOGbQAuJznii4+H7vmT6CP2pgAqoKaM+QC8WgrGmepKqRhJqKQYJ2IUDwuW7yTqqaV7qhgmO3W60bF0/63zx7Kow+39lQK1KO30kp8xWmjYxpeol66GRPbJQ6Qn+UD1UDf5JaP5O3z10mdahlpxiq9/cZQEZodMKh/LBMuVgQgey4l5ac3drogRx4ixU9di+P4EPD1mOL3UkS8gXTgiXUl+vNQnUedGaaMIT+oeGa1lPsaFdsADbkGC7tFgamD1g3ufNZzuJfh9GRrXYthds3H9RMNd+n7DXvpeI9FzsNECiWnu3aeUOLwIir3kPUZrz2GSl6PCTc701U3yDNR3ruH2QO8t+TQa9zVI0vdxTl4ewP2nwcurRrwXBifIEyQtnvon8i+SugnosFSBInZWfKlltHT1S30cnV7qj8b8nwHYEdSzdUJlHOreks/iQc8j5eRhvjrYUnlkwyjRwaQbPFQK5idITNVl8VusNiUpuVme58DQiD7sWQnQlyPflQD12JK0jwRQTQTWWXIKDHIZWLvn4W0ArJA/vGk5OyCBbncUjfoMJPUmuC6PGy3Jdb4hU8DwXBu2Ekg1gCollY9l2BCmcnnousVw33r+DPDuxfXrxK2Lwxdt7p1mNC8+yGhZ+A7hkaCMBswKQnk7+Xnw5asCP92KurfpnC+Y1rqKDVDnHUt3MxI/OsBov+EDRmJJE4brR8FMAkq/E0NyPoYSpB3M2skvA6AFfkpdJdec3svRSZcKWHTMnd65RiI1G+7bSQD0SGPuon2VfgPxmToJKe+j9HuMhHpEYlO/9TtUCYC9tG04Ac42IDDEBpKpYKoEYWjSRozlaOF5lGuq894QAq/0W5u78jJafPX2BCLJmu9AvIEkICowhwno9kLswHaoFbfr5ZIaok73UrNwbyKnJQEke9bpcdHrn/T9yjcLgfezEEnayTt8FUDdDiPt9Fw4QSpAEYet13uqWGfp5d73+argDSKthmS0jJRQljbC61km3oYG1U1dPNHCgQAidQ2MTV5Z9E2G84Pp0lAdFYnDT105GvWAMlr3Vupb1sX6d4Hxmy5Gkv7xSFYTWB9n4einOnDjyL+TTKM9GP6I3iaO0Gj2ajz5N7+3tXsCPeUkv2d43W0YXh824ouOLblFWpIlQkPDaiXdATE0jmGpd9Oh8DZOMhLdZ+E5n4C38S0ASQl7TFwxWm7Riz2PyPO2qhPVs93eGPh8TISB/nA8dT3qerfPw4SSYpBhpFMBLIeTOqefqs9TBVhcgN79FPTXbwDEvQKQk4Q/zMRzhI9yr/cpRFWvoHOUP1lRD5LoQq0P/fu+H7wJHb1Qoj3dQUEiv9SndPNaOMoAqNPzINpwFPKrjt1eiIy6qSsASjnsbUkqB38QIHoSRwMzOLGsnydQNlgPr+v8gfv24vU4vx0SfY4xD2qhQucKyHCnkqfJCIsDUA9h8jmL3od7yjXc/sgPHy+4ZT/oqg5IwI1g/hk00p/bLKUAML4+rp38Gf1AfoKK3zLc5RosNucnIN1u6tsAC8/sOtHgtCUlrlb0ZSePQeByPXhbhDLnQiVN9fNtn4BWkj+MfMnwpWM/6MEzAMACHG+D5X1YAfICwHoJYL3sx/mpVXKMp15B+qdMnHNegmGsk/wt8t+K4zdQttVwFn0QoDCEJSlQAI7MD+jfNYgTPhzqQuTzzQBoPQp6BWw0zxmeUrK4JNKxdA9ZtuFqA5O3aE8xVgRO5lMX7FLSeTwO9gxGQG9mIAdRzcbgGq/rRKCCKXhvCAmcnARQKKWJH1EqG+9VjQvJkIW/6qWuMuzeu9WU3rYh7RNPCnJSH4EBgkdAvxZ+anl93h/WwcCgZJXrpGBev3D5HkdCa/IIY8ajO/v1vGUJjaNhcrqe80EtuUovwaJ/y0j0zjXiSz4kjjiXTBjhcAmdAPEFD0ofkz9luItM6NCYcb2K87LeDTPgJcTRadcgePgV3LI1CCDgmiGoSPROkyhNQH/L6WUNbPL5SmDFJ6Uz70/DcVGSL3Nw1YFrVm4vXC7lWrmIyHxpfxHXVqET1uKYljJSJ/xZCTy6/fpYP/1eud/zC/ipRypw32qERtmIenx/VDn6GmCmoKNffY+/dQpcK+UNRl7BhHsCLs5buvLIf82b0WAOb6hx1dVJ/RSNXI1YXy00Eph64Aw36ToUmD6gOUj9XyC1i43mruPK+nh7J+3kj4hQhg2ks28nbYD8EEDge1FlkHxQMLw5N6BACqbSXEBwPkCX7eqH6ngQYM4z2m84yH+vgSpguweVTKrUefO7ZXgzJneTP8P5k9Bnj+P3rZCUL8nSRV3gFcA8Mrz1FlvyCo8sJiZTKHsf6vwDJPsZgP8Crv0Dv180nO5nIZkrjHjyAeT9sTzbTn4K7tuZMFjHG2cjYiOIvnQqXseBfKO5LVYMFBAMM+2ls9HIW8TQcDJFpvo4D5qcXnaTRmCBRYKD/53VdUg9tSh4X+XBue6o8SYZmRhhTupOpANxZZyeIQ2H5MmaffIVgEnLvhlS9YS4SexN5vHj/rceaZVHAeJ7BeMmuVyOcFK/h0RS7ylLm7xL5jW3lZRMPKFNbBuOnPRx6CN3bYRgnWEs4xztmAiAUSLpNwqY2kDgnPOdtPAGerIc3bwZAQbPAcGgoIiEItxu+8Exhtd7gcwfc8qS5yM21oOIlS/YBUDCXaGvGLC8knBNVgV67zKaU5GK4aGHjjARYHpCCXxolcZUFoYyOd/bz4h3OxiNt6F9CFC49CNtvxbt45RlFaisYzTtIyNe76UAsCA+ou/qBEDWaoHXFjMa4mT1TWDs8whNzzbO7fmA/yq8VhfBVEu61T02ul4ql69FgfulfD6gnN9tv+FwI9HT5Hsf3V9A6oYvfR9+P4o2IMrr9ZePnMU0yrdDnyIfjJUPKOsqk1/nbsDnEj9krtWeoYkR04dRAVc+/yrrQRrQIND+OpYKJ3Wiw84wFa6S6GhY1XhqIer7Ksp8Gh1xnqxBOck58gwbjba7TTQ+jHIz1eorEo7yG9ftJSYAiCLFDLvrdCOROgt1OeCvE8fLDGfJ1bj3fZzDa0nej+MT+P2yvK6v+S4JhiTYDQpFCuD29IIPW+YpdMcQwBKpa3zD0udjBQz4hcaMrX/NvjYFZ/k5w881JK7Vx9GrspSiwB2UxMHfJImKn0ffAFY59oHO0B02VArmD0ZsvOdIYIFn8VVL9T5AxbOQHAxzJ3kPgLkI7TkC7VKrEQBNXsQggAESiVXX2MFcSudzuEZGkMdO+oE46j9n8KH08fgKJ2eZ5K2XpZCgbr4zex0ajmAhtVwmUrzeVSLBJUAUOEHQRppKAEtnpVHvSyJ9dupuNH4RAPyCDGk7NRvn0425XQf4r7ajDRpMGcY8qmslKcVvDnO+E+smF4q71ZLkZFEOI+1zsoQ0ChUwfKLuKzEkjPJimVl9jdLAlQOu63M6z4XRS6ROx/FcSE87mO1EB8wHCJ8FCJ/D8UqA8nk5l2GevFTy+K+BnuN34mKoiNTRsOL7B17LDz7XfzbPRRg4+qruad4pJPL2S3KGPMNJLsWofEWmIEXSqXv5lyqMWD+gUXVPBPlzqL50a+B1I3RiHp1vOKk6v653EFU9S4xfFbGjGUny7Rw3BRsiU4/+n1NkChKAyswYIkv55w9InjcRJH+qSF2Mnv+G6OJWDCW+DHfWtTAK1RKlk74+bAqUqVEXG9+5bKp4Al4XApyuDsPrWSAGiv8/o+Fxk/8S1SQqRetgAGp3rUe+e+Hh/Bt+05WcGgCT9U8gUUIcuFv+ML4dDfiD/04APASZrEHjOIlidy9Gnm/i+pdhYaECei7B+cfRsHY0zEU+Ryy1h+QPzw501oW4dyl+XwmAvorheh2upwx3CZ4DfS71K9BKgAWTGLwCnrXSn+fga0SpJI7z0QGh8owYqO5omEiSYRicXAHJSgIAl3/QJL+OdAck6RGJbHzDVnuqUP6BUzJU5VQrLxNXFSh5ThJeS+p36IybDRudYHehk7qOKw3rIGmV8eYiNUTlFOcEnUnrPVpfrmXRkW9dtK8YOP5diUsq/DsSO4OAyGuZKrWmjhUjSONlc8inDvXVUGDNTEuc7mT92ycceV76PTHEfwBWJ3VrnAgNDIKuwRhOCpZhHdJhEwzYcEiAjMV2qkhsUINGT/wzML9CnLGtP+U86xl+RoQbQOa8yN2Nj9mMgfhpkP7WpsPy/hcsZJdipE2ZhPUnSG7jNaHREoGVLw0TWP05Un4ihJ99bgA7emoAu42oAew2ogaw24jGCiy9CrpmrEe2QeVvnvO4FV846DPrpG4NSaMphzyKL8VbiU/4xtuCWPFIgNWNEKbg7+YTTQcgfSiXiM7OJyIfYeK3XDbY0aP4yScBu0bDWZZfnl8ZSLU2S6tFrDdYjvVUf+BMA66By86L7pNrj07PeebJGcfnkx8A5tYtA6dNR3m0J8AnP0jJT60+zTYo4VG3hkcjBZbb7GUS5tE5N/Lvecd8rtb3XXUqeOZKbmcycL5Z8a0sMpqLR46Vj5S5Vp9O8KFR39C7HvMe6vxh2jNL5eRz/gnzrOBXlAfmz9l1nRc5NO+aV8h2goE9b6tTLh5al0+YXxn42El7a4AL3skzcO3b+UT0TrTjk+CtY0S7hwwXWEpe3ou04f5f0rLNXmiLBpVHlpVjdYJfXIBPPMBP7Qe+CMTnZl3zMdRT2l0u74Vy3K1uKGAf7Zyxc8YNP+5/3Fc927M2cj9GXX82HrYKnrUi61oF5qvKWzuBT+7b0A+JpvTzo8EQHiebiH4l50X/I51oOn1En/0bNrCQsr5ExAUTlBAfRAYTwhi3MDULOJdNe3RiXeX6wk/n5kb2DYKWdazv4JmVOyG55kWP1vsSMjp3XeepUyGl/yrx6oP2DPe5lTyUaDcUFYlWnR/gc4uArXZt0tdLz0dd3F6AaoP18NOA8qF2HKm6hInh0rCBxYP8r2dG1uRta23OCz2MYfbFrBe2uA3f6otj7xhom713n202QY/dy327NMOa6T4n6moG2VGo60w0rLSDEgDjh80fobqRh1aRdC6GdwE8lMoAnIxr3arDb7aHIXoew5tDnKE6pPeaXGvTKdyadc1Z5jvXd8T2KCRmnUSVws+sVvJpvg4sFlKVyENHS8MFVhM34802n8AeVd4AjuxdnVAfr1MvEbQSw5QWz/x5CQDkzbVG9oXxqNjzgPly/HhkHWORdyIfzLVUfku2L2FeEZQoSpjspzC36QBKf20+ff6z/hbZJT4l2aH1A0pqVZUjp5ECq5lSP2sS8kzhTnIi3YpZBcQqWlqVTeqCYbkV0lyxN2I2Ebm4ljqQ/AnrfA1ECVzXPKNWR7Bt6rQusc5cwrwHkio8sE6qig0w0PU6d1g0UmCHSwKCZz6QdsPlrU+h34pueYs+HvsT5uk0hgIQ8/k6845aM2vMrzyC8khA/v7W8BGjBUGAda2v6s4lBtJxrdbx2yewqDfnRu8K7sABhvsGmstDTIDCkMP10m71vsSYKwegC6UiRcxLvZdzzRdLfHIDdtt8cuAzw/N/axHrxai5crsCFkzJUGMdkhRgpOEAS6IDDmP3u+Be4ARX9pSBrlTZUB983+ZZx3GT4FI+4df8XDBfLdLP8yND8Imj3ADxXt/2AiyZYaJ13ZCITsva0U4YnBR06v8gmvkz6nhe3BYMfQ2CX+9gYMk8Ao4rghv9ENhc1VfjCUa/G5nHrap1HoK8xo29H/XV1KV8DvcAY4CScWcdCa+kFY7+IkRey6Grn0Q9wmfOs15jfVLvRAFLZrPQk2j4Em5tIsEChjHLiF9YSn5dwVQTWJwXzjcPDG7pJ6DBV10FNy6YF25TEs/xdTaegU58AWFwzZ3p2C6GuwUncg3z8dmsdzCfSFQpmseJAJZSw2gEyl70nCSCyo3OwaAqu1ntzFGxw6d/bzCwmjKO9WBpOBJYL7SBvmbQA6GPi6irpFoQEd1d7Di0TueHY4j4nlRAlSNDzaeAam3y+WR7JwhYn9loLO9EZSt+ySfGI7S+4IXvy7vRefkO84RCc/ggMUiQJPqtwRh9KGDxvAUVefGMgmtdW1wwTbb5758HHt1QLlDXQJ9jtqLxFfE7O58f8+WOdeX2gM+4leG21/BbL4b+PqnPbnoPI0GqM4y+r+lnv6HAMg+jmRyHq84DSaUEMRJCwwcHCygzHONFkvrRacGtpggGhv4q8LYn6+53rKu1myVqJm6t5iYVqooS0ZAhMns0KNl8bqG9aabMtlXziTShxgvKvkMe6DPKobqlz50VqTcxwXoh4cMDlg1ESIwRUJoD0KmvDc/onLE79PlTZf4ggW705mpfl4D5kVSFX7yp34mcgnu1+cSzJ8zd4sPB8A0VjjmkiyFp0HUJ0kiAJbEegPXd4DOYuJlExg0dCf+1ZLmZ+jzTrtXwrGt+G7z5w1r0aPgVdlqtZ5ImHNhCwLgwMcanHq3LMOodrirQxDlQvVOdyg8gze9lEuGOTGCHJAC2aQA6EvUMcrOg12/x+Zd8MhXIMLoun7i+zVRBfw1gM1XAZhzz/tLD0WBKxaucO6364jvzypCUiCr8tK5TlasvsXxG2+y9ZS9bzQd0qcyiOeZDqEtJIa651mLqS1W0giCxN5aAZcdAAGDMDiRPKkuJ2HZOC8JW3MT2SJnxBDbdbh6O0LAa2BVBYNmYSlUgc6df5BQfGRCDgLo4QZx3Zn0wCwNCEHR+VWZIiWU9BTf8Cw2Mfo4ApM4ZdKy1Q3U38Cm40a9XexeQ+lvWn338HiU+eYzFdupvjR2BTru/4nnjCSyjEhnaAWDhmvwxuOsxfMK5weiIKcNJajC2wbU+mnHNCHTqRdzALG2H+gnqiIEFL9zNPhi2Dk7hp6uXejQRCKiS2Rk8P1jGl3zzj9DTiTRcLejUdlx/QLa8Ip/bKkDY0DbrGAy5XFky0IPQqcG50/QFp+8Ff+853AvqTJEmMRLVRzCM6KkHUr6y3GFDA0taCxdqPQyOLhNMrBuO/yfq7bVI4tINAPwv8FCyB1JWghgBrXxEO/06zZ/n4jPXybVxAxaN5NANbkTmg2cu+1swVkc+hp55uj2KId3YynPcg9sEH/QSbkfNGXwwu4nXKSFbA5aUS1g/RX6EyuwglTi83chfX66zxbUmzWeB62koo6Wxgk8dKbrWazDKV8tEkGv9FoCTz83IN3ZgSWknPKfK96MDfh0fqLIIkWkubWC4Xpa3rdWaUZ0Y6iJ9Cnp3L1/nGlMg+d/hhr8A+gFKhui6rQBLVwoq5QGOGnojTOjoXzO6G05jWT+X0lHmPNQxeCUZwQUBzaKTl0PXctQWWq1PaT5pLPtt8/BaBm/YJD3sRb9Z7T9COmo2gvl9AzBtl/6O2Hs3ome5XCIRGCMbGrAAcJIfPqpO6vKQVF2mlAL1bo2kDiSqhnVt1iF8p4AjUwCD7ZA2BOqrfqa6PDpiZas7YvujR18O6EHp3U3xWScVl9WXDmGEIAJ8SWPp3W1MlXxWdvy4kwCDBBB/TP2nJZX6By7N/w73rZQGBYjSxf1hc7bZJYpag0rdaptrNzSbRwP07VYCt1vK2NGjYGTuqpBUqABabSjwi2rp1gYNg+Dn9dKtKIPqA8xJbEYkKluDRkLUqzK5S4mln0djlTAfggsVGcFObw2qRdSf3OSRM/x9XrSNUkprqW43aCwkXgF9uQag408EV502qEENalCDRkKG8f95naLH6mn3PAAAAABJRU5ErkJggg==;" parent="1" vertex="1">
          <mxGeometry x="738" y="1340" width="58.9" height="100" as="geometry" />
        </mxCell>
        <mxCell id="EnO2U9nMXVYCDqS1bMv6-108" value="App Server&lt;br style=&quot;font-size: 16px;&quot;&gt;(for Mobile)" style="text;html=1;align=center;verticalAlign=middle;resizable=0;points=[];autosize=1;strokeColor=none;fillColor=none;fontSize=16;" parent="1" vertex="1">
          <mxGeometry x="557.86" y="200.23000000000002" width="100" height="50" as="geometry" />
        </mxCell>
        <mxCell id="EnO2U9nMXVYCDqS1bMv6-109" value="HTTP response" style="edgeStyle=orthogonalEdgeStyle;rounded=0;orthogonalLoop=1;jettySize=auto;html=1;entryX=1;entryY=0.75;entryDx=0;entryDy=0;" parent="1" source="EnO2U9nMXVYCDqS1bMv6-117" target="EnO2U9nMXVYCDqS1bMv6-136" edge="1">
          <mxGeometry x="0.2917" y="15" relative="1" as="geometry">
            <Array as="points">
              <mxPoint x="594.6" y="716" />
            </Array>
            <mxPoint as="offset" />
          </mxGeometry>
        </mxCell>
        <mxCell id="EnO2U9nMXVYCDqS1bMv6-110" style="edgeStyle=orthogonalEdgeStyle;rounded=0;orthogonalLoop=1;jettySize=auto;html=1;" parent="1" source="EnO2U9nMXVYCDqS1bMv6-117" target="nwyWPvqw7yzUZFVe9_Sw-8" edge="1">
          <mxGeometry relative="1" as="geometry">
            <Array as="points">
              <mxPoint x="469.6" y="840" />
              <mxPoint x="469.6" y="840" />
            </Array>
            <mxPoint x="439.6" y="841" as="targetPoint" />
          </mxGeometry>
        </mxCell>
        <mxCell id="EnO2U9nMXVYCDqS1bMv6-111" value="HTTP response" style="edgeLabel;html=1;align=center;verticalAlign=middle;resizable=0;points=[];" parent="EnO2U9nMXVYCDqS1bMv6-110" vertex="1" connectable="0">
          <mxGeometry x="-0.2736" y="2" relative="1" as="geometry">
            <mxPoint x="-4" y="9" as="offset" />
          </mxGeometry>
        </mxCell>
        <mxCell id="EnO2U9nMXVYCDqS1bMv6-112" style="edgeStyle=orthogonalEdgeStyle;rounded=0;orthogonalLoop=1;jettySize=auto;html=1;entryX=0;entryY=0.25;entryDx=0;entryDy=0;" parent="1" source="EnO2U9nMXVYCDqS1bMv6-117" target="EnO2U9nMXVYCDqS1bMv6-119" edge="1">
          <mxGeometry relative="1" as="geometry">
            <Array as="points">
              <mxPoint x="631.6" y="766" />
            </Array>
          </mxGeometry>
        </mxCell>
        <mxCell id="EnO2U9nMXVYCDqS1bMv6-113" value="API request" style="edgeLabel;html=1;align=center;verticalAlign=middle;resizable=0;points=[];" parent="EnO2U9nMXVYCDqS1bMv6-112" vertex="1" connectable="0">
          <mxGeometry x="0.6055" relative="1" as="geometry">
            <mxPoint x="-36" y="-15" as="offset" />
          </mxGeometry>
        </mxCell>
        <mxCell id="EnO2U9nMXVYCDqS1bMv6-114" value="SQL request" style="edgeStyle=orthogonalEdgeStyle;rounded=0;orthogonalLoop=1;jettySize=auto;html=1;entryX=0;entryY=0.75;entryDx=0;entryDy=0;" parent="1" source="EnO2U9nMXVYCDqS1bMv6-117" target="EnO2U9nMXVYCDqS1bMv6-122" edge="1">
          <mxGeometry x="0.087" y="-15" relative="1" as="geometry">
            <Array as="points">
              <mxPoint x="631.6" y="916" />
            </Array>
            <mxPoint as="offset" />
          </mxGeometry>
        </mxCell>
        <mxCell id="EnO2U9nMXVYCDqS1bMv6-115" style="edgeStyle=orthogonalEdgeStyle;rounded=0;orthogonalLoop=1;jettySize=auto;html=1;entryX=1;entryY=0.75;entryDx=0;entryDy=0;" parent="1" source="EnO2U9nMXVYCDqS1bMv6-117" target="EnO2U9nMXVYCDqS1bMv6-132" edge="1">
          <mxGeometry relative="1" as="geometry">
            <Array as="points">
              <mxPoint x="601.6" y="986" />
            </Array>
          </mxGeometry>
        </mxCell>
        <mxCell id="EnO2U9nMXVYCDqS1bMv6-116" value="Update Presentation" style="edgeLabel;html=1;align=center;verticalAlign=middle;resizable=0;points=[];" parent="EnO2U9nMXVYCDqS1bMv6-115" vertex="1" connectable="0">
          <mxGeometry x="0.0749" relative="1" as="geometry">
            <mxPoint x="5" y="11" as="offset" />
          </mxGeometry>
        </mxCell>
        <mxCell id="EnO2U9nMXVYCDqS1bMv6-117" value="Controller" style="rounded=0;whiteSpace=wrap;html=1;fontSize=20;fillColor=#d5e8d4;strokeColor=#82b366;" parent="1" vertex="1">
          <mxGeometry x="554.6" y="811" width="120" height="60" as="geometry" />
        </mxCell>
        <mxCell id="EnO2U9nMXVYCDqS1bMv6-118" value="API response" style="edgeStyle=orthogonalEdgeStyle;rounded=0;orthogonalLoop=1;jettySize=auto;html=1;entryX=0.75;entryY=0;entryDx=0;entryDy=0;" parent="1" source="EnO2U9nMXVYCDqS1bMv6-119" target="EnO2U9nMXVYCDqS1bMv6-117" edge="1">
          <mxGeometry x="-0.2182" y="10" relative="1" as="geometry">
            <mxPoint as="offset" />
          </mxGeometry>
        </mxCell>
        <mxCell id="EnO2U9nMXVYCDqS1bMv6-119" value="Model&lt;br&gt;(External)" style="rounded=0;whiteSpace=wrap;html=1;fontSize=20;fillColor=#e1d5e7;strokeColor=#9673a6;" parent="1" vertex="1">
          <mxGeometry x="724.6" y="751" width="120" height="60" as="geometry" />
        </mxCell>
        <mxCell id="EnO2U9nMXVYCDqS1bMv6-120" style="edgeStyle=orthogonalEdgeStyle;rounded=0;orthogonalLoop=1;jettySize=auto;html=1;entryX=0.75;entryY=1;entryDx=0;entryDy=0;" parent="1" source="EnO2U9nMXVYCDqS1bMv6-122" target="EnO2U9nMXVYCDqS1bMv6-117" edge="1">
          <mxGeometry relative="1" as="geometry" />
        </mxCell>
        <mxCell id="EnO2U9nMXVYCDqS1bMv6-121" value="SQL response" style="edgeLabel;html=1;align=center;verticalAlign=middle;resizable=0;points=[];" parent="EnO2U9nMXVYCDqS1bMv6-120" vertex="1" connectable="0">
          <mxGeometry x="-0.0691" y="-1" relative="1" as="geometry">
            <mxPoint x="8" y="-9" as="offset" />
          </mxGeometry>
        </mxCell>
        <mxCell id="EnO2U9nMXVYCDqS1bMv6-122" value="Model&lt;br&gt;(Internal)" style="rounded=0;whiteSpace=wrap;html=1;fontSize=20;fillColor=#dae8fc;strokeColor=#6c8ebf;" parent="1" vertex="1">
          <mxGeometry x="724.6" y="871" width="120" height="60" as="geometry" />
        </mxCell>
        <mxCell id="EnO2U9nMXVYCDqS1bMv6-123" value="User&lt;br&gt;Interface" style="edgeStyle=orthogonalEdgeStyle;rounded=0;orthogonalLoop=1;jettySize=auto;html=1;endArrow=classic;endFill=1;startArrow=classic;startFill=1;" parent="1" source="nwyWPvqw7yzUZFVe9_Sw-1" target="EnO2U9nMXVYCDqS1bMv6-127" edge="1">
          <mxGeometry x="0.4208" y="-20" relative="1" as="geometry">
            <mxPoint as="offset" />
            <mxPoint x="64.6" y="701" as="sourcePoint" />
            <Array as="points">
              <mxPoint x="139.6" y="690" />
              <mxPoint x="139.6" y="690" />
            </Array>
          </mxGeometry>
        </mxCell>
        <mxCell id="EnO2U9nMXVYCDqS1bMv6-125" style="edgeStyle=orthogonalEdgeStyle;rounded=0;orthogonalLoop=1;jettySize=auto;html=1;entryX=0;entryY=0.25;entryDx=0;entryDy=0;" parent="1" source="EnO2U9nMXVYCDqS1bMv6-127" target="EnO2U9nMXVYCDqS1bMv6-136" edge="1">
          <mxGeometry relative="1" as="geometry">
            <Array as="points">
              <mxPoint x="336.1" y="686" />
              <mxPoint x="336.1" y="686" />
            </Array>
          </mxGeometry>
        </mxCell>
        <mxCell id="EnO2U9nMXVYCDqS1bMv6-126" value="UI event" style="edgeLabel;html=1;align=center;verticalAlign=middle;resizable=0;points=[];" parent="EnO2U9nMXVYCDqS1bMv6-125" vertex="1" connectable="0">
          <mxGeometry x="0.2483" y="4" relative="1" as="geometry">
            <mxPoint x="-13" y="-11" as="offset" />
          </mxGeometry>
        </mxCell>
        <mxCell id="EnO2U9nMXVYCDqS1bMv6-127" value="View&lt;br&gt;(Mobile)" style="rounded=0;whiteSpace=wrap;html=1;fontSize=20;fillColor=#fff2cc;strokeColor=#d6b656;" parent="1" vertex="1">
          <mxGeometry x="156.1" y="671" width="120" height="60" as="geometry" />
        </mxCell>
        <mxCell id="EnO2U9nMXVYCDqS1bMv6-128" value="User&lt;br&gt;Interface" style="edgeStyle=orthogonalEdgeStyle;rounded=0;orthogonalLoop=1;jettySize=auto;html=1;endArrow=classic;endFill=1;startArrow=classic;startFill=1;" parent="1" source="EnO2U9nMXVYCDqS1bMv6-129" target="EnO2U9nMXVYCDqS1bMv6-132" edge="1">
          <mxGeometry y="20" relative="1" as="geometry">
            <mxPoint as="offset" />
          </mxGeometry>
        </mxCell>
        <mxCell id="EnO2U9nMXVYCDqS1bMv6-129" value="User&lt;br&gt;(Medical Staff)" style="shape=umlActor;verticalLabelPosition=bottom;verticalAlign=top;html=1;outlineConnect=0;fontSize=16;fillColor=#ffe6cc;strokeColor=#d79b00;" parent="1" vertex="1">
          <mxGeometry x="84.6" y="941" width="30" height="60" as="geometry" />
        </mxCell>
        <mxCell id="EnO2U9nMXVYCDqS1bMv6-130" style="edgeStyle=orthogonalEdgeStyle;rounded=0;orthogonalLoop=1;jettySize=auto;html=1;entryX=0.25;entryY=1;entryDx=0;entryDy=0;" parent="1" source="EnO2U9nMXVYCDqS1bMv6-132" target="EnO2U9nMXVYCDqS1bMv6-117" edge="1">
          <mxGeometry relative="1" as="geometry">
            <Array as="points">
              <mxPoint x="584.6" y="961" />
            </Array>
          </mxGeometry>
        </mxCell>
        <mxCell id="EnO2U9nMXVYCDqS1bMv6-131" value="HTTP request" style="edgeLabel;html=1;align=center;verticalAlign=middle;resizable=0;points=[];" parent="EnO2U9nMXVYCDqS1bMv6-130" vertex="1" connectable="0">
          <mxGeometry x="-0.1586" y="-1" relative="1" as="geometry">
            <mxPoint x="-7" y="-11" as="offset" />
          </mxGeometry>
        </mxCell>
        <mxCell id="EnO2U9nMXVYCDqS1bMv6-132" value="View&lt;br&gt;(Web)" style="rounded=0;whiteSpace=wrap;html=1;fontSize=20;fillColor=#d5e8d4;strokeColor=#82b366;" parent="1" vertex="1">
          <mxGeometry x="234.6" y="941" width="120" height="60" as="geometry" />
        </mxCell>
        <mxCell id="EnO2U9nMXVYCDqS1bMv6-133" style="edgeStyle=orthogonalEdgeStyle;rounded=0;orthogonalLoop=1;jettySize=auto;html=1;entryX=1;entryY=0.75;entryDx=0;entryDy=0;" parent="1" source="EnO2U9nMXVYCDqS1bMv6-136" target="EnO2U9nMXVYCDqS1bMv6-127" edge="1">
          <mxGeometry relative="1" as="geometry">
            <Array as="points">
              <mxPoint x="346.1" y="716" />
              <mxPoint x="346.1" y="716" />
            </Array>
          </mxGeometry>
        </mxCell>
        <mxCell id="EnO2U9nMXVYCDqS1bMv6-134" value="Update" style="edgeLabel;html=1;align=center;verticalAlign=middle;resizable=0;points=[];" parent="EnO2U9nMXVYCDqS1bMv6-133" vertex="1" connectable="0">
          <mxGeometry x="0.228" y="-1" relative="1" as="geometry">
            <mxPoint x="11" y="16" as="offset" />
          </mxGeometry>
        </mxCell>
        <mxCell id="EnO2U9nMXVYCDqS1bMv6-135" value="HTTP request" style="edgeStyle=orthogonalEdgeStyle;rounded=0;orthogonalLoop=1;jettySize=auto;html=1;entryX=0.5;entryY=0;entryDx=0;entryDy=0;" parent="1" source="EnO2U9nMXVYCDqS1bMv6-136" target="EnO2U9nMXVYCDqS1bMv6-117" edge="1">
          <mxGeometry x="-0.0182" y="10" relative="1" as="geometry">
            <mxPoint as="offset" />
          </mxGeometry>
        </mxCell>
        <mxCell id="EnO2U9nMXVYCDqS1bMv6-136" value="Controller" style="rounded=0;whiteSpace=wrap;html=1;fontSize=20;fillColor=#fff2cc;strokeColor=#d6b656;" parent="1" vertex="1">
          <mxGeometry x="351.1" y="671" width="120" height="60" as="geometry" />
        </mxCell>
        <mxCell id="EnO2U9nMXVYCDqS1bMv6-144" style="edgeStyle=orthogonalEdgeStyle;rounded=0;orthogonalLoop=1;jettySize=auto;html=1;entryX=0;entryY=0.25;entryDx=0;entryDy=0;" parent="1" source="nwyWPvqw7yzUZFVe9_Sw-8" target="EnO2U9nMXVYCDqS1bMv6-117" edge="1">
          <mxGeometry relative="1" as="geometry">
            <Array as="points">
              <mxPoint x="469.6" y="826" />
              <mxPoint x="469.6" y="826" />
            </Array>
            <mxPoint x="439.6" y="826" as="sourcePoint" />
          </mxGeometry>
        </mxCell>
        <mxCell id="EnO2U9nMXVYCDqS1bMv6-145" value="HTTP request" style="edgeLabel;html=1;align=center;verticalAlign=middle;resizable=0;points=[];" parent="EnO2U9nMXVYCDqS1bMv6-144" vertex="1" connectable="0">
          <mxGeometry x="0.1905" y="3" relative="1" as="geometry">
            <mxPoint x="-4" y="-8" as="offset" />
          </mxGeometry>
        </mxCell>
        <mxCell id="EnO2U9nMXVYCDqS1bMv6-148" value="Framework" style="shape=umlFrame;whiteSpace=wrap;html=1;pointerEvents=0;width=96;height=30;fillColor=#fff2cc;strokeColor=#d6b656;" parent="1" vertex="1">
          <mxGeometry x="97.1" y="630" width="395" height="120" as="geometry" />
        </mxCell>
        <mxCell id="EnO2U9nMXVYCDqS1bMv6-149" value="&lt;font style=&quot;font-size: 16px;&quot;&gt;3-Tiers&lt;/font&gt;" style="rounded=0;whiteSpace=wrap;html=1;fontStyle=1;fillColor=#f5f5f5;fontColor=#333333;strokeColor=#666666;" parent="1" vertex="1">
          <mxGeometry x="725" y="110" width="110" height="30" as="geometry" />
        </mxCell>
        <mxCell id="EnO2U9nMXVYCDqS1bMv6-150" value="&lt;font style=&quot;font-size: 16px;&quot;&gt;3-Layers&lt;/font&gt;" style="rounded=0;whiteSpace=wrap;html=1;fontStyle=1;fillColor=#f5f5f5;fontColor=#333333;strokeColor=#666666;" parent="1" vertex="1">
          <mxGeometry x="725" y="630" width="110" height="30" as="geometry" />
        </mxCell>
        <mxCell id="EnO2U9nMXVYCDqS1bMv6-152" value="" style="shape=image;verticalLabelPosition=bottom;labelBackgroundColor=default;verticalAlign=top;aspect=fixed;imageAspect=0;image=data:image/png,iVBORw0KGgoAAAANSUhEUgAAAJQAAAA/CAYAAAAG5+H5AAAAAXNSR0IArs4c6QAAAARnQU1BAACxjwv8YQUAAAAJcEhZcwAAFiUAABYlAUlSJPAAABTzSURBVHhe7V2JcxzVneYPCL4A4w0VqBCSLEnYYheoIlSCZEuyjQ0B42AwzmIgxCZgG5JwFBgoKjGsuYM5AkWtj/gCm11cdjgN9mJbozmlkSXZsmyN7vuyLVkazUzPb7/fe681PeOe6R5pJKbCfOZTv+7+9et3fO/3ju4ezskhhxxyyCGHbzkohxxsQMnFGso+hxxSQsnFGso+hxxSQsnFGso+h/FE1AazHEou1lD2OWQYrJHTja3U/pWT2r50gU6EXSZ0Uwe2rbCLhiLy4iyEkos1lH2a0JuVZtgaaXYskXau522qsHE/u6BFo3TsT69T6aSZgr7Js6gULAN9U5gFYp/pn1RE7stvIwpxXrITSi7WUPaWiKKA+nzHqG7dTqp74wPwfbVNwjdxXtAYVtfwsUT7UbIe7DxUplKZPdC0KJXOehBimUl+JSSdupBixwqo6jfPyLaRpVBysYayt4EoHX/4FaqYXETlk2eDRSgonbNNwoXmnDQbBcjU7fVrjGRbPR79vNFeskzYFVHz+t0qjdkDbWCIHBfOVYKJF9LZLKDAK1uFV8tWKLlYQ9mnhuhZ0OLylqFg8kG48SnMfLXVw6ChoNhOFmQBXDxsDGEv6NOvV8fFNi4uwznjcXUNdxsl2D91+IRMZxahz32Y3CLNsotLJSgvvFj3Ad+3SFBABC3ONX2OEgkXVBIaCiqVoHTGrjEKSj9uOGc8Ls5JQTm+dwNpQ8MqldkAiCKqUf1bH1DZ1Ng4KRm5fA5dUERa7ymKfJsE1euuIs8kWQA6zQpooll2wyrUXzZVhAZJaVR17xoIPyYoMRA3pFunfxJsrvsdvFNYCipLNaXkYg1lb4EoNb7zIQqAvUo2CaqAalf/DcnLrlrgrqvyT+uo8s6nqWLxU5Y8/sZ2ikCEfF22+iglF2so+9RARquWP48KzDJBoXU3f7Q/I7MjrsjEyhxt5QpHA6/JAmHnmYr8R9jibkw+ZA/SVrcXUeGvjCMhHsNO3PE0oORiDWWfGigY37X3ohLl2CUbBMXCLsaAPNjQIUuJa3GU4CWRqBahyGCQwj2nKdR5kkJd4MkBoqGQ6lLTi1/EOYY0mYPjhGTCGoV7+6mvspbaPnFQ26ZPqXHdTmp44e/U8Px6qv+v9dTw8lZqfG8Xte34irqKD1OwqZOigyGxnDGadCm5WEPZJwfuHekboOLpPEU3r1wzei6aT+4rbidXHO9Q29vARSrMW95n6jZGO/24fk4eL/m3RVT8s0XUtvVzatn+JbW+/yW1JGHr+3up82A5ClJmCJ0LHIMG4fRS0/bP6OiDL5Dv+uXkvPQWKsEA2TmtgFznFVLJjLnk/tGvyT/rATr20KvU+r/7KNSDwTNXrCgcc/R4j1LrB1+Ae+PY8v4XSGs8m3fvM9UqH5LJRXo1jQbr26hhwx6qxtjMc81Scs2YQ64peeTlXoMnOihzDsvy50lMAXkweeGG58LM3DFtJpX88FaqWvAo1b6yjQaONWLMxv4M9ZsyNxJKLtZQ9knBvUl3cTmm+TyNP1s4ZuTZ24nVbxOhJVE4orYgrwQzjcdEOKxotGEajsedw7FQhGp+/zx5p+YjbWrQq8j7Ror0PPmGaN1cQSdLj1DVb/9MzovmYcpeiDTPBgvJhy7UxyvbhrwIT4zJSOnkIsRViFnljVT90Es0EGgUpWOsCiECxF+24BHcMw+ViuuMFBVuJOKfbz6pYMmGT52mpk17yDdnBRWfX4i0II28/oa49OUbISTs6+R8SGKfy0aVT6k+45wk9x3nF5F//h+pa68T94cXVndNBiUXayj7pOBbBOBOy1jtnCBLFojV4eadn1u25LGAteH7+b0oMF6G4MJO7Iq5AGUhcuE379pHwbZuql7+IrnPgziUXfw19umCB657cztp4aAUKsB/I6EgOb+/QJSB2XXxLKTAU+/GlRL7z/DAGap7bavwjj4hDvY4xnW5zNCHhuKCJ6u461ka6uxBfSV/lqjkYg1lnxzI65F7eAqcb1NQs8iJChysrhtXQYVP9lMJuiVubUZBxdIRE5QDae9A1+j6ye2wQQWhENmT8Tnz64z7ycldSuWKtaSF4DEBzuvpmgZUkrm9kVyWZajQ1t0HRq5lf9e1z0Xuq5eKPPFTAC/SyvRMld2XWVxjocz7TPL8YikNtmKchbGkGZRcrKHskyMSId+VS9IQ1ExyXHwTEQ8ARcsdH0l17/eKdTEpqIIRUUi3H08ve6QL5yEsxVSmmGgnxSS7C2siDnSXninXU82z78BLoSKQ1Zatn414v1Tksjw4NY+C9ZhUoJg0dP3H17xHJeiKOF4p/FhaWFQ8VjLGkSmKekX9em9YSRomIWZQcrGGsk8Knu24MUhNx0P5i1agbFlMsivIPKJU/+o23IsLPZPdQDqC0onBLkTQ667k4RlV//F1Exszwiv8dCFFIygpVGLlsjUQDd873ftnjj6MrxrfM38uquRiDWWfFB17XRASKi0NQVXe/Sz1VwXAOrAebBg7jzTQYHOX8Hc8Zqm64ynca/SCinVzLCL2cLqYRlehFQsfhzg08uffb3o+kTxRqPrNaopgslF5/wvkQRn7pvCAu8jU3kiuBzEgF+PafDHb42eaTnSLLojCI7w05ym9suF69v7HUoryRCkBSi7WUPZJEXhxs+pG7A7K4Z6RKTfsOYNOzDLGzuvJNS2fjq5+k8IQUxQzPfflt+JeeoGl1xXI2VIBPEsBOS+5iTyX3UzO783F1JoL1bpCE8kV68B4bvBIHR2cbu96fjhe9+oWOvHiFtGdccOQXbGd64uo+LvzqAqD6ab1u6jHW0lDDW0UbO6gMxjDdXzlocBzG8l75V1CpOZxmNOJcjlZcVzMVo1QcrGGsjeF8ASLn8GN5DqH3T5ctiDzc6MjWg7u3b5zLzrRiBh3FKNlxs5bp8vPU380DNcPF9CJJ9+mnq99NNzRS5GhIGnDYcyshihY20JNWz4hz6z7RYWLeHkrwmfHaSSXzdGVL8LTmJ9PJK8ZBdBtOy+QZRs7lyovheScBs+26iUagnjEIieT/bZe/8KFc92hKx0cpiN/eC0h/tTkWWXztk/HQVCIT4M79vzkDjFI5P59vAaFdugEB+taRAG27jogHruY2ZmRC9QztYCOrX6LQn2nkTVe2tRHefEFxxMJFlgNbMWaD3tBdCdm8SbSC28n15us6YVHK/+5ve5Rpxver3Xn5yiD5NP7RESHh8mb91vkhRuFdcNg1sNzxpdKhjzUcGs3OdBt8U3Gc5ZhSXgI12ULScOMk1tOYPXfhEhMbU3oRNfWuu2zkQVE/ivJf/XJgzw3shcOUXnRKtP4MkU7r7cweXznmVYoVt/FGwmx5FqCm03N69uoZCq823koi/MwhMAky4n4krHmpQ3q6hiUXKyh7E3R9knxSNeVTgVmnBBU1eLVonB4RbPshodtp4eXFI6v3SBmU1wXXA86JZLs4T4N63ebxjmR5PLn9arKZX+Rz+H09NkEX6EFhynSe1qxX3EggfrxfnSVg+rqGJRcrKHsTRFYs0G0DrOMTiTZXZ94YaOoZC04RI6L5lPpufbS5bnqToqeGUqrVQtAfT0OP8Y69h85jQdZUK4LZ6O7b5VvJ4DpZsUeUseq5GINZX8WuGupXPhYmp6JKzk2gC/jZ2MqLJkYTnVOhjlefkTQvd+N7EbpZPkxcvFxG2Movr7+vZ3ISzjtWuB79UJQcuxhHv9EsXzJk+IBMWeBKfKReUWlhJKLNZT9WeBXJDyX8dTcPJNmdM+YR+5r7ibvVUvJd9XdikvJezWOMbEfF9b3r7onIRy7xn3NUjp07d0U6TklyrDlv3cLoYrPk0zSoJNFWTJtFg23dGDcgUFsmoLiwXrT9i9kl2OId6LJ927avEekaURHI4GJg5KLNZT9WThT1y6eSdkvzAKqXPIMBs7DxG8QRCP87k0I2wiOhSiCsKaFE8JhFQYRFltBXIOtPCfjCqtHG0ceeFGMKazSJT6CuGKRWGxkb5s4DbZGlKofWSfuU85LDgnxTxR5Ta+/ul6l6ZuDkos1lH0cuOjb/mcfMpSOuy+gwNqN8AYQhmjfiEVUoqTYtxFO3NfDDBaH99p7hHeyFno+lc9dNQohSWjDIXL/bLGIy36jyjwd0/JJO30G+RCd3SgRK0MJfT9GWWNGm3gouVhD2ScgSsefepvKzrU/IOVHBx17DogkyRUeEcgotJ5+OnCBHKdJmqdFEB7qcNFKvkpenAY42W0ffS0WU03jnkC6zi8Qkwq59pRegbJAwp29FKxtTmAj2KTI4UYa4nAA265edXU8lFysoezjwMmunL9KCIrHImZP8OOIyjs0JZ8GG9tlBDoyLKju/T7yowuQz9tQ2SkWHPlVj5KLfyVneGkmZLivnzz/vkSsvZnFPZHkV4HOBHhBN01BwZSn/06MTYunFCGeIirB2LME3Xf8VoadmDU74PlbPj6kIoiHkos1lH08gmFyXXKjePrMmWJRJWY0jrzweOktGMhjNjXSxfBWHwnzVg/r582Q7BpCV0oUeGmLofvh7jh1l8yPQZo2f5z6lgmIDAxS2a8fEWMwy4Y0CnL6k78+czb5OWH9O3KmmqpLMkKUnhalmqffQt0UynuJJx2yLk2JvHrylpOW5Ac7lFysoezjcOZoPbm+k29/DQaZ9s9ZQcH2Dhru6KBQezfYCXK4S22ZfAxs68VWt9HJdrxNvEYeD3Z0U+VtT+B+8im63Sfp7ovnU++hcmtR4fypqgCVFv5eFu5UG54ZFO9i8es9JufMWI5KY69jds6caKw/XUShzm5LQelnI5pGta9tFw3Kr8RrJWDXtELq2uehZF8vK7lYQ9nHoXHbZ+T/Dj+QtZdxfg+bX3YrQTjGQnKgQooVOSyPw8WikMRx2DDlMbnV7cU1hrj4HI9puDWZpSEZuSCd582mquVrxduQQYwpNH4gHBwWD4SH6lqp5cO9YobqPJ9/c8E8HjOy6Pw3/YG80+2+8gJv8/wGcvzLHDFTNbcxI/L9i/vodEUtPJU+eI55bwYfZyH1H6mjqjufITcE4rP5aIfLtOLB58WMPBmUXKyh7ONw7LF15D/XvqCSkVu6kcnOJTuernjMqLdMPyrTOymPHBjUe77/K/LwFy7wXsVT8lDwsOXC57QkpCcZ2UM6/nUBte3cC09gr5y4PHuKS8m/8FFcb9+rSeaT+4JCqlj0BDWiC+xA4+gpPUq93mpq/0cxBV7+O/lvfJicF6BRYDwk4rfwSpL55LlqCYV6MRhPMSNWcrGGso8BcXpnr0Cixi6obKDu7q2odw32WvVMcsLLdB/wUuO6HbYH74emF5DWd5paP9oPEaYrKORFLOjKd815YsJdshuUXVsRlWPoUaYe5vN5/hWb1LPhmeRGw+qvCGDMxR5P1r8ZlFysoexHEBkcJhcKS36Dl36m/5kpBtQsphlF1L77a3QRYaq668/i0ZCZfTxRudfdJ16PiYbCVFb44Jg8sPRwaACj9OR8jevSm6nPUYF8qMpPASUXayh7AV7c6vPXiLctM9HdfJNM7EozQ4wVf3ATde11YbyCpoxZrefKJWJsZ25vZCFVr3pFrPjzIuXA0YDodjlOc/vxof72rffqpdRXeVw9lUje1elQcrGGspdAH9qyfhduqBfQxGY2U/TMmJvxKT+/yegreoD6T3D3EAXl+2KHMMPjFxDNrolnATVv+hgeir9+wwAa25OuKnL8+Dak1e6gfuzkd6Gq7n+OQl194v0w/pGOVN/j6VBysYayF+DZQ/XKl0V3p7OMH3Mo6l6LXb/Rxkg+x3aye0huo2fQKi7dzi49qPjmTXvI88vfwUuNrUHw/VmYJT+4RXzUGQkGRSmJ/8D2Txzo7uQ4RU+rPqHQr5eUHw+crqoTZcz+gP+yYzjT0Ezltz8hfpxM2PI4CdvMkT9J5+/6EPfcldT9f7w0IL2kXucyRamh5GINZS8RiZIT/Tw/FHah1TCdqCB+cZ1ZwoWLxDH5lVxJjCkMLEHBxGx0u3gbaWeMK7mdC+MTfqxjXljxFL9ohxbIjw/CGPxWP/pXKuGfJRSLeyhQQR58G8Px1L/b427fc8ViCry0mULtPagE46KtDB5/dj3SVwRbtmeirHAtk8MeiIOXUziug5fME68Wi2vFX7kVz9AiIbGkUXHr41QyfY7whiJPJg3CfiPBgJvzcMnNdPS+NdRV7CMtPIyb2hgwmUDJxRrKXoDXMjoxSOs5eBgsA0up28gDZfFhQf/ZHLHR7Uxs4uJKbteDc+W3PGRSYGeTPYPn6iUUUa8Kc790pq6Fap9bT778ZZh28w9MKA8yFV3YNAgNsyLP1DxyMTEZ8V13D9U89lfq3ufGBMX40WPiuo9GfRgH8ccOPV+XinTKfEjyviTKkek9AlHGrtchRcXAX4xnhupbqB7DjiP3/oXcV/8n0nQDBMqfRl2PdOeRl5c4WPgsOs4Hn5t8PYT9S/EVj+tHC6hi/sN04ul3qesLJ4VPDqBri3kjFTBmxRaUXKyh7JNAv/M3R/402nftXWeJx4zcZRxdtoavwrUyCqErDkc0Cnefol7fMWrbdZDaN35MrRv2UNuWz6nt0xI6WVErfsqHv0ljryEu5GiYScBjoZhRasp/5pDHE+zwh2eD/EruQE0TdR70U/tHB6h982fUunEPtWzYTW2b/kHtO/ZR51c+OlV+gkIdvaQF+eeHkAOkX1KPf2xQcrGGss9ahHtPkQMtz0xAieSxSuDdD9WVVshEMX9T4LTHe8zxhpKLNZR91qL7Ky+m5fbGDbxizT/Vk0PmoeRiDWWfpYhSXdwbBqlZ/N054vfBc8g8lFysoeyzFGGqWPw0xGKvyztc+IDpd/k5jB1KLtZQ9lkJnk67Lr8dYrEWFK8X1Ty+jsI8vc8h41BysYayz0JEKVjXKl5hsSMo/kGulh2fy/WiHDIOJRdrKPusA0+eWz/cJ1aOYyvOySlelT3RgrlPTlDjASUXayj7rAN/6FD75DvwPvr/W4Y9Ec/2+BEQtpNkWN93/vhmig6HaWxfh+SQDEou1lD2WQdeVW7ZsZea1m4Ct1LTC+DaLYKNaquHG9dupuatn5LGv1+Q09O4QMnFGso+hxxSQsnFGso+hxxSQsklhxxyyCGHHHLIIYdR45xz/h93mAnSmr3DPgAAAABJRU5ErkJggg==;" parent="1" vertex="1">
          <mxGeometry x="720.47" y="1150" width="93.97" height="40" as="geometry" />
        </mxCell>
        <mxCell id="EnO2U9nMXVYCDqS1bMv6-153" value="" style="shape=image;verticalLabelPosition=bottom;labelBackgroundColor=default;verticalAlign=top;aspect=fixed;imageAspect=0;image=data:image/png,iVBORw0KGgoAAAANSUhEUgAAAFwAAAByCAYAAADeSbYeAAAAAXNSR0IArs4c6QAAAARnQU1BAACxjwv8YQUAAAAJcEhZcwAAFiUAABYlAUlSJPAAAAa5SURBVHhe7dtbbBRVGAfwU5WLL17eBcVHXtFovKHIzq4UreIuRE2ID4YHr4iKXC1QsHK/lFIKO9tEIwreZXc1AdPEnVkuqcEYjIZgiPhq1Cd298xkjt/MnhNte0qXmdkzJ2fmn/wTEtLu9/16cjpDAlI5c4fJDVrVOqKZ2JahadPaSEdTLy522sAfwZJEhsIPvoeOpl6a2JY82Ibq2BX8MW/xKKo+tikTdiPBFlU42ZvoaOolwRaYJrYlDTZU7Uc/zcBHOUtHVcWxzQRbSJrYljzYFYWx54yMTJEK27Q20NHUy5wRMgXu7GOcpaNqgi2wimNXbWmw4QffTUdTLwm2wLjYaQN/wls8iibYAqsZddWxbXmwq/gdOpp68bCrEmEbqmOb+FPe4lE0wRZavJ6Opl6a2HaCLSLLZMOuKH6yNRN/xl08ktrr6GjqRT5snGCLakp5bAN/zls8imqGvZaOpl5yx85PlQsbJ9iiqjg2mQpPAAm2iHjYBv6Ct3gkNfAaOpp6yZ1PsIUlwRaYJrYtD3bVXk1HUy8uNrzUfMldPIpWcYItqqlKgi2sSmPPdl9qTFsa7IyJV9HR1Mts76VGojdIlbGle4OsqI4t0XM2nOy36WjqJcEWGNneIGOALdEbpGGvpKOpF+neIA2cYAtrgi2w6mPL8waZruK36GjqhZ7sr7iLR9CUkWALa4ItsDDLm3Q09ULvbEmwsRMU29un0tgFv2g/lKFaFS+no9HhDPw1f3nx1SrBsWFJefYxrLOdlX9u9YbLlC9MkwrbtN/wBvMZbx9TWmxnWtq0JcLGAbHdfeTC7jpHbqHjIQTDyfN/akLBlujwjMV2o5nWQli0zvsCoTXsFXQkX/GwDXyc+70jqGY0zs4dHoPNEi06dlTDhp6ZEJtFM+sRoLvYWC1swzrTNRk2i/a9SPSYY7PAF3a2Hx07mar9Ov1IX3Gx4VG2yP/+ERSwJ71GJgp8g05Ypj3oBnZSBg6GfUEybNM67RubBb5J+OjKYv8dDJslbdbDQw8DW7ZrBLDnj5Cb6XjhJBR0wB71Dzd+MkSmzzrZkOnODh+bJWNYC+BDauM+tJW62JWA2MNkOirWyqhUJ7O+a/A/R2Tbic3iCz0M7KFL0zuKtZKLzXrnyejQ4SXxVNuxWZrouDV0wE6b9mv0S/2Fg80K1wv/c9tYodgsqVPWY5Oie9g4GPYwYJf42Kx3CESPBJvlquhhYLsnexJsVhHoHvaJiLBZUhUOuotdCXqyiXuNeL8gW2070TXDxf4rWmyWUeiAnTLtV+lf+YsPbNbb24CuGQ15sFm0qpUB7CsAHxk2a5jocI1UpcNmmV+5MpP+0V9CwGYNA93Fzpx2bqLTKRYXu9wIBZt1ZgB09bFL9W94aEHrBz3BDthrQq9aZoIdQme0gm4k2KH2quhKYx+9fGNHsf4tD6Xd5aLH4GRHgs0648T/0D3sPxXFLjvTosZmvQ3Q4WnEyJRVxXZzjFyPyvUCD0B4h/5wOpYeyaPu7uvodIqGkOtQsa5zEUQVsNFzHxC0uOB2EIbqoNMpmib6IS5Guzsam3VAffRuQC/VB8eBtLOFy4D9/ljsZnP6wTic9A446QNcnLBb+N1Bzwzxsf/rgXigH6/3c5HCqn7JQblBOMV5HvLo5vT+eKCX631crKDN/+agRX0ELRrgA/OajctJL9b2cNH89vBFB3XtJKhrLyAe5uNO2Pz+uKDv5uJdaw9dcNDCXoI6txP05H73quCgTla9T310d8FibScXsdUO/uqgzEaCMlsIenwXXCcHOZgtNhsX9FJtGxdzsh78xUGptQSlugla8B5cJ/t8XCfjujcG6JBibSsXdaIO/OygeSsJemQVQelNBC3cQdBT/T6vkzHN6fvigV6q9XJxx/bAeQfNXU7QQysIenRd8zp5YjdBT8PjIA/QV/U9MFEs0DdzkVn7f3LQAy8SdP/LBD0MJ9y7TrbCdQKPg608e19Lc4XdMFEs0Hu42Pt/dNC9LxB0zzKCHoQTPm81XCc99FHwEB8tcONz0jeMwu4756C7lxJ01/ME3fdS82S70GGfal6zQzthojj8Ir3S7WHv+8FBc56Fa+SV5tNI207z1RoX9MMX16POXifcX4h+q8cEfXFh3fjlo6q+HSZK0IU2l98BE8UAPZuX6KQXttGpFE9WX8tZPprmClvpVIpniUToWT056RG0l06leHKFNZzlo2qCLrzZ2KDnJTrp+hY6leJZXFg9fvmImtPfpVMpHpnQs4XNdCrFI9dJ76FTKZ4lQ6vgLrWlaLaw8V9Os7WqsO4GrwAAAABJRU5ErkJggg==;" parent="1" vertex="1">
          <mxGeometry x="227.16" y="1200" width="48.42" height="60" as="geometry" />
        </mxCell>
        <mxCell id="EnO2U9nMXVYCDqS1bMv6-154" value="" style="shape=image;verticalLabelPosition=bottom;labelBackgroundColor=default;verticalAlign=top;aspect=fixed;imageAspect=0;image=https://db.apache.org/derby/logo/final_derbylogo.svg;" parent="1" vertex="1">
          <mxGeometry x="727.58" y="1260" width="71.72" height="50" as="geometry" />
        </mxCell>
        <mxCell id="EnO2U9nMXVYCDqS1bMv6-156" value="" style="shape=image;verticalLabelPosition=bottom;labelBackgroundColor=default;verticalAlign=top;aspect=fixed;imageAspect=0;image=https://static-00.iconduck.com/assets.00/flask-icon-2048x1826-nxzeqh6a.png;" parent="1" vertex="1">
          <mxGeometry x="565.52" y="1195.17" width="72.71" height="64.83" as="geometry" />
        </mxCell>
        <mxCell id="nwyWPvqw7yzUZFVe9_Sw-1" value="User&lt;br style=&quot;font-size: 16px;&quot;&gt;(Patient)" style="shape=umlActor;verticalLabelPosition=bottom;verticalAlign=top;html=1;outlineConnect=0;fontSize=16;fillColor=#f8cecc;strokeColor=#b85450;" parent="1" vertex="1">
          <mxGeometry x="36.16" y="650" width="30" height="60" as="geometry" />
        </mxCell>
        <mxCell id="nwyWPvqw7yzUZFVe9_Sw-2" value="User&lt;br&gt;Interface" style="edgeStyle=orthogonalEdgeStyle;rounded=0;orthogonalLoop=1;jettySize=auto;html=1;endArrow=classic;endFill=1;startArrow=classic;startFill=1;" parent="1" source="nwyWPvqw7yzUZFVe9_Sw-10" target="nwyWPvqw7yzUZFVe9_Sw-5" edge="1">
          <mxGeometry x="0.4208" y="-20" relative="1" as="geometry">
            <mxPoint as="offset" />
            <mxPoint x="43.599999999999994" y="841" as="sourcePoint" />
            <Array as="points">
              <mxPoint x="118.6" y="830" />
              <mxPoint x="118.6" y="830" />
            </Array>
          </mxGeometry>
        </mxCell>
        <mxCell id="nwyWPvqw7yzUZFVe9_Sw-3" style="edgeStyle=orthogonalEdgeStyle;rounded=0;orthogonalLoop=1;jettySize=auto;html=1;entryX=0;entryY=0.25;entryDx=0;entryDy=0;" parent="1" source="nwyWPvqw7yzUZFVe9_Sw-5" target="nwyWPvqw7yzUZFVe9_Sw-8" edge="1">
          <mxGeometry relative="1" as="geometry">
            <Array as="points">
              <mxPoint x="315.1" y="826" />
              <mxPoint x="315.1" y="826" />
            </Array>
          </mxGeometry>
        </mxCell>
        <mxCell id="nwyWPvqw7yzUZFVe9_Sw-4" value="UI event" style="edgeLabel;html=1;align=center;verticalAlign=middle;resizable=0;points=[];" parent="nwyWPvqw7yzUZFVe9_Sw-3" vertex="1" connectable="0">
          <mxGeometry x="0.2483" y="4" relative="1" as="geometry">
            <mxPoint x="-13" y="-11" as="offset" />
          </mxGeometry>
        </mxCell>
        <mxCell id="nwyWPvqw7yzUZFVe9_Sw-5" value="View&lt;br&gt;(Mobile)" style="rounded=0;whiteSpace=wrap;html=1;fontSize=20;fillColor=#fff2cc;strokeColor=#d6b656;" parent="1" vertex="1">
          <mxGeometry x="135.1" y="811" width="120" height="60" as="geometry" />
        </mxCell>
        <mxCell id="nwyWPvqw7yzUZFVe9_Sw-6" style="edgeStyle=orthogonalEdgeStyle;rounded=0;orthogonalLoop=1;jettySize=auto;html=1;entryX=1;entryY=0.75;entryDx=0;entryDy=0;" parent="1" source="nwyWPvqw7yzUZFVe9_Sw-8" target="nwyWPvqw7yzUZFVe9_Sw-5" edge="1">
          <mxGeometry relative="1" as="geometry">
            <Array as="points">
              <mxPoint x="325.1" y="856" />
              <mxPoint x="325.1" y="856" />
            </Array>
          </mxGeometry>
        </mxCell>
        <mxCell id="nwyWPvqw7yzUZFVe9_Sw-7" value="Update" style="edgeLabel;html=1;align=center;verticalAlign=middle;resizable=0;points=[];" parent="nwyWPvqw7yzUZFVe9_Sw-6" vertex="1" connectable="0">
          <mxGeometry x="0.228" y="-1" relative="1" as="geometry">
            <mxPoint x="11" y="16" as="offset" />
          </mxGeometry>
        </mxCell>
        <mxCell id="nwyWPvqw7yzUZFVe9_Sw-8" value="Controller" style="rounded=0;whiteSpace=wrap;html=1;fontSize=20;fillColor=#fff2cc;strokeColor=#d6b656;" parent="1" vertex="1">
          <mxGeometry x="330.1" y="811" width="120" height="60" as="geometry" />
        </mxCell>
        <mxCell id="nwyWPvqw7yzUZFVe9_Sw-9" value="Framework" style="shape=umlFrame;whiteSpace=wrap;html=1;pointerEvents=0;width=96;height=30;fillColor=#fff2cc;strokeColor=#d6b656;" parent="1" vertex="1">
          <mxGeometry x="76.1" y="770" width="395" height="120" as="geometry" />
        </mxCell>
        <mxCell id="nwyWPvqw7yzUZFVe9_Sw-10" value="User&lt;br style=&quot;font-size: 16px;&quot;&gt;(Patient)" style="shape=umlActor;verticalLabelPosition=bottom;verticalAlign=top;html=1;outlineConnect=0;fontSize=16;fillColor=#f8cecc;strokeColor=#b85450;" parent="1" vertex="1">
          <mxGeometry x="15.16" y="790" width="30" height="60" as="geometry" />
        </mxCell>
      </root>
    </mxGraphModel>
  </diagram>
  <diagram id="WSsQmn_6JVsS_eSmNNxz" name="use_case_diagram">
    <mxGraphModel dx="992" dy="828" grid="1" gridSize="10" guides="1" tooltips="1" connect="1" arrows="1" fold="1" page="1" pageScale="1" pageWidth="850" pageHeight="1100" math="0" shadow="0">
      <root>
        <mxCell id="0" />
        <mxCell id="1" parent="0" />
        <mxCell id="fq6XW8bP3-5Oe7-prgqa-1" value="System&lt;br&gt;&lt;br&gt;&lt;br&gt;&lt;br&gt;&lt;br&gt;&lt;br&gt;&lt;br&gt;&lt;br&gt;&lt;br&gt;&lt;br&gt;&lt;br&gt;&lt;br&gt;&lt;br&gt;&lt;br&gt;&lt;br&gt;&lt;br&gt;&lt;br&gt;&lt;br&gt;&lt;br&gt;&lt;br&gt;&lt;br&gt;&lt;br&gt;&lt;br&gt;&lt;br&gt;&lt;br&gt;&lt;br&gt;&lt;br&gt;&lt;br&gt;&lt;br&gt;&lt;br&gt;&lt;br&gt;&lt;br&gt;&lt;br&gt;&lt;br&gt;&lt;br&gt;&lt;br&gt;&lt;br&gt;&lt;br&gt;&lt;br&gt;&lt;br&gt;&lt;br&gt;&lt;br&gt;&lt;br&gt;&lt;br&gt;&lt;br&gt;&lt;br&gt;&lt;br&gt;&lt;br&gt;&lt;br&gt;&lt;br&gt;&lt;br&gt;&lt;br&gt;&lt;br&gt;&lt;br&gt;&lt;br&gt;&lt;br&gt;" style="rounded=0;whiteSpace=wrap;html=1;strokeWidth=2;" vertex="1" parent="1">
          <mxGeometry x="133" y="50" width="560" height="845" as="geometry" />
        </mxCell>
        <mxCell id="fq6XW8bP3-5Oe7-prgqa-2" value="Patient" style="shape=umlActor;verticalLabelPosition=bottom;verticalAlign=top;html=1;fillColor=#f8cecc;strokeColor=#b85450;" vertex="1" parent="1">
          <mxGeometry x="50.5" y="110" width="30" height="60" as="geometry" />
        </mxCell>
        <mxCell id="fq6XW8bP3-5Oe7-prgqa-3" value="" style="shape=umlActor;verticalLabelPosition=bottom;verticalAlign=top;html=1;" vertex="1" parent="1">
          <mxGeometry x="313" y="965" width="30" height="60" as="geometry" />
        </mxCell>
        <mxCell id="fq6XW8bP3-5Oe7-prgqa-4" value="&lt;b&gt;Primary Actors&lt;/b&gt;" style="text;html=1;strokeColor=none;fillColor=none;align=center;verticalAlign=middle;whiteSpace=wrap;rounded=0;fontSize=16;" vertex="1" parent="1">
          <mxGeometry x="3" y="50" width="125" height="40" as="geometry" />
        </mxCell>
        <mxCell id="fq6XW8bP3-5Oe7-prgqa-5" value="&lt;b&gt;Supporting Actors&lt;/b&gt;" style="text;html=1;strokeColor=none;fillColor=none;align=center;verticalAlign=middle;whiteSpace=wrap;rounded=0;fontSize=16;" vertex="1" parent="1">
          <mxGeometry x="703" y="50" width="145" height="40" as="geometry" />
        </mxCell>
        <mxCell id="fq6XW8bP3-5Oe7-prgqa-6" value="&lt;b&gt;Off-Stage Actors&lt;/b&gt;" style="text;html=1;strokeColor=none;fillColor=none;align=center;verticalAlign=middle;whiteSpace=wrap;rounded=0;fontSize=16;" vertex="1" parent="1">
          <mxGeometry x="334.5" y="915" width="147" height="40" as="geometry" />
        </mxCell>
        <mxCell id="fq6XW8bP3-5Oe7-prgqa-7" value="" style="shape=umlActor;verticalLabelPosition=bottom;verticalAlign=top;html=1;" vertex="1" parent="1">
          <mxGeometry x="503" y="965" width="30" height="60" as="geometry" />
        </mxCell>
        <mxCell id="fq6XW8bP3-5Oe7-prgqa-8" value="" style="endArrow=none;html=1;rounded=0;fillColor=#f8cecc;strokeColor=#b85450;" edge="1" parent="1" source="fq6XW8bP3-5Oe7-prgqa-19" target="fq6XW8bP3-5Oe7-prgqa-2">
          <mxGeometry width="50" height="50" relative="1" as="geometry">
            <mxPoint x="100" y="270" as="sourcePoint" />
            <mxPoint x="237" y="278" as="targetPoint" />
          </mxGeometry>
        </mxCell>
        <mxCell id="fq6XW8bP3-5Oe7-prgqa-9" value="Medical Staff" style="shape=umlActor;verticalLabelPosition=bottom;verticalAlign=top;html=1;fillColor=#ffe6cc;strokeColor=#d79b00;" vertex="1" parent="1">
          <mxGeometry x="50.5" y="610" width="30" height="60" as="geometry" />
        </mxCell>
        <mxCell id="fq6XW8bP3-5Oe7-prgqa-10" value="Server Admin." style="shape=umlActor;verticalLabelPosition=bottom;verticalAlign=top;html=1;fillColor=#d5e8d4;strokeColor=#82b366;" vertex="1" parent="1">
          <mxGeometry x="760.5" y="250" width="30" height="60" as="geometry" />
        </mxCell>
        <mxCell id="fq6XW8bP3-5Oe7-prgqa-11" value="Database Admin." style="shape=umlActor;verticalLabelPosition=bottom;verticalAlign=top;html=1;fillColor=#dae8fc;strokeColor=#6c8ebf;" vertex="1" parent="1">
          <mxGeometry x="760.5" y="405" width="30" height="60" as="geometry" />
        </mxCell>
        <mxCell id="fq6XW8bP3-5Oe7-prgqa-12" value="" style="endArrow=none;html=1;rounded=0;fillColor=#ffe6cc;strokeColor=#d79b00;" edge="1" parent="1" source="fq6XW8bP3-5Oe7-prgqa-23" target="fq6XW8bP3-5Oe7-prgqa-9">
          <mxGeometry width="50" height="50" relative="1" as="geometry">
            <mxPoint x="107.5" y="475" as="sourcePoint" />
            <mxPoint x="80.5" y="375" as="targetPoint" />
          </mxGeometry>
        </mxCell>
        <mxCell id="fq6XW8bP3-5Oe7-prgqa-13" value="" style="endArrow=none;html=1;rounded=0;fillColor=#d5e8d4;strokeColor=#82b366;entryX=0.317;entryY=0.5;entryDx=0;entryDy=0;entryPerimeter=0;" edge="1" parent="1" target="fq6XW8bP3-5Oe7-prgqa-10">
          <mxGeometry width="50" height="50" relative="1" as="geometry">
            <mxPoint x="703" y="310" as="sourcePoint" />
            <mxPoint x="753" y="250" as="targetPoint" />
          </mxGeometry>
        </mxCell>
        <mxCell id="fq6XW8bP3-5Oe7-prgqa-14" value="" style="endArrow=none;html=1;rounded=0;fillColor=#dae8fc;strokeColor=#6c8ebf;entryX=0.317;entryY=0.583;entryDx=0;entryDy=0;entryPerimeter=0;" edge="1" parent="1" target="fq6XW8bP3-5Oe7-prgqa-11">
          <mxGeometry width="50" height="50" relative="1" as="geometry">
            <mxPoint x="710" y="430" as="sourcePoint" />
            <mxPoint x="770" y="360" as="targetPoint" />
          </mxGeometry>
        </mxCell>
        <mxCell id="fq6XW8bP3-5Oe7-prgqa-15" value="&lt;div&gt;&lt;b&gt;Access (Write)&amp;nbsp;&lt;/b&gt;&lt;/div&gt;&lt;div&gt;&lt;b&gt;Health Info&lt;/b&gt;&lt;/div&gt;" style="ellipse;whiteSpace=wrap;html=1;" vertex="1" parent="1">
          <mxGeometry x="231" y="250" width="120" height="60" as="geometry" />
        </mxCell>
        <mxCell id="fq6XW8bP3-5Oe7-prgqa-16" value="&lt;div&gt;&lt;b&gt;Receive Daily&amp;nbsp;&lt;/b&gt;&lt;/div&gt;&lt;div&gt;&lt;b&gt;Notification&lt;/b&gt;&lt;/div&gt;" style="ellipse;whiteSpace=wrap;html=1;" vertex="1" parent="1">
          <mxGeometry x="211" y="315" width="120" height="60" as="geometry" />
        </mxCell>
        <mxCell id="fq6XW8bP3-5Oe7-prgqa-17" value="&lt;b&gt;Log In&amp;nbsp;&lt;br&gt;(Patient)&lt;/b&gt;" style="ellipse;whiteSpace=wrap;html=1;" vertex="1" parent="1">
          <mxGeometry x="169.5" y="150" width="120" height="60" as="geometry" />
        </mxCell>
        <mxCell id="fq6XW8bP3-5Oe7-prgqa-18" value="&lt;div&gt;&lt;b&gt;Review (Read)&amp;nbsp;&lt;/b&gt;&lt;/div&gt;&lt;div&gt;&lt;b&gt;Health Info&lt;/b&gt;&lt;/div&gt;" style="ellipse;whiteSpace=wrap;html=1;" vertex="1" parent="1">
          <mxGeometry x="169.5" y="380" width="120" height="60" as="geometry" />
        </mxCell>
        <mxCell id="fq6XW8bP3-5Oe7-prgqa-19" value="Download &lt;br&gt;Flutter App" style="ellipse;whiteSpace=wrap;html=1;" vertex="1" parent="1">
          <mxGeometry x="150" y="60" width="120" height="60" as="geometry" />
        </mxCell>
        <mxCell id="fq6XW8bP3-5Oe7-prgqa-20" value="Add/Remove &lt;br&gt;Patients" style="ellipse;whiteSpace=wrap;html=1;" vertex="1" parent="1">
          <mxGeometry x="350" y="510" width="120" height="60" as="geometry" />
        </mxCell>
        <mxCell id="fq6XW8bP3-5Oe7-prgqa-21" value="&lt;div&gt;View Statistics&amp;nbsp;&lt;/div&gt;&lt;div&gt;Summary&lt;/div&gt;" style="ellipse;whiteSpace=wrap;html=1;" vertex="1" parent="1">
          <mxGeometry x="340" y="575" width="120" height="60" as="geometry" />
        </mxCell>
        <mxCell id="fq6XW8bP3-5Oe7-prgqa-22" value="&lt;div&gt;Send Notification&amp;nbsp;&lt;/div&gt;&lt;div&gt;to Patient&amp;nbsp;&lt;/div&gt;" style="ellipse;whiteSpace=wrap;html=1;" vertex="1" parent="1">
          <mxGeometry x="319.5" y="780" width="120" height="60" as="geometry" />
        </mxCell>
        <mxCell id="fq6XW8bP3-5Oe7-prgqa-23" value="Access &lt;br&gt;Web Service" style="ellipse;whiteSpace=wrap;html=1;" vertex="1" parent="1">
          <mxGeometry x="348" y="375" width="120" height="60" as="geometry" />
        </mxCell>
        <mxCell id="fq6XW8bP3-5Oe7-prgqa-24" value="&lt;div&gt;View At-Risk&amp;nbsp;&lt;/div&gt;&lt;div&gt;Patients&amp;nbsp;&lt;/div&gt;" style="ellipse;whiteSpace=wrap;html=1;" vertex="1" parent="1">
          <mxGeometry x="468" y="660" width="120" height="60" as="geometry" />
        </mxCell>
        <mxCell id="fq6XW8bP3-5Oe7-prgqa-25" value="View Patient &lt;br&gt;Medical Record" style="ellipse;whiteSpace=wrap;html=1;" vertex="1" parent="1">
          <mxGeometry x="383" y="720" width="120" height="60" as="geometry" />
        </mxCell>
        <mxCell id="fq6XW8bP3-5Oe7-prgqa-26" value="&amp;lt;&amp;lt; include &amp;gt;&amp;gt;" style="endArrow=open;endSize=12;dashed=1;html=1;rounded=0;exitX=0.5;exitY=1;exitDx=0;exitDy=0;entryX=0.5;entryY=0;entryDx=0;entryDy=0;" edge="1" parent="1" source="fq6XW8bP3-5Oe7-prgqa-21" target="fq6XW8bP3-5Oe7-prgqa-25">
          <mxGeometry y="8" width="160" relative="1" as="geometry">
            <mxPoint x="208" y="525" as="sourcePoint" />
            <mxPoint x="130" y="795" as="targetPoint" />
            <mxPoint as="offset" />
          </mxGeometry>
        </mxCell>
        <mxCell id="fq6XW8bP3-5Oe7-prgqa-27" value="&amp;lt;&amp;lt; include &amp;gt;&amp;gt;" style="endArrow=open;endSize=12;dashed=1;html=1;rounded=0;exitX=0.5;exitY=1;exitDx=0;exitDy=0;entryX=0;entryY=0;entryDx=0;entryDy=0;" edge="1" parent="1" source="fq6XW8bP3-5Oe7-prgqa-21" target="fq6XW8bP3-5Oe7-prgqa-24">
          <mxGeometry y="8" width="160" relative="1" as="geometry">
            <mxPoint x="270" y="670" as="sourcePoint" />
            <mxPoint x="340" y="735" as="targetPoint" />
            <mxPoint as="offset" />
          </mxGeometry>
        </mxCell>
        <mxCell id="fq6XW8bP3-5Oe7-prgqa-28" value="Log In&amp;nbsp;&lt;br&gt;(Staff)" style="ellipse;whiteSpace=wrap;html=1;" vertex="1" parent="1">
          <mxGeometry x="339.5" y="442.5" width="120" height="60" as="geometry" />
        </mxCell>
        <mxCell id="fq6XW8bP3-5Oe7-prgqa-29" value="" style="endArrow=none;html=1;rounded=0;fillColor=#f8cecc;strokeColor=#b85450;entryX=1.006;entryY=0.461;entryDx=0;entryDy=0;entryPerimeter=0;" edge="1" parent="1" source="fq6XW8bP3-5Oe7-prgqa-17" target="fq6XW8bP3-5Oe7-prgqa-2">
          <mxGeometry width="50" height="50" relative="1" as="geometry">
            <mxPoint x="170" y="117" as="sourcePoint" />
            <mxPoint x="91" y="145" as="targetPoint" />
          </mxGeometry>
        </mxCell>
        <mxCell id="fq6XW8bP3-5Oe7-prgqa-30" value="" style="endArrow=none;html=1;rounded=0;fillColor=#f8cecc;strokeColor=#b85450;" edge="1" parent="1" source="fq6XW8bP3-5Oe7-prgqa-15" target="fq6XW8bP3-5Oe7-prgqa-2">
          <mxGeometry width="50" height="50" relative="1" as="geometry">
            <mxPoint x="187" y="175" as="sourcePoint" />
            <mxPoint x="91" y="148" as="targetPoint" />
          </mxGeometry>
        </mxCell>
        <mxCell id="fq6XW8bP3-5Oe7-prgqa-31" value="" style="endArrow=none;html=1;rounded=0;fillColor=#f8cecc;strokeColor=#b85450;" edge="1" parent="1" source="fq6XW8bP3-5Oe7-prgqa-16" target="fq6XW8bP3-5Oe7-prgqa-2">
          <mxGeometry width="50" height="50" relative="1" as="geometry">
            <mxPoint x="263" y="267" as="sourcePoint" />
            <mxPoint x="91" y="159" as="targetPoint" />
          </mxGeometry>
        </mxCell>
        <mxCell id="fq6XW8bP3-5Oe7-prgqa-32" value="" style="endArrow=none;html=1;rounded=0;fillColor=#f8cecc;strokeColor=#b85450;" edge="1" parent="1" source="fq6XW8bP3-5Oe7-prgqa-18" target="fq6XW8bP3-5Oe7-prgqa-2">
          <mxGeometry width="50" height="50" relative="1" as="geometry">
            <mxPoint x="254" y="328" as="sourcePoint" />
            <mxPoint x="91" y="165" as="targetPoint" />
          </mxGeometry>
        </mxCell>
        <mxCell id="fq6XW8bP3-5Oe7-prgqa-33" value="" style="endArrow=none;html=1;rounded=0;fillColor=#ffe6cc;strokeColor=#d79b00;" edge="1" parent="1" source="fq6XW8bP3-5Oe7-prgqa-20" target="fq6XW8bP3-5Oe7-prgqa-9">
          <mxGeometry width="50" height="50" relative="1" as="geometry">
            <mxPoint x="366" y="444" as="sourcePoint" />
            <mxPoint x="91" y="639" as="targetPoint" />
          </mxGeometry>
        </mxCell>
        <mxCell id="fq6XW8bP3-5Oe7-prgqa-34" value="" style="endArrow=none;html=1;rounded=0;fillColor=#ffe6cc;strokeColor=#d79b00;" edge="1" parent="1" source="fq6XW8bP3-5Oe7-prgqa-28" target="fq6XW8bP3-5Oe7-prgqa-9">
          <mxGeometry width="50" height="50" relative="1" as="geometry">
            <mxPoint x="383" y="439" as="sourcePoint" />
            <mxPoint x="91" y="640" as="targetPoint" />
          </mxGeometry>
        </mxCell>
        <mxCell id="fq6XW8bP3-5Oe7-prgqa-35" value="" style="endArrow=none;html=1;rounded=0;fillColor=#ffe6cc;strokeColor=#d79b00;" edge="1" parent="1" source="fq6XW8bP3-5Oe7-prgqa-21" target="fq6XW8bP3-5Oe7-prgqa-9">
          <mxGeometry width="50" height="50" relative="1" as="geometry">
            <mxPoint x="367" y="504" as="sourcePoint" />
            <mxPoint x="91" y="642" as="targetPoint" />
          </mxGeometry>
        </mxCell>
        <mxCell id="fq6XW8bP3-5Oe7-prgqa-36" value="" style="endArrow=none;html=1;rounded=0;fillColor=#ffe6cc;strokeColor=#d79b00;" edge="1" parent="1" source="fq6XW8bP3-5Oe7-prgqa-22" target="fq6XW8bP3-5Oe7-prgqa-9">
          <mxGeometry width="50" height="50" relative="1" as="geometry">
            <mxPoint x="351" y="621" as="sourcePoint" />
            <mxPoint x="91" y="648" as="targetPoint" />
          </mxGeometry>
        </mxCell>
        <mxCell id="fq6XW8bP3-5Oe7-prgqa-37" value="Epic Admin." style="shape=umlActor;verticalLabelPosition=bottom;verticalAlign=top;html=1;fillColor=#e1d5e7;strokeColor=#9673a6;" vertex="1" parent="1">
          <mxGeometry x="760.5" y="550" width="30" height="60" as="geometry" />
        </mxCell>
        <mxCell id="fq6XW8bP3-5Oe7-prgqa-38" value="" style="endArrow=none;html=1;rounded=0;fillColor=#e1d5e7;strokeColor=#9673a6;entryX=0.317;entryY=0.583;entryDx=0;entryDy=0;entryPerimeter=0;" edge="1" parent="1" target="fq6XW8bP3-5Oe7-prgqa-37">
          <mxGeometry width="50" height="50" relative="1" as="geometry">
            <mxPoint x="710" y="575" as="sourcePoint" />
            <mxPoint x="770" y="505" as="targetPoint" />
          </mxGeometry>
        </mxCell>
      </root>
    </mxGraphModel>
  </diagram>
</mxfile>
